<?xml version="1.0" encoding="utf-8"?>
<!-- Generator: Adobe Illustrator 28.0.0, SVG Export Plug-In . SVG Version: 6.00 Build 0)  -->
<svg version="1.1" id="Layer_1" xmlns="http://www.w3.org/2000/svg" xmlns:xlink="http://www.w3.org/1999/xlink" x="0px" y="0px"
	 viewBox="0 0 1400 1400" style="enable-background:new 0 0 1400 1400;" xml:space="preserve">
<style type="text/css">
	.st0{fill:url(#SVGID_1_);}
	.st1{fill:url(#SVGID_00000045596141194452903590000010289807945532177054_);}
	.st2{fill:url(#SVGID_00000174583735949238697010000009250887698975992970_);}
	.st3{fill:url(#SVGID_00000119115703826216961500000010976343867396326795_);}
	.st4{fill:url(#SVGID_00000120528272272016920160000018382397840863544207_);}
	.st5{fill:url(#SVGID_00000139274809575009569390000000918512404357479095_);}
	.st6{fill:url(#SVGID_00000047757245279787049820000006889368371557457832_);}
	.st7{fill:url(#SVGID_00000129892539696237114780000012557178601516323728_);}
	.st8{fill:url(#SVGID_00000021106046070968226560000012899386518718949776_);}
	.st9{fill:url(#SVGID_00000165945393654237286850000000909748942700929945_);}
	.st10{fill:url(#SVGID_00000150781175035199663090000006850677090276815507_);}
	.st11{fill:url(#SVGID_00000010991037397154321290000011071567868681889697_);}
	.st12{fill:url(#SVGID_00000017505936362833341040000001063223122812826267_);}
	.st13{fill:url(#SVGID_00000098930527464357503620000004858654323467955861_);}
</style>
<linearGradient id="SVGID_1_" gradientUnits="userSpaceOnUse" x1="-101.752" y1="498.5972" x2="1268.838" y2="1364.1511">
	<stop  offset="0" style="stop-color:#EE3432"/>
	<stop  offset="3.010000e-02" style="stop-color:#E73536"/>
	<stop  offset="0.3791" style="stop-color:#9D4064"/>
	<stop  offset="0.6682" style="stop-color:#664785"/>
	<stop  offset="0.8831" style="stop-color:#454C99"/>
	<stop  offset="1" style="stop-color:#384EA1"/>
</linearGradient>
<path class="st0" d="M239.3,580c-0.7-0.4-1.5-0.1-1.9,0.4c-12.2,20.4-26.9,36.4-44.8,48.5c-21.1,14.3-44.2,23.9-62.1,30.7
	c-36,13.7-72.8,22-103.9,28.4c-9.3,1.8-18.7,3.6-28,5.3c0,0.9,0,1.8,0,2.7c9.4-1.7,18.9-3.5,28.4-5.4c31.2-6.4,68.2-14.7,104.4-28.4
	c18-6.8,41.4-16.5,62.6-31c18.3-12.4,33.1-28.5,45.6-49.4C240.1,581.2,239.9,580.4,239.3,580z"/>
<linearGradient id="SVGID_00000013153133725277424090000017427141627953275571_" gradientUnits="userSpaceOnUse" x1="-408.4926" y1="984.3157" x2="962.0974" y2="1849.8696">
	<stop  offset="0" style="stop-color:#EE3432"/>
	<stop  offset="3.010000e-02" style="stop-color:#E73536"/>
	<stop  offset="0.3791" style="stop-color:#9D4064"/>
	<stop  offset="0.6682" style="stop-color:#664785"/>
	<stop  offset="0.8831" style="stop-color:#454C99"/>
	<stop  offset="1" style="stop-color:#384EA1"/>
</linearGradient>
<path style="fill:url(#SVGID_00000013153133725277424090000017427141627953275571_);" d="M113.3,1377.2c0.1,4.3,0,8.8-0.1,13.1
	c-0.1,3.3-0.2,6.7-0.1,10.1c0.8-0.1,1.6-0.1,2.5-0.1c0.1,0,0.2,0,0.3,0c0-3.3,0.1-6.7,0.2-10c0.1-4.3,0.3-8.8,0-13.3
	c-1.1-26.5-8.5-53.4-22.6-82.2c-8.9-18.3-21.1-34.6-33-50.6c-1.9-2.4-3.7-4.9-5.5-7.3l-2.2-2.8c-13.1-17.6-26.5-35.7-34.5-56.8
	c-1.4-3.8-1.5-6.4-0.4-9.3c0.3-0.7-0.1-1.5-0.8-1.8s-1.5,0.1-1.8,0.8c-1.2,3.7-1.1,6.9,0.4,11.2c8,21.5,21.6,39.8,34.8,57.5l2.2,2.8
	c1.8,2.4,3.7,4.9,5.5,7.3c11.8,15.7,24.1,32.1,32.7,50C104.8,1324.5,112.1,1351.1,113.3,1377.2z"/>
<linearGradient id="SVGID_00000106848976815935019240000009267985260352075948_" gradientUnits="userSpaceOnUse" x1="-336.7212" y1="870.6671" x2="1033.8687" y2="1736.2209">
	<stop  offset="0" style="stop-color:#EE3432"/>
	<stop  offset="3.010000e-02" style="stop-color:#E73536"/>
	<stop  offset="0.3791" style="stop-color:#9D4064"/>
	<stop  offset="0.6682" style="stop-color:#664785"/>
	<stop  offset="0.8831" style="stop-color:#454C99"/>
	<stop  offset="1" style="stop-color:#384EA1"/>
</linearGradient>
<path style="fill:url(#SVGID_00000106848976815935019240000009267985260352075948_);" d="M462.9,1384.6c2.5,5.3,5,10.7,6.7,16.4
	c0.2,0,0.4,0.1,0.6,0.1c0.8,0,1.7,0.1,2.5,0.3c-1.6-6.3-4.4-12.2-7.2-17.7c-0.5-1.1-0.9-2-1.5-3.1c-8.5-17.7-21.2-33.8-39.9-50.7
	c-21.2-19.1-46.9-35.2-81-50.7c-20-9.1-41.9-16.9-67.2-23.8c-17.2-4.6-34.9-9.5-52.9-12.4c-0.8-0.1-1.6-0.1-2.4-0.3
	c-3.5-0.1-5.7-0.5-6.6-3.4c-0.3-0.7-1.1-1.1-1.8-0.8c-0.7,0.3-1.1,1.1-0.8,1.8c1.6,4.7,6,5,9.1,5.1c0.8,0,1.5,0.1,2.2,0.1
	c17.7,3,35.4,7.7,52.6,12.4c25,6.8,46.9,14.6,66.7,23.5c33.7,15.4,59.2,31.4,80.2,50.2c18.5,16.6,31,32.5,39.4,49.9
	C461.9,1382.6,462.3,1383.6,462.9,1384.6z"/>
<linearGradient id="SVGID_00000056414267631558152780000004961583933341292459_" gradientUnits="userSpaceOnUse" x1="83.9378" y1="204.5606" x2="1454.5277" y2="1070.1145">
	<stop  offset="0" style="stop-color:#EE3432"/>
	<stop  offset="3.010000e-02" style="stop-color:#E73536"/>
	<stop  offset="0.3791" style="stop-color:#9D4064"/>
	<stop  offset="0.6682" style="stop-color:#664785"/>
	<stop  offset="0.8831" style="stop-color:#454C99"/>
	<stop  offset="1" style="stop-color:#384EA1"/>
</linearGradient>
<path style="fill:url(#SVGID_00000056414267631558152780000004961583933341292459_);" d="M1339.4,961.5l-11.5,5.7
	c-7.8,3.8-15.8,7.6-23.7,11.2c-10.8,5.1-22.2,10.4-33,16.1c-1.6,0.8-3.4,1.8-5,2.6c-10.4,5.4-21.2,11.1-30.2,19.6
	c-2.3,2.2-3.9,4.6-5.5,7c-1.4,2.2-2.7,4.2-4.5,6c-0.5,0.5-0.5,1.4,0,1.9c0.3,0.3,0.7,0.4,0.9,0.4c0.3,0,0.7-0.1,0.9-0.4
	c1.9-2,3.4-4.2,4.9-6.4c1.5-2.3,3.1-4.6,5.1-6.6c8.7-8.2,19.2-13.8,29.5-19.1c1.8-0.8,3.4-1.8,5-2.6c10.7-5.7,22-10.8,32.9-16
	c7.7-3.7,15.8-7.4,23.7-11.4l11.5-5.7c20-9.9,40.2-19.9,60.4-30.4c0-1,0-2,0-3.1C1380.4,941.2,1359.8,951.4,1339.4,961.5z"/>
<linearGradient id="SVGID_00000155868706267866136940000007094244653011613351_" gradientUnits="userSpaceOnUse" x1="-335.0097" y1="867.9568" x2="1035.5802" y2="1733.5107">
	<stop  offset="0" style="stop-color:#EE3432"/>
	<stop  offset="3.010000e-02" style="stop-color:#E73536"/>
	<stop  offset="0.3791" style="stop-color:#9D4064"/>
	<stop  offset="0.6682" style="stop-color:#664785"/>
	<stop  offset="0.8831" style="stop-color:#454C99"/>
	<stop  offset="1" style="stop-color:#384EA1"/>
</linearGradient>
<path style="fill:url(#SVGID_00000155868706267866136940000007094244653011613351_);" d="M278.8,1225.1c-0.3-0.1-0.7-0.4-1.1-0.7
	c-0.8-0.5-1.9-1.4-3.5-1.4c-12.3,0.4-24.5-1.5-36.4-3.2c-1.9-0.3-3.7-0.5-5.4-0.8c-10.7-1.6-22-3.4-33-6.1
	c-22.3-5.4-42.2-12.2-60.7-20.6c-25.2-11.6-46.7-25.2-65.9-41.4c-24.3-20.7-44.2-47.5-64.6-86.7c-2.7-5.3-5.4-10.7-8.1-16.1
	c0.2,1.4,0.3,2.8,0.2,4.3c0,0.5,0,1-0.1,1.5c1.9,3.8,3.8,7.7,5.7,11.4c20.4,39.6,40.6,66.5,65.2,87.5c19.3,16.4,41,30,66.4,41.7
	c18.8,8.5,38.8,15.3,61.3,20.8c11.1,2.7,22.4,4.5,33.3,6.1c1.8,0.3,3.5,0.5,5.3,0.8c11.9,1.8,24.3,3.7,36.8,3.2
	c0.7,0,1.2,0.4,1.9,0.9c0.5,0.4,1.1,0.8,1.8,1.1c0.3,0.1,0.4,0.1,0.5,0.1c0.5,0,0.9-0.3,1.2-0.8
	C279.9,1226.2,279.5,1225.3,278.8,1225.1z"/>
<linearGradient id="SVGID_00000146500802195961288300000000565726355480847746_" gradientUnits="userSpaceOnUse" x1="-183.1347" y1="627.4654" x2="1187.4552" y2="1493.0193">
	<stop  offset="0" style="stop-color:#EE3432"/>
	<stop  offset="3.010000e-02" style="stop-color:#E73536"/>
	<stop  offset="0.3791" style="stop-color:#9D4064"/>
	<stop  offset="0.6682" style="stop-color:#664785"/>
	<stop  offset="0.8831" style="stop-color:#454C99"/>
	<stop  offset="1" style="stop-color:#384EA1"/>
</linearGradient>
<path style="fill:url(#SVGID_00000146500802195961288300000000565726355480847746_);" d="M68.1,986.4c8.2,8.5,16.4,17.6,24.2,26.2
	c12.2,13.5,24.9,27.6,38.1,40.6c23.1,22.9,49.8,42.9,81.4,61.3c22.9,13.3,46.8,23.8,71.4,31.5c29.5,9.2,61.4,15.3,97.5,18.7
	c28.7,2.6,58.6,4.5,88.7,5.4c20.1,0.7,40.7,1.1,60.9,1.2l12.2,0.1c28.1,0.1,57.2,0.4,85.9,1.4c27.2,0.9,62.7,2.3,98,4.7
	c26.5,2,54,5.5,81.7,10.7c22.2,4.1,44.5,9.7,66.1,15.3c5.3,1.4,10.4,2.7,15.7,4.1c11.8,3,23.8,6.1,35.3,9.2
	c27,7.2,55,14.6,82.9,20.4c5.3,1.1,10.5,2.3,15.8,3.5c12.6,2.8,25.6,5.8,38.4,8c12.6,2.3,25.8,4.3,39.1,6.1
	c13.4,1.9,27,3.1,40.3,4.3c7.3,0.5,14.7,1.2,22,2c5.5,0.5,11.1,0.4,16.5,0.3c2.7,0,5.7,0,8.5-0.1c2.4-0.1,4.1,0,5.1,1.5
	c0.3,0.4,0.7,0.5,1.1,0.5c0.3,0,0.5-0.1,0.8-0.3c0.5-0.4,0.7-1.4,0.3-1.9c-2-2.7-4.9-2.6-7.3-2.6h-1.2c-2.4,0-5,0.1-7.4,0.1
	c-5.3,0.1-10.8,0.3-16.1-0.3c-7.3-0.8-14.9-1.5-22-2.2c-13.3-1.1-26.8-2.3-40.2-4.2c-13.4-1.8-26.5-3.8-39.1-6.1
	c-12.7-2.2-25.7-5.1-38.3-8c-5.3-1.2-10.5-2.4-15.8-3.5c-27.9-6-55.9-13.3-82.9-20.4c-11.5-3-23.5-6.2-35.3-9.2
	c-5.3-1.4-10.4-2.7-15.7-4.1c-21.6-5.7-44.1-11.4-66.4-15.4c-27.7-5.1-55.3-8.7-82-10.7c-35.3-2.4-70.9-3.8-98-4.7
	c-28.7-0.9-57.7-1.1-85.9-1.4l-12.2-0.1c-20.1-0.1-40.7-0.5-60.9-1.2c-30-0.9-59.9-2.8-88.4-5.4c-36-3.4-67.8-9.5-97-18.7
	c-24.3-7.6-48.3-18.1-70.9-31.2c-31.5-18.4-57.9-38.3-80.9-60.9c-13.1-13-25.8-26.9-38-40.4c-7.8-8.7-16-17.7-24.2-26.4
	C50.7,964,27.2,940.6-0.9,921c-0.1,1.1-0.1,2.2-0.2,3.4C26.2,943.8,49.1,966.5,68.1,986.4z"/>
<linearGradient id="SVGID_00000018238749707012036460000009980348316555544973_" gradientUnits="userSpaceOnUse" x1="-422.7694" y1="1006.9229" x2="947.8205" y2="1872.4768">
	<stop  offset="0" style="stop-color:#EE3432"/>
	<stop  offset="3.010000e-02" style="stop-color:#E73536"/>
	<stop  offset="0.3791" style="stop-color:#9D4064"/>
	<stop  offset="0.6682" style="stop-color:#664785"/>
	<stop  offset="0.8831" style="stop-color:#454C99"/>
	<stop  offset="1" style="stop-color:#384EA1"/>
</linearGradient>
<path style="fill:url(#SVGID_00000018238749707012036460000009980348316555544973_);" d="M23.4,1246.3
	c-7.9-28.5-15.1-54.7-23.1-80.5c0,2.6-0.2,5.2-0.4,7.8c7.1,23.5,13.8,47.5,20.9,73.3c4.9,17.6,8.7,33.5,11.4,48.5
	c5.8,31.6,6.5,57.7,2.3,82c-0.9,5.1-2,10.4-3.2,15.4c-0.7,2.5-1.2,5.2-1.8,7.8c0.3,0,0.5,0,0.8,0c0.7,0,1.3,0,2,0.1
	c0.5-2.4,1.1-4.7,1.6-7.1c1.1-5.1,2.3-10.3,3.2-15.6c4.3-24.6,3.5-51-2.3-83C32,1280,28.2,1264,23.4,1246.3z"/>
<linearGradient id="SVGID_00000063615954322932551770000008734251508438786475_" gradientUnits="userSpaceOnUse" x1="-98.2371" y1="493.0315" x2="1272.3528" y2="1358.5854">
	<stop  offset="0" style="stop-color:#EE3432"/>
	<stop  offset="3.010000e-02" style="stop-color:#E73536"/>
	<stop  offset="0.3791" style="stop-color:#9D4064"/>
	<stop  offset="0.6682" style="stop-color:#664785"/>
	<stop  offset="0.8831" style="stop-color:#454C99"/>
	<stop  offset="1" style="stop-color:#384EA1"/>
</linearGradient>
<path style="fill:url(#SVGID_00000063615954322932551770000008734251508438786475_);" d="M996.8,1163.5c0.4-1.8,0.8-3.5,0.9-5.4
	c2.4-33.8,19.6-61.1,34.3-81.1c19.9-26.8,44.1-53.8,76.3-85.1c23.7-23.3,47.7-42.2,73.4-58c29.1-18.1,61.7-31.1,99.7-39.8
	c22.3-5,44.6-9.9,66.3-14.2c17.7-3.6,35.9-8.2,54.1-13.7c0-0.4,0-0.8,0-1.2c0.1-0.6,0.1-1.1,0.2-1.7c-18.6,5.7-37.2,10.4-55.3,14.1
	c-21.6,4.3-44,9.2-66.3,14.2c-38.3,8.8-71.1,21.8-100.5,40c-26,16-50,35-74,58.3c-32.3,31.2-56.5,58.4-76.5,85.3
	c-14.9,20.3-32.3,48-34.9,82.5c-0.1,1.6-0.5,3.2-0.9,5c-0.1,0.5-0.3,1.1-0.4,1.6c-11.4-3.2-22.7-7.2-33.8-11
	c-15.1-5.3-30.8-10.7-46.8-14.3c-2.2-0.5-4.3-1.2-6.5-1.9c0.4-0.3,0.7-0.7,0.7-1.1c0.3-2.4,1.8-3.9,3.5-5.7c0.5-0.5,1.1-1.1,1.6-1.6
	c7.6-8.2,14.9-17.6,23.3-30.4c6.4-9.9,12.3-20.3,18.1-30.4c4.6-7.8,9.2-16,14.1-23.8c15.4-24.9,34.6-46.4,56.8-63.6
	c33.8-26.1,72.9-45.3,119.8-58.8c18.7-5.5,37.9-10.3,56.5-15l7.6-1.9c27.3-6.9,56.1-14.5,87.9-23l7.7-2c15.7-4.3,32.1-8.7,47.7-13.7
	c16.6-5.2,32.9-10.5,48.9-17c0-0.3,0-0.5,0-0.8c0-0.7,0-1.5,0.1-2.2c-16.2,6.6-32.8,12.1-49.7,17.4c-15.7,5-31.9,9.3-47.6,13.5
	l-7.7,2c-31.8,8.5-60.4,16.1-87.9,23l-7.6,1.9c-18.7,4.7-37.9,9.5-56.7,15c-47.2,13.7-86.7,33-120.6,59.4
	c-22.4,17.4-41.8,39.1-57.3,64.4c-4.9,7.8-9.6,16.1-14.1,23.9c-5.8,10.1-11.8,20.4-18.1,30.3c-8.4,12.7-15.4,22-23,30.2
	c-0.4,0.5-0.9,0.9-1.5,1.5c-1.8,1.9-3.9,4.1-4.2,7.4c0,0.1,0.1,0.4,0.1,0.5c-5.5-2-11.1-4.6-16.4-7.2c-6.6-3.1-13.7-6.4-21-8.7
	l-2.6-0.8c-3.7-1.1-7.4-2.2-11.1-3.5c-0.8-0.4-1.8-0.7-2.6-0.9c-4.5-1.5-8.7-3-12.7-5.5c-4.5-2.8-10-4.2-15.3-5.4
	c-1.6-0.3-3.1-0.7-4.6-1.1l-0.5-0.1c-5.1-1.2-10-2.4-13-6.9c-0.4-0.5-0.8-0.9-1.2-1.4c0.1-0.3,0.1-0.4,0.3-0.5
	c0.4-0.8,0.7-1.5,1.2-2c18.9-18.9,40.3-37.5,65.5-56.7c36.1-27.6,70.5-48.8,105.1-64.9c24.5-11.5,49.9-20.7,73.6-28.9
	c21.4-7.4,44.2-14.5,74.4-22.7l9.6-2.6c40-11,81.5-22.3,121.6-36.2c25.2-8.8,51.9-18.4,77.2-31.1c19.5-9.7,38.8-19.9,57.5-29.8
	c4.1-2.1,8.1-4.4,11.9-6.6c0-1,0.1-1.9,0.2-2.9c-4.2,2.5-8.5,5-13,7.4c-18.7,9.9-38,20-57.5,29.8c-25.2,12.6-51.8,22.3-76.9,31.1
	c-40,13.8-81.4,25.2-121.4,36.1l-9.6,2.6c-30.3,8.2-53.3,15.3-74.6,22.7c-23.8,8.1-49.2,17.4-73.8,28.9
	c-34.8,16.2-69.2,37.5-105.6,65.2c-25.2,19.3-46.7,37.9-65.7,56.9c-0.8,0.8-1.4,1.8-1.8,2.7c-0.1,0.1-0.1,0.3-0.3,0.4
	c-0.9-0.3-1.9-0.4-2.8-0.5c-1.1-0.1-2.2-0.3-3.1-0.7c-11.9-5-23.9-10.1-35.7-15c-16.2-6.9-33-13.9-49.4-21.1c-2.3-1.1-4.7-2-7-3.1
	c0.7-1.8,1.9-3.2,4.1-4.5c20.3-11.6,41.4-23.7,63.4-32.9c17.6-7.4,32.5-13.4,47.7-18.9l3.1-1.1c12.7-4.7,26-9.6,39.1-13.8
	c33-11,66.7-19.3,99.3-27.3c24.1-5.8,55.7-13.9,87.4-24.2l5.3-1.8c25-8.1,50.7-16.5,75.9-25.2c3.2-1.2,6.5-2.3,9.7-3.4
	c21.8-7.4,44.2-15,65.3-25.4c25-12.4,49.5-26.8,73.3-40.7l3.9-2.3c10.5-6.1,21.4-12,31.8-17.9c19.2-10.7,39.1-21.6,58-33.8
	c2.7-1.8,5.4-3.5,8.1-5.3c7.6-4.9,15.2-9.8,22.8-14.9v-3c0-0.2,0-0.3,0-0.5c-8.3,5.5-16.6,11-24.9,16.3c-2.7,1.8-5.4,3.5-8.1,5.3
	c-18.8,12-38.7,23-57.9,33.7c-10.4,5.8-21.2,11.8-31.8,17.9l-3.9,2.3c-23.7,13.8-48.1,28.1-73.2,40.6c-21,10.3-43.4,18-65,25.3
	c-3.2,1.2-6.5,2.3-9.7,3.4c-25,8.7-50.8,17-75.7,25.2l-5.3,1.8c-31.5,10.3-63.2,18.4-87.1,24.2c-32.6,8-66.4,16.4-99.5,27.3
	c-13.1,4.3-26.4,9.1-39.1,13.8l-3.1,1.1c-15.3,5.5-30.2,11.6-47.7,18.9c-22.2,9.3-43.3,21.4-63.7,33.1c-2.6,1.6-4.2,3.5-5.1,5.8
	c-29.2-12.8-57.9-25.7-85.7-39.6c-2.6-1.2-5-2.4-7.6-3.7c0-0.1,0-0.1,0-0.1c1.2-2.4,2.8-3.7,5.8-4.1c4.5-0.8,8.9-1.9,13.1-2.8
	c3.4-0.8,7-1.8,10.5-2.4c18.8-3.8,39.2-7.4,62.2-11.2c6.5-0.9,13.1-2,19.7-3c9.7-1.5,19.9-3,29.8-4.6c8.7-1.5,17.6-2.4,26.2-3.4
	c6.1-0.7,12.3-1.4,18.4-2.2c25.3-3.7,46.4-6.6,68.3-10.1c4.9-0.7,9.6-1.5,14.3-2.2c16.5-2.6,33.5-5.1,50-8.8
	c56.5-12.7,111.3-30.2,162.7-51.8c27.6-11.6,56.1-24.6,89.9-41c25.8-12.6,53.1-26.5,78-45.3c5-3.8,9.9-7.6,14.9-11.4
	c24.5-18.8,49.9-38.1,78.2-52.2c3.1-1.5,8.1-4.1,8.2-9.9c0-0.3-0.1-0.4-0.1-0.5c2-0.5,3.8-1.4,4.9-2l0.7-0.3
	c12.6-5.7,25.4-10.6,38.4-14.6c-0.1-1-0.1-2.1,0-3.1c-13.1,4-26,8.9-38.7,14.7l-0.7,0.3c-3.4,1.6-6.4,3-10.1,2.3
	c-3.5-0.7-6.6,0.9-9.3,2.3c-0.9,0.5-1.9,0.9-2.8,1.4c-34.3,13.4-68.2,30.3-99.5,46.5c-0.5,0.3-1.1,0.5-1.6,0.8
	c-1.9,1.1-3.7,2-5.5,2.2c-2.7,0.4-5.7,0.8-8.2,2.3c0,0-0.1-0.1-0.3-0.3c-6.2-4.5-13.1-3.7-19.7-3c-1.4,0.1-2.7,0.3-4.1,0.4
	c-4.7,0.3-8.1,0.4-11.4,0.1c-0.8,0-1.8-0.1-2.6-0.1c-6-0.4-12-0.8-18.1,0.9c-2.4,0.5-5.5,0.3-7.8-0.7c-4.9-2-10-1.9-14.9-1.9
	c-3.1,0.1-6.2,0.1-9.2-0.4c-0.9-0.1-4.1-0.7-5.7,1.1c-0.1,0.1-0.3,0.4-0.4,0.5c-8.5-1.8-17.3-2.6-25.7-3.4c-7.3-0.8-15-1.5-22.3-2.8
	c-4.2-0.7-8.4-1.6-12.4-2.4c-6.9-1.5-14.2-3-21.4-3.9c-1.9-0.3-3.9-0.7-6-1.1c-5.3-1.1-10.5-2.3-16.4-0.8c-1.8,0.4-4.7-0.8-7.4-1.8
	c-0.8-0.3-1.8-0.7-2.6-0.9c-11.6-4.1-25.6-8.1-40.2-8.7c-3-0.1-5.8-1.4-8.8-2.6c-2.3-1.1-4.7-2-7.3-2.6c-3.5-0.7-7.2-1.6-10.7-2.6
	c-5-1.4-10.1-2.8-15.6-3.4c-2.8-0.3-5.8-1.4-8.8-2.6c-2.6-0.9-5.1-2-8-2.6c-7-1.4-13.9-3.8-20.7-6.2c-8.2-3-16.9-6-25.6-7.2
	c-4.5-0.7-8.2-2.3-12.2-4.2c-3.7-1.8-7.6-3.5-12-4.3c-4.7-0.8-9.2-2.7-13.7-4.6c-4.6-1.9-9.2-3.9-14.2-4.7
	c-5.5-1.1-10.5-3.4-15.6-5.7c-4.5-2-9.1-4.2-14.1-5.3c-8.5-1.9-16.5-5.4-24.2-8.8c-3.4-1.5-6.9-3.1-10.5-4.5c-3.9-1.6-8-3-11.9-4.3
	c-7.8-2.7-16-5.4-23-9.7c-11.6-7-24.2-12.8-36.2-18.5c-9.1-4.2-18.5-8.7-27.6-13.5c-3.9-2.2-8-4.2-12-6.1
	c-5.3-2.6-10.8-5.3-15.8-8.2c-3.7-2.2-7.4-4.5-11-6.6c-5.3-3.1-10.5-6.4-16-9.5c-8.1-4.6-16.4-9.5-24.2-14.2
	c-7-4.2-14.3-8.7-21.5-12.7c-4.6-2.7-9.2-5.3-13.8-8c-11.9-6.9-24.2-13.9-36.5-20.6c-16.9-9.1-31.2-16.1-45.3-21.9
	c-3.1-1.2-6.4-2.6-9.3-3.9c-6.9-3-14.1-6.1-21.4-8.5c-3-0.9-6.1-1.9-9.1-3c-11-3.8-22.3-7.6-34.3-9.2c-3.7-0.4-7.3-1.4-11.1-2.4
	c-3.7-0.9-7.4-2-11.2-2.6c-12-1.8-24.9-3.7-38-4.3c-11.1-0.7-21.6-0.3-33.9,0.7c-2.2,0.1-4.5,0.3-6.8,0.4
	c-6.2,0.4-12.8,0.8-19.1,2.2c-4.9,1.1-9.7,1.8-14.6,2.6c-7.3,1.2-14.9,2.4-22.2,4.6c-1.8,0.5-3.7,1.1-5.5,1.6
	c-10.1,3-20.8,6.1-30.8,10.1c-13.8,5.5-25.8,10.8-36.8,16c-25.7,12.3-51.3,25.8-76,39.1c-7,3.8-13.9,7.4-20.8,11.1
	c-3.7,1.9-7.6,3.7-11.4,5.4c-6.8,3-13.7,6.2-19.7,10.4c-8.6,5.8-17.9,10.1-27.3,13.8c0,1,0.1,2,0.1,3c6.9-2.6,13.8-5.6,20.4-9.3
	c0,0.5,0.1,1.1,0.7,1.4c2,1.2,4.2,1.8,6.5,1.8c1.8,0,3.5-0.3,5.4-0.9c3-1.1,6-1.9,8.9-2.8c1.2-0.4,2.6-0.8,3.9-1.2l4.2-1.4
	c19.9-6.6,40.6-13.4,60.2-21.6c24.5-10.1,48.1-22.9,71.1-35.2c15.8-8.4,32.1-17.2,48.5-25c1.1-0.4,2-0.9,3-1.4
	c4.5-2.2,8.8-4.3,13.8-5.5c-2,5.3-5.3,8.7-10.8,11.2c-7.2,3.7-13.5,8.8-19.6,13.8c-1.2,1.1-2.6,2.2-3.8,3.1
	c-22.2,17.7-47.9,29.2-72.8,40.3c-21.5,9.6-43,18.7-64.9,27.7c-26.2,10.9-51.2,19.8-76,26.9c-0.1,1-0.2,2-0.4,2.9
	c25.3-7.2,50.9-16.2,77.5-27.3c21.9-9.1,43.4-18.1,64.9-27.7c25-11.1,50.8-22.7,73.3-40.6c1.2-1.1,2.6-2,3.8-3.1
	c6-4.9,12.2-10,19.1-13.4c0.7-0.4,1.2-0.7,1.9-1.1c0,4.1-0.8,8-1.8,12.2c-0.3,1.5-0.7,3.1-0.9,4.6c-0.3,1.1-0.9,1.5-2.4,2.2
	c-0.9,0.4-2,0.9-2.8,1.8c-17.6,18.4-39.8,29.3-61.1,38.9c-6,2.7-11.9,5.5-17.9,8.2c-12.7,5.8-25.7,11.9-38.8,17.6
	C86.6,636,63,645.2,40.9,652.6c-14.6,5-29.2,8.9-42.6,12.1c0.1,1,0.1,1.9,0.2,2.9c13.7-3.2,28.6-7.2,43.4-12.3
	c22.2-7.4,45.8-16.6,72.6-28.1c13.1-5.5,26.2-11.6,38.9-17.6c5.8-2.8,11.8-5.5,17.7-8.2c21.5-9.7,44.1-20.8,61.9-39.5
	c0.5-0.5,1.2-0.8,2-1.2c0.4-0.1,0.7-0.4,1.1-0.5c0.1,0.4,0.4,0.8,0.5,1.1c0.5,0.8,0.9,1.8,0.9,2.3c-0.4,3.2-0.1,6.2,0.5,9.1
	c-0.1,0-0.3,0-0.4,0.1c-0.5,0.3-1.1,0.5-1.6,0.8c-1.1,0.5-2.3,1.1-3.4,2.2c-12.4,14.9-29.5,23.4-46,31.6c-2.4,1.2-4.7,2.4-7.2,3.7
	c-6.1,3.1-12.4,6.4-18.5,9.3c-12.8,6.4-26.1,13-38.8,20c-17.7,9.7-37.1,15-55.2,19.5c-9.1,2.2-18.1,4.6-27,6.8
	c-13.5,3.4-27.4,6.9-41.4,10.1c0,0.9,0,1.9,0,2.8c14.2-3.3,28.3-6.8,42-10.3c8.8-2.3,18-4.6,27-6.8c18.3-4.6,37.7-9.9,55.7-19.7
	c12.7-7,25.8-13.7,38.7-20c6.2-3,12.4-6.2,18.7-9.3c2.4-1.2,4.7-2.4,7.2-3.7c16.8-8.4,34.1-17,46.8-32.2c0.5-0.5,1.6-0.9,2.6-1.5
	c0.5-0.3,1.1-0.5,1.6-0.8c1.2,3.8,3,7.2,5,10.4c0.5,0.8,0.9,1.8,1.4,2.6c-0.3-0.1-0.5,0-0.8,0.1c-3.9,2.4-5.4,6.4-6.8,10
	c-0.8,2.2-1.6,4.2-2.8,6c-13.8,20-31.9,36.2-54,48c-34.3,18.7-72.2,30.7-108.7,42.3l-5.3,1.8c-6.2,1.9-12.4,3.9-18.7,5.8
	c-16.4,5.1-33.2,10.4-49.8,16.2c0,0.9,0,1.8,0,2.7c16.8-5.9,33.8-11.2,50.5-16.5c6.2-1.9,12.4-3.8,18.7-5.8l5.7-1.8
	c36.6-11.6,74.5-23.7,109.1-42.5c22.3-12,40.8-28.4,54.8-48.8c1.4-2,2.3-4.3,3.1-6.6c1.4-3.5,2.6-6.8,5.7-8.8
	c0.1-0.1,0.1-0.1,0.3-0.3c3.2,9.1,1.2,18.4-1.1,25.8c-3.9,12.3-12.2,23.4-25.8,34.5c-26,21.2-57.1,34.6-84.1,45.6
	c-17.3,7-35.3,13.4-52.6,19.5c-23.7,8.4-48,16.9-71.1,27.5c-4.3,1.9-8.4,4-12.5,6.1c0.1,1,0.2,2,0.3,3c4.4-2.3,8.8-4.5,13.4-6.6
	c23-10.4,47.3-19.1,70.9-27.3c17.4-6.1,35.4-12.4,52.7-19.5c27.3-11.1,58.6-24.5,84.9-46.1c14.1-11.5,22.6-22.9,26.6-35.8
	c2.2-7,4.2-15.7,2-24.3c5.3,2.8,7.6,6.8,8,13.3c1.5,26.4-9.9,48.3-35.7,69.1c-24.7,19.9-53.4,33.9-81.1,47.6
	c-7,3.4-14.3,6.9-21.4,10.5c-28.4,14.3-56,28.8-82.1,47.3c-12.3,8.7-26,19.1-38.6,31.4c0.1,1,0.1,1.9,0.1,2.9
	c12.8-12.7,26.9-23.4,39.5-32.4c26-18.4,53.6-32.7,81.8-47.1c7-3.5,14.2-7.2,21.2-10.5c27.9-13.7,56.7-27.7,81.5-47.9
	c26.6-21.4,38.3-44.1,36.8-71.3c0-0.8,0-1.5-0.1-2.2c0,0.1,0.1,0.1,0.1,0.1c8.4,3.2,10,6.6,10.8,14.5c0.3,3.1,0.8,6.2,1.2,9.3
	c0.7,4.2,1.4,8.5,1.5,12.8c0.7,23.3-8,42.2-26.5,57.9c-6.8,5.8-14.6,10.5-22,15.1c-5.3,3.2-10.7,6.6-15.8,10.3
	c-4.5,3.2-8.8,6.4-13.3,9.6c-15.7,11.4-31.9,23.3-48.3,34.2c-9.3,6.4-19.2,12.3-28.8,18c-5.4,3.2-11,6.5-16.4,9.9
	c-20.1,12.6-34.6,29.8-43.1,50.7c-1.1,2.6-1.5,4.5-1.5,6.6c-11.1-0.3-23,1.4-32.7,2.7c-7.8,1.1-16.1,2.1-24.8,2.9c0,0.9,0,1.8,0,2.7
	c8.9-0.8,17.2-1.8,25.2-2.9c10.3-1.4,21.9-3,32.3-2.8h7.6c8.7,0,17.6,0,26.1,1.6c4.5,0.9,8.7,0,12.6-0.9c2.7-0.5,5.3-1.2,8-1.2
	c12.4-0.1,25.2,1.2,37.3,2.4c4.6,0.4,9.2,0.9,13.9,1.4c6.5,0.5,13,1.6,19.3,2.6c10.5,1.6,21.2,3.2,32.3,3
	c11.9-0.3,24.3,2.7,36.2,5.7l8.9,2.2c25.2,6,51.1,12.2,76.1,20.4c33.7,11.2,59.2,20.8,83,31.2c5.4,2.4,10.8,4.7,16.2,7
	c21.9,9.5,44.6,19.2,66.1,30.4c10.4,5.3,21.1,10.3,31.4,15.1c13.1,6.2,26.8,12.6,39.8,19.7c8,4.5,16.2,8.2,24.3,12
	c5.4,2.4,10.8,5,16.2,7.7c31,15.4,62.7,29.5,95.3,43.8c16.4,7.3,33.1,14.3,49.4,21.1c11.6,4.9,23.8,9.9,35.6,15
	c1.4,0.5,2.7,0.7,3.9,0.8c2,0.3,3.4,0.4,4.5,1.9c0.9,1.2,1.8,2.3,2.8,3.1c-2,1.8-4.9,2.2-8.7,1.4c-5-1.2-10.3-2.7-15.3-4.1
	c-3.1-0.8-6.4-1.8-9.6-2.6c-34.9-9.3-69.4-21.1-102.6-35.3c-13.7-6-29.5-12.8-44.6-20.8c-7.2-3.8-14.5-7.4-21.6-11
	c-7-3.4-14.5-7-21.5-10.8c-12.4-6.8-25-13.8-37.2-20.6c-10.1-5.7-20.7-11.5-31.1-17.2c-12.4-6.8-25.3-13.4-37.7-19.9
	c-4.7-2.4-9.5-5-14.2-7.4c-21.9-11.4-44.8-22-68-31.4c-26.4-10.8-53.6-20.4-80.6-28.4c-23-6.9-50.3-14.7-78.4-20.7
	c-1.8-0.4-3.7-0.7-5.4-0.9c-5.4-0.9-11.1-1.9-15.8-4.7c-0.7-0.3-1.5-0.1-1.9,0.5c-0.3,0.7-0.1,1.5,0.5,1.9c5.3,3.1,11.1,4.1,16.8,5
	c1.8,0.3,3.5,0.5,5.3,0.9c28,6.1,55.2,13.8,78.2,20.7c26.9,8.1,54,17.6,80.3,28.4c23.1,9.3,46,19.9,67.8,31.4
	c4.7,2.4,9.5,5,14.2,7.4c12.4,6.5,25.3,13.1,37.7,19.9c10.4,5.7,21,11.5,31.1,17.2c12.2,6.8,24.7,13.8,37.2,20.6
	c7.2,3.8,14.5,7.4,21.6,11c7,3.4,14.5,7,21.5,10.8c15.3,8,31.2,15,44.9,20.8c33.3,14.1,68,26,102.9,35.3c3.2,0.8,6.5,1.8,9.6,2.6
	c5,1.5,10.3,2.8,15.4,4.1c1.5,0.3,2.8,0.4,4.1,0.4c3.1,0,5.7-0.9,7.6-2.8c3,1.8,6.2,2.6,9.5,3.4l0.5,0.1c1.5,0.4,3,0.7,4.6,1.1
	c5.1,1.2,10.4,2.4,14.5,5c1.2,0.8,2.4,1.5,3.7,2c-3,2-6.6,2.6-10.3,1.6c-9.1-2.3-18.5-3-27.6-3.7h-0.3c-19.7-1.5-36.1-3.4-52.3-7.3
	c-41.8-10.4-78.6-21.6-112.4-34.5c-35.4-13.3-67.5-28-97.8-44.9c-20.7-11.5-39.5-22.6-57.5-33.8c-28.8-18-63.2-38.9-100.2-57.5
	c-26.8-13.7-51.9-24.2-76.7-32.3c-13.8-4.5-28-8.4-41.8-12.2l-6.8-1.9c-24.6-6.8-51.7-12.8-82.8-18.7c-22-4.2-41.9-7.7-62.3-9.5
	c-2.3-0.3-3.9-0.8-5.3-2.3c-0.5-0.5-1.4-0.7-1.9-0.1c-0.5,0.4-0.7,1.4-0.1,1.9c2,2.3,4.6,2.8,7,3.1c20.3,1.8,40.2,5.3,62.1,9.5
	c31,5.8,58,11.9,82.5,18.7l6.8,1.9c13.8,3.8,28,7.7,41.7,12.2c24.6,8,49.6,18.5,76.4,32.1c36.9,18.5,71.3,39.5,99.9,57.5
	c18,11.2,36.8,22.3,57.5,33.8c30.4,17,62.5,31.8,98,45.2c33.8,12.7,70.7,24.1,112.6,34.5c16.4,3.9,33,5.8,52.9,7.3h0.3
	c9.1,0.7,18.4,1.4,27.2,3.7c1.4,0.4,2.7,0.5,4.1,0.5c3.1,0,6.1-0.8,8.5-2.6c0.4-0.3,0.5-0.7,0.5-1.1c2.6,1.1,5.1,2,7.6,2.8
	c0.8,0.4,1.8,0.7,2.6,0.9c3.7,1.4,7.6,2.6,11.2,3.7l2.6,0.8c7,2.2,13.9,5.4,20.6,8.5c0.9,0.4,2,0.9,3,1.4c-0.1,0-0.1,0.1-0.1,0.1
	c-1.4,1.9-3.4,1.8-6.4,1.4l-0.4-0.1c-7.3-0.9-15.1-2.3-24.9-4.2c-10.5-2.2-21.4-3.8-31.8-5.3c-5.4-0.7-11-1.6-16.4-2.4
	c-6.5-1.1-13.3-1.8-19.7-2.4c-5.1-0.5-10.3-1.1-15.4-1.8c-6.6-0.9-13.3-2-19.7-3.1c-7.7-1.2-15.7-2.4-23.5-3.5
	c-27.9-3.9-55-9.2-75.6-13.4c-38.1-7.8-77.6-21.8-120.6-42.2c-18.8-8.9-38.8-19.2-63-32.1c-21.6-11.5-40.3-22.2-57.1-32.9
	c-9.5-6-18.9-12.2-28.1-18.1c-15.7-10.1-31.8-20.7-48.3-30.4c-27.9-16.6-59-30.4-92.4-41c-33-10.4-67.9-18.4-107-24.2
	c-38.3-5.7-82.9-11.4-128.2-11.4c-3.4,0-6.9,0-10.4,0.1c0,1,0,1.9,0,2.9c48.6-0.9,97.2,5.1,138.3,11.2
	c38.8,5.8,73.7,13.8,106.4,24.2c33.1,10.5,64.1,24.2,91.8,40.7c16.4,9.7,32.6,20.3,48.1,30.4c9.3,6,18.8,12.2,28.3,18.1
	c16.8,10.5,35.6,21.4,57.3,32.9c24.2,12.8,44.2,23.1,63,32.1c43.3,20.6,82.9,34.5,121.2,42.5c20.6,4.2,47.9,9.5,75.9,13.4
	c7.8,0.9,15.8,2.3,23.5,3.5c6.5,1.1,13.1,2.2,19.7,3.1c5,0.7,10.3,1.2,15.4,1.8c6.5,0.7,13.1,1.4,19.6,2.4c5.4,0.9,11,1.8,16.4,2.6
	c10.4,1.5,21.1,3.1,31.6,5.1c9.7,1.9,17.7,3.2,25,4.2h0.4c2.8,0.5,6.5,1.1,9.1-2.4c0.1-0.3,0.3-0.4,0.3-0.7c6.5,3,13.1,5.8,20.1,7.4
	c16,3.7,31.5,9.1,46.7,14.2c12,4.2,24.5,8.5,37.1,11.9c6.9,1.9,13.8,4.1,20.4,6.2c5.1,1.6,10.3,3.4,15.6,4.9
	c19.6,5.8,40.3,11.4,61.4,16.6c4.5,1.1,8.9,2.3,13.4,3.4c13.1,3.2,26.8,6.8,40.2,9.9c2.3,0.5,4.7,0.9,7.2,1.2
	c3.7,0.5,7,0.9,10.3,2.2c5.4,2,11,2.8,16.4,3.7c4.3,0.7,8.7,1.4,12.8,2.6c2.7,0.8,5.5,1.1,8.2,1.2c4.9,0.3,9.6,0.7,13.4,4.1
	c-0.3,0.1-0.5,0.1-0.7,0.4c-1.8,2-3.9,2.3-7,2.2c-38.7-2.3-72.6-8-103.9-17.6c-9.9-3.1-19.9-6.4-29.6-9.5
	c-14.9-4.9-30.2-9.7-45.4-14.2c-23.9-6.8-48.5-13.8-73.2-19.1c-17.7-3.8-35.8-7.4-53.4-11.1c-18.3-3.7-36-6.5-50.8-8.9l-4.2-0.7
	c-9.6-1.5-19.6-3.1-29.5-3.9c-10.3-0.9-20.7-2.4-30.8-3.9c-4.6-0.7-9.2-1.4-13.8-2c-7.4-0.9-14.9-1.9-22.2-2.8
	c-14.9-1.9-30.3-3.9-45.4-6.1c-12.3-1.8-24.7-3.8-36.8-5.8c-5.1-0.8-10.3-1.8-15.4-2.6c-15.7-2.6-36.4-6.1-57.2-10.7
	c-45.2-9.9-86.3-22.2-125.6-37.5c-31.8-12.4-60.4-26.2-87.5-42.3c-23.5-13.8-46.7-29.2-69.1-44.2c-4.6-3-9.1-6-13.5-8.9
	c-27.9-18.5-52.1-32.7-76-44.6c-36.1-18-72.6-31-108.5-38.4c-15.6-3.2-33.1-7-50.7-8.5c-5.1-0.4-10.4-1.1-15.6-1.8
	c-7.7-1.1-15.7-2.2-23.7-2.3c-2-0.1-3.9-0.4-6.1-0.7c-2.6-0.4-5.3-0.8-8.1-0.7c-3.4,0.1-6.8,0.3-9.5,3c-0.5,0-0.9,0-1.3,0
	c0,0.8,0,1.6,0,2.5c0.4,0,0.7,0,1.1,0c0.1,0,0.1,0,0.3,0c3.8,3.2,8.4,3.2,12.4,3.4c1.6,0,3.2,0,4.7,0.3
	c34.6,4.9,64.9,12.2,92.9,22.2c24.9,8.9,50.2,22.7,79.7,43.4c13.7,9.5,27.2,19.5,40.3,29.1c24.1,17.7,49,36,74.8,52.1
	c27.3,17.2,56,32.3,85.2,45.2c30.3,13.4,64.4,24.1,107.2,33.7c37.7,8.5,75.9,14.1,108.3,18.3c21.6,2.8,44.8,5.5,75.1,8.8l14.9,1.6
	c24.6,2.6,50,5.4,75.1,8.5c31.5,4.1,55.7,7.6,78.4,11.5c22.9,3.9,45.8,8.9,68.2,13.8c6.2,1.4,12.3,2.7,18.5,4.1
	c36.4,8,71.9,18.1,105.9,30.2c19.7,7,43.4,15,68.4,21c23.7,5.7,49.5,8.9,78.7,10c9.1,0.4,18.3,0.9,27.2,1.4
	c4.7,0.1,9.3,0.4,14.1,0.7c3.1,0.1,5,0.9,6.4,2.7c-1.6,0.8-3.2,1.6-4.9,2.7c-5.8,3-11.8,6-18,8.2c-1.5,0.5-3.1,1.1-4.7,1.6
	c-6.4,2-12.8,4.2-17.7,9.6c-0.1,0-0.1,0.1-0.1,0.1c-0.1,0.1-0.1,0.1-0.4,0.1c-4.9,0.4-9.2,2.2-13.3,4.3c0.1-0.4,0-0.8-0.3-1.2
	c-3-3.4-7.2-3.2-10.4-3c-0.7,0.1-1.5,0.1-2.2,0.1c-18.5,0.3-37.2-1.5-55.2-3.2l-3.5-0.4c-8.4-0.9-17-1.9-25.3-3
	c-6.1-0.7-12.4-1.5-18.7-2.2c-7.3-0.8-14.6-1.9-21.8-2.8c-4.5-0.5-8.9-1.2-13.4-1.8c-10.4-1.4-21.1-3.4-31.2-5.3
	c-7-1.4-14.3-2.7-21.5-3.9c-13.8-2.2-27.6-5.1-41-8.1c-3.2-0.8-6.5-1.5-9.7-2.2c-8.4-1.9-16.9-4.1-25.2-6.1
	c-9.2-2.4-18.8-4.7-28.3-6.8c-5.7-1.2-11.2-2.4-16.8-3.7c-18.3-4.1-37.1-8.2-55.7-11.6c-21.9-3.9-41.7-6.9-60.4-9.1
	c-20.6-2.4-42.7-4.2-69.8-5.8c-28-1.6-55-2-77.8-2.3c-19.9-0.3-40.2,0.5-59.8,1.2c-6.6,0.3-13.4,0.4-20,0.7
	c-11.5,0.4-23,0.9-34.1,1.4c-5.7,0.3-11.5,0.4-17.3,0.7l-48.7,2c-16,0.8-32.2,0.5-47.9,0.3l-5.4-0.1c-30.3-0.4-60.7-3.4-90.3-8.9
	c-34.2-6.5-64.9-17-93.7-32.2c-37.2-19.6-70.6-48.4-105.5-90.6c-12.2-14.6-22.4-31.1-32.5-46.9c-3.9-6.2-8-12.7-12.2-19.1
	c-7.5-11.3-15.5-22.8-24.4-33.9c0.1,1.4,0.1,2.8,0.1,4.3c7.9,10.1,15.2,20.6,21.9,30.9c4.2,6.4,8.2,12.8,12.2,19.1
	c10,16,20.4,32.5,32.7,47.2c35,42.5,68.8,71.4,106.3,91.1c29.1,15.3,60,26,94.5,32.5c29.9,5.5,60.4,8.5,90.9,8.9l5.4,0.1
	c15.8,0.1,32.1,0.4,48.1-0.3l48.7-2c5.7-0.1,11.5-0.4,17.3-0.7c11.1-0.5,22.6-0.9,33.9-1.4c6.6-0.1,13.4-0.4,20-0.7
	c19.5-0.7,39.8-1.5,59.6-1.2c22.9,0.3,49.8,0.7,77.8,2.3c26.9,1.6,49.1,3.4,69.5,5.8c18.7,2.2,38.4,5.1,60.2,9.1
	c18.7,3.2,37.5,7.4,55.6,11.5c5.5,1.2,11.2,2.4,16.8,3.7c9.3,1.9,18.9,4.3,28.1,6.6c8.4,2.2,16.9,4.2,25.3,6.1
	c3.2,0.8,6.5,1.5,9.7,2.2c13.4,2.8,27.3,6,41.1,8.1c7.2,1.2,14.3,2.6,21.4,3.9c10.3,1.9,20.8,3.9,31.4,5.3c4.5,0.5,8.9,1.1,13.4,1.8
	c7.2,0.9,14.5,2,21.8,2.8c6.2,0.7,12.6,1.4,18.7,2.2c8.2,1.1,16.9,2.2,25.3,3l3.5,0.4c18.1,1.8,36.8,3.7,55.4,3.4
	c0.7,0,1.5-0.1,2.3-0.1c3.1-0.3,6.1-0.4,8.1,2c0.1,0.3,0.3,0.3,0.5,0.4c-0.7,0.3-1.4,0.7-2,1.1c-4.9,2.6-9.5,5.1-14.9,6
	c-0.7,0.1-1.5,0.4-2.2,0.7c0.5-0.5,0.5-1.4,0.1-1.9c-2.8-3.1-6.5-3.1-9.7-3.1h-0.8c-7.7,0.1-15.6,0.3-23.3,0.3
	c-7.7,0-15.6,0.1-23.4,0.3l-4.1,0.1c-19.9,0.3-40.4,0.7-60.7-0.7c-4.9-0.4-9.7-0.5-14.5-0.8c-11.5-0.5-23.3-1.1-34.8-2.8
	c-6.5-0.9-13-1.8-19.3-2.4c-9.5-1.1-19.2-2.2-28.7-3.9c-20.7-3.7-38.1-6.9-55.4-10.8c-24.9-5.7-49.8-13.4-73.7-21
	c-11.6-3.7-23.8-7.4-35.7-11c-31.1-9.1-64.1-13.9-97.8-14.3c-5.5-0.1-11.2,0.4-16.6,0.8c-4.6,0.4-9.2,0.8-13.8,0.8
	c-12.7,0.1-25.2,1.4-37.3,2.6c-8.4,0.8-16.8,1.8-24.9,2.8c-6.5,0.8-13.1,1.8-19.7,2.4c-7.4,0.8-15.1,1.4-22.4,2
	c-7.4,0.7-15.3,1.4-22.9,2.2l-3.8,0.4c-17.4,2-35.6,4.1-53.6,4.5h-1.8c-3.1,0-6.6,0-9.3,3c-0.4,0.5-0.4,1.4,0.1,1.9
	c0.5,0.4,1.4,0.4,1.9-0.1c1.9-2.2,4.6-2.2,7.3-2.2h1.9c18.1-0.4,36.2-2.4,53.8-4.5l3.8-0.4c7.4-0.8,15.3-1.5,22.7-2.2
	c7.4-0.5,15-1.2,22.6-2c6.6-0.8,13.4-1.6,19.9-2.4c8.1-0.9,16.5-2,24.7-2.8c12-1.2,24.5-2.4,37.1-2.6c4.6,0,9.3-0.4,13.9-0.8
	c5.4-0.4,11-0.9,16.5-0.8c33.4,0.4,66.1,5.3,97,14.3c12,3.5,24.1,7.3,35.7,11c24.1,7.6,49,15.3,74,21c17.3,3.9,34.8,7.2,55.4,10.8
	c9.6,1.6,19.3,2.8,28.8,3.9c6.4,0.8,12.8,1.5,19.2,2.4c11.5,1.8,23.5,2.3,35,2.8c4.7,0.3,9.7,0.5,14.5,0.8c20.3,1.5,41,1.1,61,0.7
	l4.1-0.1c7.7-0.1,15.6-0.3,23.3-0.3c7.6,0,15.6-0.1,23.3-0.3h0.8c3.1,0,5.7,0,7.7,2.3c0.3,0.3,0.7,0.4,1.1,0.4c0.1,0,0.1,0,0.1,0
	c-1.4,0.7-2.7,1.6-4.1,2.6c-1.5,1.1-3.1,2.2-4.7,2.8c-5.7,2.3-11.2,4.2-16.6,5.3c-3,0.7-5.7,1.8-8.4,3.1c0-0.4,0-0.8-0.3-1.1
	c-3.1-3.9-7.4-3.1-10.5-2.6l-0.8,0.1c-12.4,2.2-25,2.4-35.6,2.4h-13.5c-35.4,0.1-72.1,0.4-108.1-1.2c-31.4-1.2-57.3-3.5-81.7-7.2
	c-21-3-42.1-9.1-68.7-19.7c-7.4-3-14.9-6.1-22.2-9.2c-17-7.2-34.8-14.7-52.9-20.4c-19.5-6.2-41.2-9.1-64.6-8.7
	c-20,0.4-38.8,1.4-57.6,3c-21.6,1.9-39.5,3.7-56.1,5.4c-3.5,0.4-7,0.7-10.5,1.1c-11.6,1.2-23.7,2.4-35.4,3.9
	c-0.7,0.1-1.6,0.1-2.4,0.1c-2.8,0-6,0.1-8.5,2.8c-0.1,0.1-0.3,0.3-0.3,0.4c-0.4,0-0.8,0-1.2,0.3c-0.5,0.4-0.7,1.1-0.7,1.6
	c-0.9-0.3-1.9-0.7-2.8-0.9c-4.6-1.5-9.5-3.1-14.3-4.3c-3.8-0.9-7.6-2.2-11.2-3.4c-6.6-2.3-13.5-4.5-20.8-5.4c-8-0.9-16.4-1.9-24.5-2
	c-4.5,0-9.1-0.5-13.5-0.9c-9.9-1.1-20-2-30.2,0.8c-0.8,0.3-2,0.1-2.8,0c-10.8-1.4-22-1.4-32.7-1.4h-4.6c-2.6,0-6.1,0-8.1,3
	c-0.3-0.1-0.4-0.3-0.7-0.3c-2.6-0.3-5-0.4-7.6-0.7c-6.1-0.5-12.2-1.1-18.3-1.2c-1.2,0-2.4,0-3.8-0.1c-6.4-0.4-13-0.8-18.8,4.5
	c-0.4,0.3-1.5,0.1-2.4,0c-0.7,0-1.2-0.1-1.9-0.1c-2.2,0-4.5-0.4-6.6-0.7c-4.7-0.5-9.6-1.2-14.1,0.8c-6,2.7-11.8,2.2-17.9,1.5
	c-2.2-0.3-4.3-0.4-6.6-0.5c-0.8,0-1.6-0.1-2.4-0.1c-2.7-0.1-5.5-0.4-8.1,0.4c-6.1,1.9-12,1.2-18.3,0.5c-3-0.3-6.1-0.7-9.1-0.7
	c-3.7-0.1-7.4-0.5-11.1-1.1c-5-0.7-10.1-1.4-15.4-0.9c-0.4,0.1-0.8,0-1.4,0c-1.4-0.1-3.1-0.3-4.2,0.9c-0.1,0.1-0.1,0.3-0.3,0.4
	c-29.2-5.8-52.9-12.2-74.2-20.1c-1.2-0.5-2.3-1.2-3.5-2c-0.9-0.7-2-1.4-3.1-1.9c-3.5-1.6-8.2-3.2-13.3-1.4c-0.1,0-0.1,0-0.1,0
	c-1.4-1.6-2.7-3-4.1-4.1c-19.1-15.1-33.5-31-47.1-51.1c-0.4-0.5-0.9-0.9-1.4-1.2c-0.3-0.3-0.7-0.4-0.7-0.5c-2-4.9-4.6-9.3-7-13.8
	c-1.1-1.9-2.2-3.9-3.2-5.9c0.1,2.1,0.1,4.1,0,6.2c2.4,4.3,5,8.8,7,13.5c0.3,0.7,0.9,1.1,1.4,1.5c0.3,0.3,0.5,0.5,0.7,0.7
	c13.7,20.4,28.3,36.4,47.6,51.7c2,1.8,4.1,3.7,5.3,6.8c1.9,4.5,4.5,7.3,7.8,8.8v0.1c-0.3,4.6,3,7,5.5,8.9c0.4,0.4,0.8,0.7,1.2,0.9
	c5,4.3,9.9,8.5,14.9,12.7c18.5,15.8,37.7,32.2,55.2,49.8c28.7,28.8,44.9,54.6,52.5,83.7c2.1,8.2,4.1,16.2,4.1,24.6
	c0.9,0,1.8,0.1,2.7,0.2c-0.1-8.7-2-16.9-4.1-25.3c-7.7-29.6-24.2-55.9-53.3-85.1c-17.4-17.6-36.8-34.1-55.3-49.9
	c-5-4.2-9.9-8.4-14.9-12.7c-0.4-0.3-0.8-0.7-1.2-0.9c-2.3-1.8-4.5-3.4-4.5-6.1c0.5,0.1,1.2,0.3,1.9,0.3c3.5,0.3,6.4,2.4,9.5,4.6
	c1.4,0.9,2.7,1.9,4.1,2.7c22.7,13.5,47.5,23.8,71.3,33.8c34.1,14.5,69.6,31.6,98.3,59.1c25.3,24.2,42.1,49.9,51,78.6
	c0,0.3,0.1,0.7,0.1,1.1c0.4,0,0.8,0,1.3,0c0.5,0,1,0,1.4,0c0,0,0,0,0-0.1c0-0.5-0.1-1.2-0.3-1.8c-9.2-29.1-26.1-55.2-51.8-79.7
	c-28.9-27.7-64.8-45-99.1-59.6c-23.8-9.9-48.3-20.1-71-33.5c-1.2-0.7-2.4-1.6-3.8-2.6c-3.2-2.3-6.5-4.7-10.8-5
	c-4.7-0.4-7.8-3-10-8.2c-0.3-0.5-0.4-0.9-0.7-1.5c3.9-1.2,7.6,0,10.7,1.5c0.9,0.5,1.9,1.1,2.8,1.8c1.2,0.8,2.6,1.8,4.1,2.3
	c21.5,8,45.2,14.3,74.5,20.1c0,0.4,0.1,0.7,0.1,1.1c0,0.5,0.5,0.9,1.1,1.1c0.1,0,0.1,0.1,0.1,0.1c3.7,5.1,9.3,6,14.2,6.8
	c1.6,0.3,3.2,0.5,4.7,0.9c38.4,10.3,79.4,22.3,117.9,40.8c29.5,14.1,52.6,30.3,70.6,49.6c17.4,18.8,28.9,40.2,34.2,63.6
	c0.1,0.8,0.3,1.5,0.4,2.2c0.1,0,0.2,0,0.3,0c0.9,0,1.8,0,2.6,0.1c-0.2-0.9-0.4-1.8-0.6-2.9c-5.3-23.9-17-45.8-34.8-64.9
	c-18.3-19.5-41.5-36-71.4-50.2c-38.8-18.7-79.8-30.8-118.5-41.1c-1.6-0.4-3.4-0.7-5-0.9c-4.7-0.8-9.3-1.5-12.4-5.7
	c-0.1-0.3-0.4-0.4-0.7-0.5c-0.1-1.1,0.1-1.4,0.1-1.4c0.3-0.3,1.4-0.1,2-0.1h1.8c5-0.4,10,0.3,14.9,0.9c3.7,0.5,7.6,1.1,11.4,1.1
	c3,0,6,0.4,8.8,0.7c3.2,0.3,6.5,0.7,9.7,0.7c3.1,0,6.4-0.3,9.6-1.4c2-0.7,4.6-0.4,7-0.3c0.8,0,1.8,0.1,2.6,0.1
	c2.2,0.1,4.3,0.3,6.5,0.5c3.9,0.4,7.8,0.8,11.8,0.4c0,0.1,0,0.4,0.1,0.5c1.5,2.2,3.1,4.7,7,5.4c21,3.4,41.8,8.5,62.1,13.4
	c8.1,2,16.6,4.1,25,6c21.4,5,44,10.7,65.3,18.5c35.8,13.3,61,30.4,79.4,54.2c9.7,12.6,21.2,27.6,33.1,41.9
	c7.8,9.5,17.2,16.9,27.9,24.2c1.5-0.1,3-0.2,4.5-0.2c-11.7-7.9-22-15.7-30.4-25.8c-11.9-14.3-23.4-29.2-33.1-41.9
	c-18.7-24.2-44.2-41.7-80.5-55c-21.5-7.8-44.2-13.5-65.6-18.5c-8.4-1.9-16.8-3.9-25-6c-20.3-4.9-41.2-10-62.2-13.4
	c-2.4-0.4-3.5-1.8-4.9-3.8c1.5-0.4,3.1-0.9,4.7-1.6c3.8-1.8,8.1-1.2,12.6-0.5c2.3,0.4,4.7,0.7,7,0.7c0.4,0,0.9,0,1.5,0.1
	c1.6,0.1,3.5,0.4,4.7-0.8c0.1-0.1,0.1-0.1,0.1-0.1c3.2,6.8,9.6,7.3,14.9,7.8c0.9,0,1.9,0.1,2.8,0.3c5,0.8,10,1.8,14.9,2.8
	c4.9,1.1,10,2.2,15,3c2.7,0.4,5.3,0.8,8,1.2c11,1.8,22.3,3.5,33.3,5.5c33.8,6.4,61.8,13.1,88.3,25.4c21.2,10,41.4,23.1,59.9,39.1
	c20.3,17.6,38.7,37.7,56.4,57.2c6.2,7,12.8,14.2,19.3,21.1c0.7,0.7,1.4,1.6,2,2.6c0.5,0.6,1,1.3,1.5,1.9c1.1-0.1,2.2-0.2,3.2-0.3
	c0.1,0,0.2,0,0.3,0c-1-0.9-1.8-2-2.7-3.2c-0.8-0.9-1.5-2-2.3-2.8c-6.5-6.9-13-14.1-19.3-21c-17.9-19.5-36.2-39.8-56.7-57.3
	c-18.8-16.1-39.1-29.3-60.4-39.4c-26.8-12.6-54.9-19.3-88.8-25.7c-11-2.2-22.3-3.8-33.3-5.5c-2.7-0.4-5.3-0.8-8-1.2
	c-5-0.8-10-1.8-14.9-2.8c-4.9-1.1-10-2.2-15-3c-0.9-0.1-1.9-0.1-3-0.3c-5.1-0.5-10.3-0.9-12.8-6.6c-0.1,0-0.1-0.1-0.1-0.1
	c4.3-2.6,9.3-2.3,14.5-2c1.4,0,2.6,0.1,3.9,0.1c6,0.1,12,0.7,18,1.2c2.4,0.3,5,0.5,7.4,0.7c0,0.7,0.4,1.2,0.9,1.4
	c0.8,0.1,1.5-0.3,1.8-0.9c0.8-2.8,3-3.1,6.5-3.1h4.7c10.7,0,21.6,0,32.3,1.4c1.4,0.3,2.6,0.3,3.9,0c0.1,0,0.1,0,0.3,0
	c0,0.3,0,0.5,0.1,0.8c1.8,3.1,4.2,4.7,8.4,5.5l0.5,0.1c31.6,5.5,64.4,11.4,95.3,21.4c14.6,4.9,28.8,11.9,42.3,21
	c2.8,1.9,5.4,2.8,8,2.8c2,0,3.8-0.5,5.8-1.6c0.3,0,0.4-0.3,0.5-0.4c2.8,2.4,5.4,4.9,7.3,7.4c1.9,2.6,4.1,5.3,6.1,7.8
	c3.7,4.6,7.4,9.5,10.7,14.5c1.9,3.1,4.2,6,6.5,8.8c1.6,2,3.4,4.2,4.9,6.4l0.7,0.9c1.6,2.2,3.1,4.2,3.4,7.2c0,0.4,0.1,0.9,0.3,1.4
	c-3.5,0.1-6.2-1.2-9.1-4.3c-18.3-20-38.9-36.5-61.3-49c-29.1-16.2-60.6-24.2-84.9-29.3c-26.8-5.7-49.1-10.1-70.3-13.9
	c-2-0.4-4.1-0.7-6.1-0.8c-5.4-0.5-10.7-1.1-14.9-4.7c-0.5-0.5-1.4-0.4-1.9,0.1s-0.4,1.4,0.1,1.9c4.9,4.3,10.8,4.9,16.5,5.4
	c2,0.3,3.9,0.4,5.8,0.8c21.2,3.8,43.5,8.2,70.3,13.9c24.1,5.1,55.4,13,84.1,29.1c22.2,12.3,42.6,28.5,60.6,48.4
	c3.2,3.5,6.6,5.1,10.5,5.1c0.5,0,1.1-0.1,1.6-0.1c1.1,1.8,2.4,3.2,3.8,4.6l0.3,0.3c20.4,22.8,43.4,42.6,68.2,58.8
	c0.6,0,1.2-0.1,1.8-0.1c1.3,0,2.6,0.1,3.9,0.3c0.1,0,0.1,0,0.2,0c-1.3-0.6-2.7-1.4-4.2-2.3c-24.6-16-47.5-35.7-67.8-58.3l-0.3-0.4
	c-2.2-2.2-4.2-4.5-4.5-6.9c-0.3-3.8-2.2-6.4-3.9-8.7l-0.7-0.8c-1.6-2.3-3.4-4.5-5-6.5c-2.2-2.7-4.5-5.5-6.4-8.5
	c-3.4-5.1-7.3-10-11-14.7c-1.6-2-3.2-4.1-4.9-6.2c4.2-0.5,7.4,1.4,11.1,4.3c8.2,6.9,16.2,14.2,23.9,21.4
	c12.7,11.6,25.7,23.7,40.2,33.8c21.8,15.1,43.7,25.6,66.8,31.6c21,5.5,42.6,8.4,64.4,8.4c5.5,0,11-0.1,16.5-0.5
	c13.7-0.9,25.7-2,36.6-3.5c1.2-0.1,2.4-0.4,3.8-0.5c5.4-0.8,11.1-1.8,16.8-1.2c0.5,0.1,0.9,0.1,1.5,0.1c1.8,0,2.7,0.1,3.5,1.2
	c-7,5-15.3,6.8-23.8,8.5c-5.1,1.1-10.5,2.2-15.7,4.2c-1.8,0.7-3.7,1.1-5.5,1.5c-3.4,0.8-7,1.6-10.1,3.9c1.6,0.2,3.2,0.3,4.8,0.5
	c1.8-0.7,3.8-1.2,5.8-1.7c2-0.4,4.1-0.9,6-1.6c4.9-1.9,10.1-3,15.3-4.1c9.1-1.9,18.3-3.8,26.1-10h0.5c0.5,0.1,1.1,0.3,1.6,0.1
	c12.6-1.1,24.6-4.6,36.2-8l0.5-0.1c3.5-0.9,6.9-2.4,10.1-3.9c3.2-1.4,6.5-2.8,9.6-3.7c8.4-2.4,17.2-4.6,25.6-6.8
	c11.4-2.8,23.1-5.8,34.5-9.2c3.4-1.1,6.8-2,10.1-3.1c19.7-6,40.3-12,60.7-17c3.8-0.9,7.3-2.7,10.7-4.3c4.6-2.3,8.9-4.5,14.1-4.9
	c2.4-0.1,5-0.9,7.6-1.6c1.5-0.4,2.8-0.8,4.2-1.1c7.2-1.4,13.8-4.3,20.1-7.2c7-3.2,13.7-6.2,21.1-7.3c6.1-0.9,11.4-3.9,16.5-6.8
	c4.7-2.7,9.1-5.1,14.1-6.2c5.5-1.1,11.4-3,17.2-5.4c1.9-0.8,3.7-1.9,5.3-3.1c2.2-1.4,4.1-2.8,6.1-3.1c5.8-0.9,10.8-3.7,15.7-6.4
	c5.1-2.8,10.1-5.5,15.8-6.1c0.9,0,1.9-0.5,2.4-1.2c4.3-4.9,10.5-6.9,16.5-8.8c1.6-0.5,3.2-1.1,4.9-1.6c6.4-2.4,12.4-5.4,18.3-8.4
	c6.2-3.1,12.7-6.4,19.3-8.7c3.8-1.4,7.2-4.6,8.9-8.7c0.1-0.1,0.1-0.4,0.1-0.5c1.2,0.3,2.4,0.4,3.5,0.4c4.2,0,8.1-1.6,11.9-3.2
	c8.9-3.9,17.7-8.4,26.2-12.6c4.6-2.3,9.3-4.6,13.9-6.9c1.9-0.9,3.7-2,5.4-3c4.3-2.6,8.5-4.9,13.1-5.5c1.2-0.3,2.6-0.5,3.8-0.8
	c0.3,3.1-1.8,4.7-4.9,6.8c-3.8,2.3-7.4,4.7-11.2,7.2c-8.1,5.3-16.6,10.8-25.2,15.7c-4.1,2.3-8.1,4.7-12.2,7
	c-14.5,8.4-29.3,17-44.4,25c-24.9,13.1-47.5,24.1-69,33.7c-4.9,2.2-9.6,4.3-14.5,6.5c-21,9.3-42.5,18.9-64,28
	c-34.8,14.6-66.4,27.3-96.7,39.2l-6.2,2.4c-18.8,7.3-38.3,14.9-57.7,21.5c-3,0.9-6.1,1.9-9.1,2.8c-6,1.8-12.2,3.7-18.2,6.3
	c1.3,0.1,2.6,0.1,3.9,0.2c0,0,0,0,0,0c1.6-0.2,3.2-0.4,4.8-0.6c3.5-1.2,7-2.3,10.4-3.3c3-0.8,6.2-1.8,9.2-2.8
	c19.5-6.6,38.9-14.2,57.9-21.5l6.2-2.4c30.3-11.9,61.9-24.6,96.7-39.2c21.5-9.1,43.1-18.7,64-28c4.9-2.2,9.6-4.3,14.5-6.5
	c21.6-9.6,44.2-20.6,69.2-33.7c15-8,30-16.6,44.5-25c4.1-2.3,8.1-4.7,12.2-7c8.5-5,17-10.5,25.3-15.8c3.7-2.3,7.4-4.7,11.2-7.2
	c3-1.9,6.9-4.5,6.1-9.9c4.6-1.5,8.8-3.9,12.8-6.4c2.4-1.4,4.9-2.8,7.3-4.1c5.1-2.6,10.3-5.5,15.1-8.5c6.7-4,13.6-8.1,21.1-10.9
	c-0.1-0.9-0.1-1.8-0.2-2.7c-1.1,0.4-2.2,0.8-3.3,1.3c0-0.1,0-0.1,0-0.1c-2-1.8-3.8-3.1-6-4.3c-11-6.4-22.9-11.1-34.2-15.7
	c-6.6-2.7-13.5-5.5-20.1-8.5c-31.2-14.2-53.8-30.4-71-51.1c-0.8-0.9-1.6-1.9-2.4-2.8c-6.5-7.6-12.7-14.9-9.9-25.7
	c14.3,10.5,28.9,19.9,43.7,28c3.2,1.8,6.6,3.7,9.9,5.4c13.7,7.4,27.7,15.1,42.1,22c4.7,2.3,9.6,5,14.2,7.6c4.2,2.4,8.5,4.9,12.8,7
	c9.4,4.6,17.3,9,24.5,13.3c0-1,0.1-2,0.2-3c-4.2-2.5-8.7-5-13.5-7.6c1.8-3.7,0.8-7.4,0-10.5l-0.1-0.4c-2.6-11-1.6-22.3,3-33.7
	c2.8-7,6.5-13.7,11.3-20.5c0-1.5,0-2.9,0-4.4c-6,7.9-10.6,15.7-13.8,23.9c-4.7,11.8-5.7,23.7-3,35.3l0.1,0.4c0.7,3,1.5,6,0.1,8.7
	c-2.4-1.2-5-2.6-7.7-3.9c-4.3-2.2-8.7-4.6-12.8-6.9c-4.1-2.3-8.4-4.7-12.7-6.9c1.6-4.2,1.6-8.5,1.6-12.4c0-2.4-0.1-5,0.3-7.4
	c3.2-22.9,17.9-39.4,30.3-51.1c5.6-5.4,11.5-10.5,17.5-15.3c0-1.3,0-2.6,0-3.8c-6.8,5.4-13.3,11-19.6,17
	c-12.7,12.2-27.7,29.1-31.1,52.7c-0.4,2.6-0.3,5.3-0.3,7.8c0.1,3.9,0.1,7.7-1.2,11.4c-7.4-3.5-14.7-7.3-22-11.2
	c1.5-2.7,1.5-5.5,1.1-7.8v-1.5c0-11.8,2.7-23.1,8.1-34.6c9.1-19.2,24.6-34.6,48.8-48.7c5.2-3,10.6-5.9,15.9-8.7
	c0-1.1-0.1-2.2-0.1-3.4c-5.7,3-11.3,6.1-16.9,9.4c-24.6,14.2-40.6,30-49.9,49.8c-5.7,11.8-8.4,23.5-8.4,35.7v1.6
	c0.1,2.4,0.1,4.9-0.9,6.9c-5.7-3-11.2-6.1-16.8-9.1c-0.5-0.3-1.2-0.7-1.8-0.9c0.1-0.1,0.4-0.1,0.5-0.5c2.7-3.4,2.6-7.3,2.4-10.7v-3
	c0.7-12,3.8-22.7,9.9-32.5c12.7-20.8,32.5-32.9,55-45.3c6.6-3.7,13.4-7.2,20-10.5c2.1-1.1,4.3-2.2,6.4-3.3c0-1-0.1-2-0.1-3
	c-2.6,1.4-5.2,2.7-7.8,4.1c-6.6,3.5-13.4,7-20,10.7c-23,12.6-43,24.9-56.1,46.1c-6.2,10.1-9.6,21.2-10.1,33.8c-0.1,1.1,0,2.2,0,3.2
	c0.1,3.1,0.3,6.2-1.8,8.8c-0.3,0.4-0.3,0.7-0.3,1.1c-2-1.1-4.2-2.3-6.2-3.4c-5.8-3.2-11.6-6.6-17.3-10.1c1.2-2.3,2.3-4.9,2.3-8.1
	c-1.1-21.6,7.7-38.9,27.7-54.5c18.5-14.3,38.9-23.7,61.9-33.7l1.4-0.7c9.1-4,18.4-8.1,27.4-12.7c0-1-0.1-2-0.1-3
	c-9.4,4.9-19.2,9.2-28.7,13.4l-1.4,0.7c-23.1,10-43.8,19.5-62.5,33.9c-20.6,16-29.9,34.5-28.8,56.7c0.1,2.3-0.7,4.3-1.8,6.5
	c-8.1-5.1-16.2-10.7-24.2-16.6c0,0-0.1-0.1-0.3-0.1c1.2-3.2,1.8-6.8,2.2-10.1c0.5-3.8,1.1-7.7,2.7-11.2
	c7.4-16.8,22.7-25.3,36.6-31.4c26.4-11.5,51.9-25.6,76.5-39.1l3.2-1.8c8.6-4.7,17.3-9.4,26-14.1c0-1,0-2,0-2.9
	c-9.1,4.8-18.2,9.8-27.1,14.7l-3.2,1.8c-24.6,13.5-50.2,27.6-76.4,39.1c-13.5,6-30.2,15-38,32.7c-1.8,3.8-2.3,8-2.8,11.9
	c-0.4,3-0.8,5.8-1.6,8.4c-18.1-12.7-30.6-25.4-39.4-40.3c2.3-0.7,4.5-2.4,5.7-4.6c3.5-6,9.2-9.5,15.1-13.1
	c21.9-13.5,46-22.3,70.7-30.8c4.9-1.8,9.7-3.4,14.6-5c24.2-8.1,49.2-16.5,71.5-30.3c3.7-2.3,7.3-4.6,10.9-6.9c0-1,0-2,0-3
	c-4.1,2.6-8.2,5.2-12.3,7.8c-22.2,13.7-46.9,21.9-71,30c-4.9,1.6-9.7,3.4-14.6,5c-25,8.5-49.2,17.3-71.3,31.1
	c-6,3.8-12.2,7.6-16,14.1c-1.1,1.6-2.7,3-4.5,3.4c-0.1,0-0.1,0.1-0.3,0.1c-1.8-3.5-2.7-7.2-3.5-11c-0.7-2.2-1.2-4.5-2-6.6
	c-0.5-1.4-0.1-3.1,0.9-4.9c0.3-0.4,0.5-0.8,0.5-1.4c3,0,5.1-1.6,6.9-3.1c5-4.5,11.1-8.1,18.5-11.4c14.9-6.2,30.7-9.5,46.1-12.7
	c5-1.1,10.3-2,15.3-3.2c19.9-4.5,37.1-10.3,52.3-17.9c17-8.4,34.7-18.9,54.9-32.5c0-1.1,0-2.3,0-3.4c-21,14.3-38.9,24.9-56.6,33.6
	c-15.1,7.4-32.1,13.1-51.8,17.6c-5,1.1-10.1,2.2-15.1,3.2c-15.4,3.1-31.5,6.5-46.5,12.8c-7.7,3.4-14.1,7.3-19.3,11.9
	c-1.8,1.6-3.4,2.6-5.5,2.6c-0.3-0.4-0.5-0.8-0.9-1.2c0.7-5.8,3.4-10.7,6.2-15.8c1.1-1.9,2.2-3.9,3.1-6v-0.1
	c4.1,1.6,7.8,1.1,11.2,0.3c8.7-2.2,17.4-3.8,26.2-4.9c27.9-3.2,48.3-9.3,66.1-19.6c10.8-6.4,22-12.4,32.9-18.3
	c8.7-4.7,17.6-9.6,26.4-14.5c0.8-0.4,1.9-0.9,2.8-1.4c4.2-1.9,9.3-4.3,9.5-11.2v-0.4c2.8-0.4,5.8-0.8,8.7-1.6
	c0.9-0.2,1.9-0.4,2.8-0.5c0,0,0,0,0-0.1c0-0.9,0.1-1.9,0.1-2.8c-1.2,0.2-2.3,0.4-3.5,0.7c-5.8,1.6-11.9,2-17.7,2.4
	c-6.5,0.4-13.3,0.9-19.6,2.8c-5.5,1.6-11.4,2.4-17,3.2c-5.4,0.8-11.2,1.6-16.8,3.2c-3.8,1.1-7.6,2-11.4,3.1
	c-13.5,3.8-27.6,7.6-40.8,13.3c-1.5,0.7-3.1,1.5-4.6,2.2c-3.8,1.8-7.4,3.7-11.6,4.1c-0.1-2.8,0.9-4.7,3.4-6c1.9-0.9,3.8-2,5.7-3.1
	c2-1.2,4.2-2.4,6.4-3.5c31-15.3,64.5-22,96.3-27.6c9.6-1.7,19.8-3.6,30.2-5.7c0-0.9,0-1.8,0.1-2.6c-10.4,2.1-20.5,4-30.2,5.6
	c-32.1,5.5-65.9,12.3-97.1,27.9c-2.3,1.1-4.5,2.3-6.6,3.5c-2,1.1-3.8,2.2-5.7,3.1c-3.5,1.8-5.1,4.6-4.9,8.5
	c-3.5,0.3-6.4,3.5-8.9,6.4c-0.3,0.4-0.7,0.8-0.9,1.1c-4.1,4.2-7.6,6.9-11.6,8.8c-9.2,4.3-16.6,11-21.6,19.1c-3.5-1.2-7-0.3-10.1,2.8
	c-10.3,10.3-20.1,22-29.1,34.8c-25.4,36.4-43.8,67.3-58.3,97.5c-11.4,23.8-18.1,44.1-21,64c-1.5,10.8-1.9,20.4-0.9,29.5
	c0.1,1.4-0.1,2.8-0.4,4.3c-0.1,0.5-0.1,1.1-0.3,1.6c-20.6-5.1-40.6-10.5-59.8-16.2c-5.3-1.5-10.4-3.2-15.6-4.9
	c-6.8-2.2-13.7-4.3-20.6-6.2c-0.1,0-0.3-0.1-0.4-0.1v-0.1C996.5,1164.5,996.6,1164.1,996.8,1163.5z M1200.6,795.2
	c1.4-0.1,2.8-0.3,4.2-0.4c6-0.7,12.2-1.4,17.6,2.3c-0.8,0.9-1.6,2.2-2.2,3.7c-0.1,0.4-0.8,0.8-2,1.4c-4.5,1.9-8.7,4.2-12.8,6.5
	c-0.8-1.4-1.9-2.7-3-3.9c-2.3-2.7-4.5-5.3-4.5-9.2C1198.8,795.4,1199.7,795.3,1200.6,795.2z M1186.4,795.2c0.8,0,1.8,0.1,2.6,0.1
	c2.2,0.1,4.2,0.1,6.2,0.1c-0.1,4.9,2.7,8.1,5.1,11c0.9,1.2,1.9,2.3,2.7,3.5c-1.2,0.7-2.4,1.4-3.5,2c-4.5,2.6-8.9,5.3-13.7,7.6
	c-0.1,0.1-0.4,0.1-0.5,0.3c-2.3-10.1-9.1-17.3-15.6-23.1c0-0.1-0.1-0.1-0.1-0.3c0-0.1-0.1-0.3-0.1-0.4
	C1175,794.5,1180.5,794.9,1186.4,795.2z M1079.4,788.5c0.1-0.1,0.1-0.4,0.1-0.5c0.8,0.3,1.6,0.4,2.4,0.5c7.4,1.4,15.1,2,23.1,2.7
	c8.2,0.8,16.9,1.6,25.3,3.4c0,0.3,0,0.7,0.1,1.1c0.1,0.8,0.9,1.2,1.6,1.1c0.8-0.1,1.2-0.9,1.1-1.6c-0.1-0.5-0.3-1.5,0.1-1.9
	c0.3-0.3,0.9-0.7,3.2-0.3c3.2,0.7,6.5,0.5,9.7,0.5c4.9,0,9.5-0.1,13.8,1.8c2.2,0.9,4.7,1.2,7.2,1.1c0.1,0.1,0.1,0.4,0.3,0.5
	c0,0.1,0.1,0.3,0.1,0.4c0.1,0.4,0.3,0.8,0.7,1.2c6.6,6,13,12.7,15,22.4c-3.1,1.8-6.1,3.5-8.9,5.4c-2.7,1.6-5.4,3.4-8.1,4.9l-6.4,3.5
	l-1.6,0.8v-2.2c0-1.8-0.1-3.4,0.5-5c3-7.7,0.9-14.5-6.1-21.2c-2.8-2.8-6.4-4.5-9.6-6c-3-1.5-5.8-2.7-8.1-4.9
	c-0.5-0.4-1.4-0.4-1.9,0.1c-0.4,0.5-0.4,1.4,0.1,1.9c2.6,2.4,5.7,3.9,8.8,5.3c3.1,1.5,6.2,2.8,8.8,5.4c6.4,6,8.1,11.6,5.5,18.3
	c-0.8,2.2-0.8,4.2-0.7,6.1v2.4c0,0.4,0.1,0.7,0.4,0.9c-8.9,5-18,10-27,14.9c0-0.1-0.1-0.3-0.1-0.4c-0.7-2.4-1.2-4.3,0.1-6.8
	c1.4-2.3,1.9-5,2.4-7.7c0.1-0.8,0.3-1.8,0.5-2.6c2.8-12.4-0.5-19.1-12.3-24.5c-8.2-3.8-17.3-5.8-26.9-6.1
	c-20.8-0.7-41.8,0.5-62.5,3.7c-4.5,0.7-9.1,1.4-13.4,1.9c-7.8,1.1-16,2.2-23.8,3.7l-0.8,0.1c-2.8,0.5-5.8,1.1-8-1.5
	c-0.4-0.7-1.4-0.7-1.9-0.3c-0.7,0.4-0.7,1.4-0.3,1.9c3.1,3.9,7.4,3.1,10.5,2.6l0.8-0.1c7.8-1.5,15.8-2.6,23.7-3.7
	c4.3-0.5,8.9-1.2,13.4-1.9c20.4-3.1,41.4-4.3,61.9-3.7c9.2,0.3,17.9,2.2,25.8,5.8c10.7,5,13.3,10.1,10.7,21.5
	c-0.1,0.9-0.4,1.8-0.5,2.7c-0.5,2.6-1.1,5-2.2,7c-1.9,3.4-1.1,6.2-0.3,8.8c0.1,0.3,0.1,0.7,0.3,0.9c-8.8,4.7-17.7,9.5-26.5,13.9
	c-2.7,1.5-5.4,2.8-8.1,4.2c-0.7-3.2,0.4-6.1,1.6-9.2c0.8-2.2,1.8-4.3,2-6.8c1.6-13.4-2.3-20.7-14.3-27.2
	c-10.7-5.8-22.3-6.6-33.7-7.4c-17.6-1.4-35.2,0.8-53,3.2c-30.6,4.2-60.7,10.5-86.7,16.2h-0.1c-3.2,0.7-6.6,1.4-9.7-0.3
	c-0.3-0.1-0.5-0.3-0.8-0.4c5.3-6,11.1-9.1,17.7-9.3c6.5-0.3,13.7-0.5,18.8-7.2c0.8-0.9,2.7-0.9,4.5-0.9h0.4c4.3,0,8.5-1.1,12.4-2.2
	c1.4-0.4,2.8-0.8,4.2-1.1c3.1-0.7,6-1.8,8.8-2.7c3.2-1.1,6.2-2.2,9.5-2.8c0.9-0.1,1.8-0.3,2.7-0.4c3.7-0.5,7.3-1.1,10.4-4.9
	c0.9-1.2,2.7-1.4,4.7-1.5c0.7,0,1.5,0,2.3-0.1c1.2-0.1,2.4-0.3,3.7-0.4c5.3-0.5,10.7-1.1,14.7-6.2c0.3-0.3,0.3-0.8,0.1-1.2h1.1
	c3.2,0,6.5-0.7,9.6-1.4c3.8-0.8,7.3-1.5,10.8-1.2c0.8,0,3.7,0.3,5.4-1.6c0.3-0.3,0.5-0.5,0.7-0.9c1.9,0,3.8,0.1,5.7,0.1
	c6.8,0.3,13.7,0.4,20.6,0.4h4.2C1074.7,793.9,1077.9,792.1,1079.4,788.5z M1088.9,872.7l0.1,0.1c-9.6,4.9-19.5,9.9-29.5,14.7
	c-1.4-3.1-0.8-6.2-0.1-9.6c0.1-1.1,0.4-2.3,0.5-3.5c2.4-21.1-7-33.1-28.9-36.6c-24.3-3.9-49.1-2.2-72.1,0.1
	c-24.6,2.6-49.5,7.7-74,15.1l-5.5,1.6c-19.9,6-40.3,12.2-60.7,16.2c-28.3,5.8-52.1,7.2-74.6,4.6c-27.6-3.1-52.2-10.1-75.3-21.6
	c-19.3-9.7-31.6-22.6-37.7-39.6c0.1-0.1,0.4-0.1,0.5-0.3c0.5-0.1,1.2-0.4,1.8-0.7c1.1-0.4,2.2-0.9,3.2-1.5
	c9.6,17.6,25.8,27.6,40.7,35c18.8,9.3,40,16,64.6,20.3c8.2,1.5,18.8,3.1,29.9,3.1c1.6,0,3.4,0,5-0.1c4.1-0.3,8.2-0.8,12.3-1.4
	c4.7-0.7,9.7-1.4,14.6-1.4c1.1,0,1.8-0.8,2.4-1.6c0.1-0.3,0.4-0.5,0.5-0.7c0.5-0.5,0.5-1.4,0-1.9c-0.5-0.5-1.4-0.5-1.9,0
	c-0.1,0.3-0.4,0.5-0.7,0.8c-0.1,0.3-0.4,0.5-0.5,0.7c-5,0-9.9,0.7-14.7,1.4c-4.1,0.5-8.1,1.2-12.2,1.4c-12.6,0.5-24.9-1.4-34.2-3
	c-24.3-4.3-45.3-10.8-63.8-20c-14.5-7.2-30.3-16.9-39.5-33.9c1.6-1.1,3-2.3,3.9-4.1c2.8,1.9,6,1.6,8.8,0.8c0.3,0.1,0.4,0.5,0.7,1.2
	c0.4,0.7,0.8,1.6,1.6,2.3c1.6,1.2,3.2,2.4,4.6,3.7c15.1,12.2,32.7,22.9,55.3,33.5c11.5,5.4,24.6,9.6,40.2,12.4
	c14.1,2.6,28,2,42.2,1.2c2.3-0.1,4.6,0.3,7.2,0.5c4.6,0.5,9.3,1.2,14.2-1.1c1.1-0.5,2.3-0.7,3.7-0.8c1.2-0.1,2.4-0.3,3.7-0.7
	c2.7-0.8,5.5-1.5,8.4-2c7-1.4,14.2-2.8,19.7-8.4c5.3-5.1,12.4-5.1,18.1-5.1c3.7,0,7.2-0.5,10.5-1.1c2.4-0.3,4.7-0.7,7-0.8
	c0.8-0.1,1.5-0.1,2.3-0.3c2-0.1,3.7-0.4,5.1,0.4c3.9,2,8,1.2,11.5,0.5h0.3c25.8-5.7,56-12,86.4-16.2c18.4-2.6,35.2-4.6,52.5-3.2
	c11.1,0.8,22.4,1.6,32.6,7.2c11.1,6,14.5,12.2,13,24.5c-0.1,2-0.9,4.1-1.8,6.1C1089.4,864.5,1087.9,868.1,1088.9,872.7z
	 M1057.2,888.5c-8.7,4.2-17.4,8.2-26.4,11.9c-2.2,0.8-4.2,1.8-6.1,2.4c-0.1,0-0.1-0.1-0.1-0.1c-2.3-2.6-3.1-5.8-4.1-9.2
	c-0.7-2.2-1.2-4.6-2.3-6.8c-6.1-12.7-16.4-21.2-31.5-26.1c-18.4-6.1-37.7-5.4-56-3.8c-26,2.2-49.1,6-70.7,11.5
	c-11.1,3-22.9,5-33,6.8c-1.2,0.3-2.3,0.8-3.2,1.4c-0.7,0.3-1.4,0.7-1.9,0.8c0.3-1.4,0.1-2.8-0.5-4.2c19.9-4.1,39.8-10.1,59.1-16
	l5.4-1.6c24.3-7.4,49-12.4,73.4-15.1c22.7-2.3,47.2-3.9,71.3-0.1c20.4,3.4,28.9,14.1,26.8,33.7c-0.1,1.1-0.3,2.2-0.5,3.4
	C1056.1,880.6,1055.5,884.6,1057.2,888.5z M954.7,918.5c-3-1.2-6-2.8-8.9-4.5c-2-1.1-4.3-2.3-6.5-3.4c-19.1-9.5-39.8-14.5-63.4-15
	c-3.9-0.1-7.8-0.1-11.8-0.1s-8,0-11.9-0.1c-16.6-0.1-33,0.9-48.8,2c-3.1,0.1-6.4,0.4-9.5,0.5c-4.7,0.3-9.5,0.5-14.2,0.9
	c-21.1,1.5-38.8,1.6-55.9,0.3c-18.1-1.5-34.2-4.5-49.1-8.9c-24.5-7.3-41.8-15.6-56.3-26.9c-11.1-8.8-16.2-18-15.8-29.2
	c0-1.6-0.5-3.8-1.8-4.9c3.4-2.3,5.3-5.7,6.9-9.2v0.1c0.5,0.7,1.1,1.2,1.8,1.5c0,0.3,0.1,0.4,0.3,0.5c1.1,1.1,1.1,2.6,0.9,4.7v0.9
	c-1.5,15.4,8.1,25.4,15.4,31.5c19.9,16.9,44.8,27.5,78.4,33.4c8.4,1.4,16.9,1.8,25.3,1.8c3.8,0,7.6,0,11.4-0.1
	c4.5-0.1,9.1-0.1,13.7-0.1c3.4,0,5.5-1.4,6.6-4.1c1.1,0.3,2,0.4,3.1,0.4c0.5,0,0.9-0.1,1.4-0.1l3.7-0.4c12.6-1.6,25.6-3.2,38.3-5.8
	c2.4-0.5,5-0.9,7.4-1.4c1.2-0.3,2.6-0.4,3.8-0.7c3.5,2.4,7.6,1.8,10.8,1.2c0.4-0.1,0.9-0.3,1.4-0.3c21.1-3.2,37.3-5,52.6-5.4
	c37.7-1.1,66.4,6.2,90.3,23c1.5,0.9,3,1.9,4.5,2.8c5.3,3.2,10.3,6.4,12.6,12.3c-7,2.6-14.2,4.9-21.4,7c-2.7,0.8-5.3,1.6-7.8,2.6
	v-0.1C960.5,921.5,957.5,919.7,954.7,918.5z M938.1,924c0,0,0-0.1-0.1-0.1c-22.7-15.6-49.2-16.5-74.9-17.4c-3.7-0.1-7.3-0.3-11-0.4
	c-19.2-0.5-38.8,0-57.7,0.4c-30.3,0.8-61.5,1.6-92.2-1.8H702c-1.9,0-3.5,1.5-4.7,2.8c0,0.1-0.1,0.1-0.1,0.3c-2-0.9-4.1-1.5-6.1-2.2
	c-1.4-0.4-2.7-0.8-3.9-1.2c-1.5-0.5-3-0.5-4.3-0.5c-1.1,0-2.2,0-3.1-0.3l-4.6-1.5c-13.1-4.2-26.5-8.4-39.2-14.3
	c-14.7-7-27.5-13.9-36.1-26.8c-0.7-0.8-1.8-1.2-2.6-1.5c-0.3-0.1-0.4-0.1-0.7-0.3c-0.5-0.3-0.9-0.1-1.4,0.1
	c-0.4-3.4-0.7-7.2-0.5-11.1v-3.5c-0.1-4.9-0.1-9.3,3.1-13.3c0.3-0.3,0.4-0.8,0.3-1.2c0.4,0.4,0.8,0.7,0.9,1.1
	c0.4,0.3,0.8,1.6,0.8,2.8c-0.4,11.9,5.1,22.2,16.9,31.4c14.5,11.4,32.6,20.1,57.1,27.5c15,4.5,31.4,7.4,49.6,8.9
	c17.2,1.4,35.2,1.2,56.4-0.3c4.6-0.4,9.5-0.7,14.1-0.9c3.2-0.1,6.5-0.3,9.6-0.5c15.8-1.1,32.2-2.2,48.5-2c3.9,0.1,8,0.1,11.9,0.1
	c3.9,0,7.8,0.1,11.8,0.1c23.3,0.5,43.7,5.4,62.3,14.7c2.2,1.1,4.3,2.3,6.5,3.4c3,1.6,6.1,3.2,9.2,4.6c2.8,1.2,4.9,2.6,6.1,5.5h-0.1
	c-5.7,2-11.6,4.2-17.7,5.1C942.1,928.5,940.4,926.3,938.1,924z M821.2,946.9h-0.4c-3.1-0.4-6.2-0.7-9.3-1.1
	c-8.9-1.1-18.3-2.2-27-4.3l-2.8-0.7c-15.7-3.8-31.9-7.8-46.9-14.1c-2-0.9-4.2-1.5-6.2-2.2c-5.1-1.5-9.9-3-13.4-7.2
	c0.9,0,1.9,0.1,2.8,0.1h1.4c13,0.4,24.6,2.3,35.6,6c15.1,5.1,31.4,6.1,46.9,6.6c0.4,0,0.9,0.3,1.5,0.4c0.3,0.1,0.5,0.1,0.8,0.3h0.5
	c0.1,0.1,0.1,0.3,0.3,0.4c4.2,3.8,9.5,4.2,14.1,4.5c1.2,0,2.4,0.1,3.5,0.3c3.1,0.4,6.4,0.8,9.5,1.2c16.4,2.3,33.3,4.6,50.2,4.3
	c1.1,0,1.9,0.3,2.7,0.8c-6.6,0.7-12.3,1.4-16.2,2.2c-12.6,2.3-27.2,4.2-38.3,5c-0.7,0-1.8,0.1-3.2,0.1v-0.1
	C825.4,947.4,823.1,947.2,821.2,946.9z M663.5,962.3c-1.9-3.9-4.3-6.5-8.1-8.2c-21.8-10.4-41.2-20.1-58.6-33.5
	c-13.8-10.5-21.8-23.5-24.7-39.6c-3.1-16.2-1.5-32.6,0-48.4c0.4-3.4,0.7-6.6,0.9-10c1.6-18.3-0.1-34.5-5.3-49.4
	c-6.4-18.4-16.1-35-29.8-50.8c-1.5-1.6-2.8-3.5-4.2-5.4c-0.8-1.1-1.6-2.3-2.6-3.5h0.1c0.8-0.7,1.5-0.4,3,0.4
	c0.3,0.3,0.5,0.4,0.8,0.5c27,15,44.2,32.1,54.1,53.4c6.4,13.9,8.5,29.6,6.1,46.5c-0.1,0.8-0.3,1.5-0.4,2.3
	c-0.7,4.3-1.5,8.9,2.8,13.1c-0.5-0.1-0.9,0-1.4,0.4c-4.1,4.6-3.9,9.9-3.8,15v3.4c-0.4,18.7,4.5,31.4,15.7,41.1
	c1.5,1.2,2.8,2.6,4.3,3.8c6,5.3,12.2,10.7,19.1,14.9c32.2,20.1,62.6,34.3,92.8,43.7c1.2,0.3,2.3,0.5,3.4,0.7
	c2.4,0.4,4.6,0.7,6.1,2.7c0.3,0.4,0.7,0.5,1.1,0.5c0.3,0,0.5-0.1,0.8-0.3c0.5-0.4,0.7-1.4,0.3-1.9c-2.2-2.8-5.1-3.4-7.8-3.8
	c-1.1-0.3-2-0.4-3-0.7c-30-9.2-60.2-23.4-92.2-43.4c-6.8-4.1-12.8-9.5-18.8-14.6c-1.5-1.4-2.8-2.6-4.3-3.8
	c-7.7-6.6-12.2-14.9-13.9-25.6c0.3,0.1,0.5,0.1,0.8,0.3c0.4,0.1,1.1,0.4,1.2,0.5c8.9,13.4,22,20.6,37.1,27.7
	c12.7,6,26.4,10.3,39.5,14.5l4.6,1.5c1.4,0.4,2.7,0.4,4.1,0.4c1.2,0,2.3,0,3.4,0.4c1.4,0.5,2.7,0.9,4.1,1.4
	c3.8,1.2,7.3,2.4,10.7,5.1c3,2.4,6.8,3.4,10.7,3.8c0,0.3,0,0.7,0.3,0.9c3.9,5.5,9.9,7.3,15.6,9.1c2,0.7,4.1,1.2,6,2
	c15.3,6.2,31.5,10.3,47.3,14.2l2.8,0.7c9.1,2.3,18.4,3.4,27.5,4.5c3,0.3,6.1,0.7,9.2,1.1h0.4c0.9,0.1,1.9,0.3,2.6,0.5
	c-3,0.4-6.5,0.9-10.3,1.5c-10,1.5-21.4,3.2-25.7,3.5c-4.7,0.3-9.3,0.7-13.8,1.1c-11,1.1-21.4,2-32.7,0.7c-0.1,0-0.5-0.1-0.8-0.3
	c-0.8-0.3-1.9-0.7-2.8,0c-5.8,4.1-12.2,3.8-18.8,3.4c-3.4-0.1-7-0.4-10.5,0.1c-9.1,1.2-18.5,1.8-27.6,2.2c-4.2,0.1-8.5,0.4-12.8,0.7
	c-1.5,0-2.8,0.1-4.2,0.3C663.7,963.1,663.7,962.7,663.5,962.3z M592.1,967.2c-18.9-10.5-35-26.6-47.9-47.6
	c-13.4-21.8-17.7-41.2-13.9-61.1c0.9-5.1,2.2-10.1,3.2-15.1c2.3-10.4,4.9-21.2,5.5-32.3c1.2-19.5-2.4-39.2-11.5-62.3
	c-6.1-15.7-16.9-29.3-33.9-43c-3.5-2.8-7.3-5.4-10.8-8c-4.7-3.2-9.6-6.8-14.1-10.7c2.7-1.2,5.1-0.1,7.8,1.1c0.7,0.3,1.2,0.5,1.9,0.8
	l5.1,2c12.3,4.9,25,9.9,36.8,16.4c5,2.7,8,6.9,11.4,11.2c1.4,1.9,2.8,3.9,4.3,5.7c13.5,15.7,23,32.1,29.2,50c5,14.7,6.6,30.2,5,48.3
	c-0.3,3.4-0.7,6.6-0.9,10c-1.5,16.1-3.1,32.7,0,49.2c3.1,16.8,11.5,30.3,25.8,41.2c17.6,13.7,37.2,23.4,59.1,33.8
	c3.1,1.5,5.1,3.5,6.8,6.9l0.1,0.1c-19.5,1.6-38.3,4.9-56,8.1c-2.8,0.5-5.7,1.2-8.4,1.9v-0.1C596.7,970,594.3,968.3,592.1,967.2z
	 M882.4,938.6c-16.8,0.1-33.7-2.2-49.9-4.3c-3.1-0.4-6.4-0.8-9.5-1.2c-1.4-0.1-2.6-0.1-3.8-0.3c-4.5-0.4-8.7-0.7-12-3.5
	c0.1-0.1,0.3-0.1,0.4-0.3c0.4-0.4,1.2-0.9,1.6-0.9c22.9-0.4,49.9,0,76,6.8c4.6,1.4,6.8,3.2,7,6.5c-0.3,0.1-0.4,0.1-0.7,0.1
	c-1.2,0.1-2.3,0.3-3.1,0.3c0-0.3-0.1-0.5-0.3-0.7C886.5,939.5,884.8,938.6,882.4,938.6z M885.7,932.7c-26.5-6.8-53.7-7.3-76.8-6.8
	c-1.2,0-2.3,0.8-3.2,1.5c-0.3,0.1-0.5,0.4-0.8,0.5c-0.1,0-0.3,0.3-0.4,0.4c-0.1,0-0.4-0.1-0.5-0.1c-0.7-0.3-1.5-0.5-2.3-0.5
	c-15.3-0.5-31.4-1.5-46.1-6.5c-1.4-0.4-2.6-0.8-3.9-1.2c0.9-0.9,2.3-1.2,4.1-1.2c18.3,0.3,36.6-0.4,54.5-0.9l7-0.3
	c10.8-0.4,22.6,0.1,37.1,1.4l3.7,0.3c17.6,1.5,35.7,3.1,51.9,11.6c0.7,0.4,1.5,0.8,2.2,1.1c3.5,1.6,5.7,2.8,5.3,6.4
	c-3.2,0.5-6.5,1.1-10,1.5c-4.2,0.5-8.4,0.9-12.4,1.8C894.3,935,887.9,933.2,885.7,932.7z M913.2,929.3c-0.7-0.3-1.4-0.5-2-0.9
	c-16.8-8.8-35.2-10.4-53-12l-3.7-0.3c-14.6-1.2-26.5-1.8-37.3-1.4l-7,0.3c-17.7,0.5-36.2,1.2-54.4,0.9c-2.3,0-4.7,0.3-6.5,2.6
	c-0.1,0.1-0.3,0.4-0.3,0.5c-9.3-2.4-19.1-3.8-29.8-4.2h-1.4c-5.5-0.1-11.4-0.4-15.1-3.5c-1.1-0.8-2-1.6-3.1-2.2
	c1.2-1.2,1.9-1.6,2.3-1.6c30.8,3.2,62.2,2.6,92.5,1.8c18.9-0.4,38.4-0.9,57.6-0.4c3.5,0.1,7.3,0.3,11,0.4
	c25.3,0.9,51.4,1.9,73.4,16.9c2.3,2.3,3.4,3.9,2.6,6.8c-0.1-0.1-0.4,0-0.5,0c-5.8,1.9-11.9,3.5-18.4,4.7
	C920.2,932.7,916.2,930.8,913.2,929.3z M614.9,803.3c0.1,1.1,0,2.3-0.1,2.6c-1.8,1.2-3.1,2.6-4.3,4.2c-0.1-0.4-0.3-0.8-0.3-1.2
	c-0.8-2.3-1.5-4.5-1.1-6.9c2-12,0.4-24.5-5-36.6c-7.7-17.7-20.4-32.9-40.2-47.9c-22.2-16.8-47.9-31.2-78.7-44.1
	c-2.7-1.1-4.5-2-5.1-4.1c1.2,0.1,2.6,0.1,3.8,0.3c5.8,0.4,11.9,3,17.7,5.4l0.7,0.3c5,2,9.9,3.9,14.9,6c23.4,9.3,47.6,19.1,68.7,34.2
	c12.2,8.8,25.6,20.3,32.1,38.5c5.3,15.4,2.2,29.5-1.6,41.1c-0.1,0.5-0.3,0.9-0.4,1.4C615,798.4,614.2,800.7,614.9,803.3z M616.2,808
	c0.8-0.4,1.2-1.5,1.4-2.4c0.1,0,0.1-0.1,0.3-0.1c10.4-7.4,13.9-18.8,16.6-29.9c5.1-21-1.4-40-19.2-56.7
	c-15-13.8-33.4-22.3-51.3-30.6l-0.4-0.3c-1.4-0.7-2.8-1.2-4.2-1.6c-3-1.1-5.8-2-7.6-4.6c0.5,0,1.1-0.1,1.6-0.4
	c0.9-0.4,2.7-0.3,4.5,0.4c4.9,1.6,9.7,3.2,14.6,4.7c19.6,6.2,39.8,12.7,58.2,22.6c12.8,6.9,26.5,16.5,30.7,35.4
	c3.9,16.8,0.9,31.6-8.8,45.6c-1.5,2-3.1,3.8-4.9,5.7c-2.4,2.6-5,5.3-6.8,8.7c-0.9,1.8-2.3,3-4.1,3.9c-0.1,0-0.1,0-0.1,0l-0.1,0.1
	c-1.4,0.7-2.8,1.4-4.2,1.9c-0.5,0.3-1.2,0.5-1.8,0.8c-2,0.9-4.1,2.2-6,3.2c-3.8,2.2-7.2,4.2-11.2,5c-1.8,0.3-2.7,0-3.4-0.8
	c-0.3-0.4-0.8-0.5-1.2-0.5C610.8,814.2,612.7,810.4,616.2,808z M576.7,666.4c2,0.3,4.1,0.1,6.1,0c1.4-0.1,2.8-0.3,4.2-0.1
	c3.2,0.1,6.5-0.1,9.7-0.3c5.8-0.3,11.4-0.7,17.2,0.9c7.3,1.9,15.7,3.1,25.8,3.8c2.4,0.1,4.9,0.7,6.8,1.5c3,1.4,5.8,2.4,8.9,2.8
	c-0.1,0.3-0.1,0.7,0.1,1.1c2.6,3.9,5.4,7.6,9.9,8.5c1.4,3.5,4.3,5,7.2,6.4l0.9,0.4c15.4,7.4,27.5,16.8,36.8,28.7l0.7,0.8
	c4.6,5.7,9.2,11.6,12,18.5c5.5,13.7,2.7,25.6-8.5,35.6c-2.8,2.4-6,4.7-9.1,6.9c-3.4,2.4-7,4.9-10,7.8c-3.5,3.5-8.1,5.1-12.4,6.8
	c-3.9,1.6-8.1,3.1-11.6,6.1c-2.3-0.5-4.7,0.1-6.8,0.7c-2.4,0.7-4.5,1.2-6.5,0.3c2.8-2.8,5.7-5.4,8.9-7.3c17.3-10.1,27-33,22.3-52.2
	c-4.7-18.8-14.9-34.2-30.3-46.1c-17.9-13.7-38.5-20-64.1-25.2c-3.4-0.5-5.1-1.8-6.5-4.2c-0.4-0.7-1.2-0.9-1.9-0.5
	c-0.7,0.4-0.9,1.2-0.5,1.9c1.9,3.2,4.3,4.7,8.4,5.5c25.2,5.1,45.4,11.2,63,24.6c14.9,11.4,24.7,26.4,29.2,44.5
	c4.6,18.1-4.7,39.8-21,49.2c-4.9,2.8-8.5,6.8-12.6,11.1c-0.3-0.1-0.5-0.3-0.8-0.4c-0.3-0.1-0.5-0.1-0.8,0c-3,0.8-5.1,1.1-7.2-0.4
	c1.5-2.2,3.2-4.1,5.1-6.1c1.8-1.9,3.7-3.8,5.1-6c10.3-14.6,13.4-30.2,9.3-47.7c-4.5-20.1-19.5-30.6-32.1-37.3
	c-18.5-10-38.9-16.5-58.6-22.7c-4.9-1.5-9.7-3-14.5-4.6c-1.5-0.5-4.1-1.2-6.4-0.4c-2.3,0.8-3.9,0.3-6.1-0.5l-0.5-0.3
	c-2.7-0.9-5.4-1.9-8-2.7c-4.1-1.4-8.2-2.6-12.2-4.3c-1.6-0.7-3.4-1.2-5-1.6c-3.1-0.9-6-1.8-8.2-4.1c-0.5-0.5-1.1-1.1-1.6-1.5
	c3.2-1.9,6.6-2.3,11.1-1.4c15.3,3.1,28.5,5.7,40.7,7.4c1.5,0.3,3.2,0.5,5.1,0.5c3,0,6.2-0.8,8.9-3.5
	C577.1,667,577.1,666.6,576.7,666.4z M762,807.2l0.3,0.1c22.6,11.9,47.6,20.6,76.7,26.2c1.1,0.3,2.2,0.3,3.2,0.3
	c2.4,0.1,4.6,0.1,6,2.3c0.3,0.4,0.8,0.7,1.2,0.7c0.3,0,0.4-0.1,0.7-0.3c0.5-0.4,0.8-1.2,0.4-1.9c-2.2-3.4-5.5-3.5-8.2-3.5
	c-0.9,0-1.9,0-2.7-0.1c-28.7-5.7-53.6-14.2-75.9-26l-0.3-0.1c-7-3.8-14.2-7.6-16.6-15.8c0.5-0.1,1.1-0.3,1.6-0.4
	c2.3-0.4,4.6-1.2,6.8-1.9c4.1-1.2,7.8-2.4,11.9-2.2c-0.4,3.4,2,6.6,5.7,10.5c10.1,10.7,23.5,15.6,36.5,20.4l0.5,0.3
	c13.3,4.7,27.7,8.5,45.6,11.9c10.8,1.9,23.7,3.8,36.8,3h0.4c2.8-0.1,5.3-0.3,7.3,1.6c0.1,0,0.1,0.1,0.3,0.1
	c-2.3,1.6-4.5,3.7-6.5,6.2c-0.1,0-0.1,0.1-0.1,0.1c-0.8,0-1.8,0.1-2.7,0.3c-0.7,0.1-1.4,0.3-2.2,0.3c-2.4,0.3-4.9,0.5-7.3,0.9
	c-3.2,0.4-6.6,0.9-10.1,0.9c-3.5,0-7.7,0-11.9,1.2c-0.3-0.4-0.7-0.8-0.9-1.2c-1.8-2.3-3.9-5.1-8.2-4.5c-12.2,1.8-24.5-0.5-36.2-2.7
	c-1.4-0.3-2.7-0.4-3.9-0.7c-25-4.7-49.6-13.4-73.3-25.7c-7-3.5-13.4-7.3-15.6-15.1c0.7-0.3,1.5-0.4,2.2-0.5l2.4-0.5
	c1.9-0.4,3.5-1.2,4.9-2.3c0.1,0,0.1,0.1,0.1,0.1c2.2,0.9,4.2,1.2,6.4,1.2c2.4,0,4.7-0.4,7-0.9v0.1
	C746.7,799.1,754.8,803.4,762,807.2z M812.6,771.5c1.4,1.5,1.4,3.2,1.5,5.4c0,2,0.1,4.3,1.5,6.6c8,13.5,21.4,19.3,30.7,22.4
	c18.8,6.6,37.6,11,55.6,12.7c1.4,0.1,2.7,0.4,4.1,0.5c2.2,0.4,4.2,0.7,6.4,0.7c2.7,0,5.4-0.5,8.1-2.2c0.5-0.3,0.7-0.8,0.7-1.4
	c3.5,1.1,6.8,2.8,9.1,6c-4.2,4.7-10.1,4.9-15.8,5.1c-2,0.1-4.1,0.5-6.1,1.1c-1.8-3.8-4.6-5.7-9.1-6.1c-8.2-0.8-16.5-2.4-24.2-3.9
	c-2.2-0.4-4.5-0.9-6.6-1.4c-15.7-3.1-31.9-6.5-47.2-12.7c-14.9-6-21.9-14.2-22.9-26.5c0-0.1-0.1-0.3-0.1-0.4c2-1.2,3.9-2.4,5.8-3.8
	c0.5-0.4,1.1-0.8,1.6-1.4c2.2-2,3.8-3.2,5.5-2.4c0.4,0.1,0.8,0.3,1.2,0.4C812.2,770.8,812.3,771.2,812.6,771.5z M831.8,779.3
	c6.2,9.6,15.3,14.6,24.3,18.7c19.6,8.8,39.9,13.4,59,16.9c1.2,0.3,2.4,0.5,3.7,0.8c-3.8,2.2-7.8,1.6-12,0.9
	c-1.4-0.3-2.8-0.4-4.2-0.5c-17.9-1.9-36.4-6.1-55-12.6c-14.5-5-23.5-11.5-29.3-21.4c-1.1-1.6-1.1-3.5-1.2-5.4
	c-0.1-2.2-0.3-4.3-1.6-6.4c1.4-0.3,2.4-0.9,3.5-1.6l0.5-0.3c2.3-1.4,4.9-2.3,7.3-3.2c0.9-0.4,1.9-0.8,3-1.2c0.1,1.5,0,3,0,4.3
	C829.5,771.9,829.3,775.7,831.8,779.3z M820.1,807.1c15.6,6.2,31.9,9.6,47.7,12.8c2.2,0.4,4.5,0.9,6.6,1.4
	c7.7,1.5,16.1,3.1,24.5,3.9c3.4,0.4,5.4,1.6,6.8,4.3c-1.1,0.5-2.2,1.1-3.2,1.8c-0.1-0.3-0.1-0.4-0.4-0.7c-2.8-2.7-6.4-2.6-9.3-2.4
	h-0.5c-13,0.8-25.6-1.1-36.2-3c-17.7-3.4-32.1-7.2-45-11.9l-0.5-0.3c-12.7-4.7-25.8-9.6-35.4-19.7c-3.8-3.9-5.3-6.4-5-8.4
	c0-0.3,0-0.5,0.3-0.7c0.3,0.5,0.9,0.8,1.5,0.7c0.4-0.1,0.8,0,1.5,0.1c0.7,0.1,1.2,0.3,2,0.3c0.4,0,0.8,0,1.2-0.1
	c7.2-1.6,13.4-3.4,19.2-6.2C797.3,795.7,809.6,802.7,820.1,807.1z M689,819.8c1.8,1.1,3.5,2.3,5.3,3.4c15.3,9.9,32.5,17.4,51.1,22.4
	c17.6,4.7,35.4,5.7,54.8,5.7c3.7,0,7.4-0.1,11.2-0.1c2,0,4.6-0.4,6.5-2.6c0,0,0.1-0.1,0.1-0.3c0.1,0,0.1,0,0.1,0
	c7.4-0.4,14.1-0.8,21-1.4c3.8-0.3,6.8,0.5,9.2,2.4c0.1,0,0.1,0.1,0.3,0.1c-4.6,3.1-9.9,4.2-15.6,5.4c-2.8,0.7-5.8,1.2-8.7,2.2
	c-0.9,0.3-2,0.4-3.1,0.5c-1.5,0.1-3,0.3-4.5,0.9c-4.1,1.9-8.2,1.4-12.7,0.8c-2.6-0.4-5.1-0.7-7.7-0.5c-14.1,0.8-27.9,1.4-41.7-1.2
	c-15.4-2.8-28.3-6.8-39.5-12.2c-22.4-10.5-39.9-21.1-54.8-33.1c-1.4-1.4-3.1-2.6-4.7-3.8c-0.3-0.3-0.4-0.7-0.7-1.2
	c0-0.1-0.1-0.3-0.1-0.4c0.4-0.5,0.9-0.9,1.5-1.5c1.4,0.9,2.8,1.2,4.2,1.2c1.8,0,3.4-0.5,4.9-0.9c1.8-0.4,3.4-0.9,5-0.7
	c0,0.1,0.1,0.3,0.1,0.3C675.7,811.5,682.5,815.7,689,819.8z M673.4,804.4c3.1-2.6,6.8-3.9,10.7-5.4c1.8-0.7,3.5-1.4,5.3-2.2
	c0,0.7,0.3,1.2,0.7,1.4c3,0.9,4.9,3.2,6.9,5.7c1.5,1.6,3,3.5,5,4.9c21.8,15.1,47.1,25.2,79.7,31.5c4.5,0.8,9.1,1.5,13.4,2.2
	c5.8,0.8,11.9,1.8,17.7,3.1c0.5,0.1,1.2,0.5,1.9,1.1c0.3,0.3,0.4,0.4,0.7,0.5c-0.9,0.9-2.2,1.4-4.2,1.4c-23.4,0.3-44.6,0-65.2-5.5
	c-18.4-5-35.3-12.4-50.3-22.2c-1.8-1.2-3.5-2.3-5.3-3.4C684.1,813.4,678.2,809.8,673.4,804.4z M838.8,844.3
	c-6.9,0.5-13.5,0.9-21,1.4h-0.1c0-0.3-0.3-0.4-0.4-0.5c-0.3-0.3-0.7-0.4-0.9-0.7c-0.8-0.5-1.8-1.2-2.8-1.5c-6-1.4-12-2.3-18-3.1
	c-4.3-0.7-8.8-1.4-13.3-2.2c-32.2-6.2-57.2-16.1-78.6-31c-1.8-1.2-3.1-2.8-4.5-4.5c-0.5-0.8-1.1-1.5-1.8-2.2c0.8-1.8,2.4-2,4.9-2.4
	c1.1-0.1,2.2-0.3,3.2-0.7c4.1-1.5,8.5-2.7,13-3.8c2.4,8.9,9.7,13.3,16.9,16.9c23.9,12.4,48.8,21.2,74.1,26c1.4,0.1,2.6,0.4,3.9,0.7
	c12,2.3,24.5,4.6,37.2,2.7c2.6-0.4,3.8,1.1,5.7,3.5c0.1,0.1,0.3,0.4,0.4,0.5c-1.9,0.8-3.8,2-5.4,3.7c-0.3,0.4-0.7,0.7-0.9,0.9
	c-0.1-0.3-0.3-0.5-0.5-0.8C846.9,844.9,843.3,844,838.8,844.3z M724.9,788.9l-2.4,0.5c-6,1.4-12.2,2.8-18,5
	c-0.8,0.3-1.8,0.4-2.7,0.5c-2.2,0.3-4.9,0.7-6.5,3.1c-1.1-0.9-2.4-1.8-3.9-2.3c2-1.1,4.1-2.4,6-4.2c2.8-2.7,6.2-5.1,9.7-7.6
	c3.2-2.3,6.5-4.6,9.3-7.2c12-10.5,15.1-23.9,9.3-38.5c-3-7.3-7.7-13.4-12.4-19.2l-0.5-0.8c-9.5-12.2-21.8-21.8-37.6-29.5l-0.9-0.4
	c-2.2-1.1-4.1-2-5.3-3.8c1.1-0.1,2.2-0.3,3.4-0.7c0.8-0.3,2,0.3,3.1,0.7c0.5,0.1,1.1,0.4,1.5,0.5l6.5,2.2c11.4,3.8,23.1,7.7,34.6,12
	c10.8,4.1,22.3,8.5,31.4,16.6c14.5,12.7,17,24.7,9.1,41.5c-4.2,8.7-11.2,16-21,21.8c-1.9,1.2-3.5,2.8-5,4.3
	C730.2,786,728.1,788.1,724.9,788.9z M613,822.5c0.4,0,0.7-0.1,0.8-0.1c1.2-0.1,2.4-0.5,3.5-0.9c0.9,2.2,1.5,4.3,2,6.8
	c0.9,3.7,1.9,7.6,4.5,11.1c9.7,13.3,23.1,21.2,33.8,26.6c30.6,15.4,62.7,23,95.3,22.4c2-0.1,3.8,0.5,5.7,1.1c0.1,0,0.3,0.1,0.4,0.1
	c-0.7,1.5-1.8,2.2-3.9,2.2c-4.6,0-9.3,0-13.8,0.1c-11.9,0.1-24.2,0.4-36.1-1.6c-33.1-5.8-57.6-16.2-77.1-32.9
	c-11-9.3-15.4-18.3-14.5-29.2v-0.9C613.8,825.7,613.9,824,613,822.5z M752.9,885.8c-32.2,0.5-63.8-6.9-94-22.2
	c-10.3-5.3-23.4-13-32.7-25.8c-2.3-3.1-3.1-6.5-3.9-10.1c-0.5-2.3-1.1-4.9-2.2-7.2c2.2-0.9,4.2-2.2,6.1-3.2c0.8-0.5,1.8-1.1,2.7-1.6
	c6.4,17.6,19.1,30.8,38.9,40.8c23.4,11.6,48.3,18.8,76.1,21.9c22.6,2.6,46.2,1.2,74.5-4.5c0,0.1,0,0.3,0.1,0.4
	c0.9,1.4,0.5,3,0.1,4.7c0,0.3-0.1,0.5-0.1,0.8c-1.2,0.1-2.3,0.4-3.5,0.5c-2.6,0.4-5.1,0.8-7.6,1.4c-12.7,2.6-25.6,4.2-38.1,5.7
	l-3.7,0.4c-2.2,0.3-4.2-0.4-6.4-0.8C757.4,886.3,755.4,885.8,752.9,885.8z M980.5,901.2c-1.5-0.9-3-1.8-4.3-2.7
	c-24.3-17.2-53.6-24.6-92-23.5c-15.4,0.4-31.8,2.2-52.9,5.4c-0.5,0.1-0.9,0.1-1.5,0.3c-3,0.5-6,1.1-8.5-0.5V880
	c1.4-0.1,2.6-0.8,3.7-1.4c0.8-0.4,1.6-0.8,2.4-0.9c10.3-1.8,22-3.8,33.3-6.8c21.5-5.5,44.5-9.3,70.2-11.5
	c17.9-1.5,36.9-2.2,54.9,3.8c14.3,4.7,24.1,12.7,29.9,24.7c0.9,2,1.5,4.2,2,6.4c0.9,3.4,1.9,6.8,4.2,9.7
	c-9.2,3.8-18.4,7.6-27.6,10.8C991.6,908,985.9,904.6,980.5,901.2z M1015.4,777.5c0.8,0.4,1.6,0.7,2.4,0.8c2.4,0.8,4.7,1.8,6.9,1.9
	c0.5,4.7,4.1,6.1,6.9,7c1.4,0.4,2.7,0.9,3.7,1.8c0.3,0.1,0.7,0.3,0.9,0.3c0.4,0,0.8-0.1,1.1-0.4c0.5-0.5,0.4-1.4-0.1-1.9
	c-1.2-1.2-2.8-1.8-4.5-2.3c-3-1.1-4.7-1.9-5.1-4.7c5-1.1,9.7-0.1,14.6,0.9c2,0.4,4.2,0.8,6.2,1.1c7.2,0.9,14.3,2.4,21.2,3.9
	c2.4,0.5,4.9,0.9,7.4,1.5c0,0.1,0,0.1,0,0.1c-1.1,2.6-3.4,3.8-6.9,3.8c-8.2,0-16.6-0.1-24.7-0.4c-1.8,0-3.5-0.1-5.3-0.1
	c0-0.3-0.1-0.5-0.1-0.9c-0.1-0.8-0.9-1.2-1.6-1.1c-0.8,0.1-1.2,0.9-1.1,1.6c0.1,1.1,0,1.9-0.4,2.3c-0.7,0.7-2.2,0.8-3.2,0.7
	c-4.1-0.4-8,0.4-11.8,1.2c-0.9,0.1-1.8,0.4-2.7,0.5v-0.7c-0.9-3.5-2.6-7-6.9-8.4c-1.8-0.5-3.5-1.1-5.3-1.6
	c-6.1-1.9-12.3-3.9-18.1-6.5c-1.1-0.5-2.3-0.9-3.5-1.4c-3.9-1.4-7.7-2.7-8.7-7.4C990.8,769.7,1004.2,773.7,1015.4,777.5z
	 M934.8,758.1c4.7,0.7,9.3,1.9,13.8,3.1c3.5,0.9,7.3,2,11.1,2.8c2.2,0.4,4.3,1.4,6.6,2.3c2.4,1.1,5,2.2,7.8,2.6v0.5
	c1.2,6.2,6.1,8,10.4,9.6c1.2,0.4,2.3,0.8,3.4,1.4c6,2.7,12.3,4.7,18.4,6.6c1.8,0.5,3.5,1.1,5.3,1.6c3,0.9,4.2,3.2,5.1,6.5
	c0,0.1,0.1,0.1,0.1,0.3c-4.5,0.7-8.8,0.5-13-2.3c-0.8-0.5-1.9-0.5-2.7-0.4c0-0.3-0.1-0.5-0.3-0.8c-2.2-2.6-5.3-3.2-8-3.9
	c-0.7-0.1-1.5-0.3-2.2-0.5c-17-5.1-33.4-10.5-48.4-20.1c-0.4-0.1-0.8-0.4-1.2-0.7C937.7,764.5,934.6,762.6,934.8,758.1z
	 M916.4,752.8c2.6,0.5,5.1,1.5,7.6,2.3c2.6,1.1,5.4,2.2,8.1,2.6c-0.5,6.2,3.8,8.9,7.6,11.2c0.3,0.3,0.7,0.4,1.1,0.7
	c15.3,9.7,32.6,15.4,49.1,20.4c0.8,0.1,1.6,0.4,2.4,0.5c2.4,0.5,4.6,1.1,6.2,2.8c-4.3,1.1-8.7,0.4-13.3-0.3h-0.1
	c-13.5-1.9-26.2-5.1-37.6-9.6c-16.2-6.4-29.6-17.2-41.7-28c-2.2-1.9-3-3.5-2.8-5.8c0-0.3,0-0.5-0.1-0.7
	C907.4,750.5,911.8,751.9,916.4,752.8z M874.5,740.7v-0.4c7,1.4,14.1,3.8,20.8,6.2c1.9,0.7,3.8,1.4,5.7,2c-0.5,0.1-0.8,0.5-0.8,1.1
	c-0.1,3.2,0.8,5.5,3.7,8c12.2,11,25.8,21.9,42.5,28.5c11.6,4.6,24.5,7.8,38.3,9.9c5.3,0.7,10.7,1.6,16.1-0.3
	c0.7-0.1,1.4-0.1,1.5-0.1c2.3,1.6,4.7,2.4,7,2.8c-3.2,4.1-7.8,4.5-12.7,5c-1.2,0.1-2.6,0.3-3.8,0.4c-0.5,0-1.4,0.1-2,0.1
	c-1.5,0.1-3.2,0.3-4.6,0.8c0.1-0.3,0.1-0.5,0-0.8c-0.9-2.4-2.8-3.8-5.8-4.2c-21.9-3-44-9.7-65.7-20.3c-18.3-8.8-30-18.3-38.1-30.6
	C874.4,745.9,873.4,743.6,874.5,740.7z M964.8,806.1c-0.3-0.3-0.5-0.4-0.8-0.7c-0.7-0.7-1.5-1.4-2.6-1.5c-8-0.8-15.7-2.2-23.5-4.1
	c-20.7-5.1-44-13-61-33.4l-0.5-0.7c-6.9-8.2-13.4-16.1-11.2-27.5v-0.1c1.6,0.5,3.4,0.9,5.3,1.2c0.5,0,1.1,0.1,1.9,0.4
	c-1.6,4.5,0.3,7.8,2.2,10.7c8.5,12.7,20.6,22.3,39.2,31.4c22,10.7,44.4,17.6,66.5,20.6c2,0.3,3.1,1.1,3.7,2.6
	c0.1,0.4,0.5,0.7,0.9,0.8c-0.3,0.1-0.5,0.4-0.7,0.7c-2.3,3-5.3,3.4-8.7,3.9c-0.9,0.1-1.9,0.4-2.8,0.5c-3.4,0.7-6.8,1.9-9.9,3
	c-2.7,0.9-5.5,1.9-8.4,2.6c-1.5,0.4-2.8,0.7-4.3,1.1c-3.9,1.1-7.7,2-11.8,2h-0.4c-1.9,0-3.9,0-5.5,1.1c-4.3-5.4-11.1-7.3-16.6-8.2
	c-18.9-3.5-38.9-8-58.4-16.6c-8.7-3.8-17.4-8.7-23.3-17.6c-1.9-3-1.8-6-1.6-9.5c0.1-2,0.1-4.1-0.1-6.2c6.6-0.5,12.4-1.9,17.6-4.2
	c2.3,26,21.9,35.7,38.8,41.2l1.4,0.4c10.5,3.5,21.5,7,32.6,8.8c1.9,0.3,3.7,0.5,5.5,0.9c5.7,1.1,11.5,2.2,17.6,2c2.4,0,3.8,0,5,1.5
	c0.3,0.4,0.7,0.5,1.1,0.5c0.3,0,0.5-0.1,0.8-0.3c0.7-0.4,0.7-1.4,0.3-1.9c-2-2.6-4.7-2.6-7.2-2.6c-5.8,0-11.6-0.9-17.2-2
	c-1.9-0.3-3.8-0.7-5.7-0.9c-11-1.6-21.8-5.1-32.2-8.7l-1.4-0.4c-16.1-5.3-34.9-14.5-36.9-39.2c0-0.3-0.1-0.5-0.3-0.7
	c4.1-2,7.6-4.9,10.7-8.4c1.8,7.2,6.6,13.1,11.5,18.9l0.5,0.7c17.4,21,41.2,29.1,62.3,34.2c8,1.9,15.8,3.2,23.8,4.1
	c0.3,0,0.7,0.5,1.1,0.8s0.7,0.5,1.1,0.8c0.3,0.1,0.5,0.3,0.8,0.3c0.4,0,0.8-0.1,1.1-0.5C965.7,807.3,965.4,806.5,964.8,806.1z
	 M846.1,730.9c4.2,0.7,7.7,2.3,11.4,4.1c1.8,0.8,3.5,1.6,5.3,2.3c-0.1,0.1-0.3,0.3-0.3,0.5c-0.5,3.1-0.5,6-0.1,8.5
	c-0.4-0.3-1.1-0.1-1.5,0.3c-6.5,7.3-14.7,11.4-25.7,12.7c6.4-9.9,8.5-19.5,6.4-29.5C843,730.3,844.5,730.7,846.1,730.9z
	 M818.3,721.6c4.7,0.8,9.2,2.7,13.8,4.5c2.2,1.1,4.6,2,6.9,2.8c-0.1,0.1-0.1,0.3-0.1,0.4v0.7c0,0.1,0,0.1,0,0.3
	c2.2,10-0.1,19.3-7.2,29.3c-0.4,0.1-0.8,0.1-1.2,0.1c-0.3,0-0.7,0.3-0.9,0.5c-0.3,0.3-0.4,0.7-0.3,1.1c-1.1,0.4-2.2,0.9-3.4,1.4
	c-2.6,0.9-5.3,2-7.7,3.4l-0.5,0.3c-1.9,1.1-3,1.8-4.9,1.1c0.3-2,1.6-3.7,3.1-5.3c0.7-0.8,1.4-1.6,1.9-2.4
	c8.1-11.6,7.3-23.5-2.3-33.5l-0.4-0.4c-1.8-1.9-3.4-3.5-3.2-6C813.8,720.7,816,721.2,818.3,721.6z M788.5,710.6
	c4.7,1.1,8.9,3,13.4,5.1c2.4,1.1,4.9,2.3,7.4,3.2c-0.3,0.3-0.4,0.5-0.4,0.8c-0.1,3.7,2.2,6,4.1,8l0.4,0.4c6.1,6.4,11.4,16.8,2,30
	c-0.5,0.7-1.1,1.5-1.8,2.2c-1.6,1.9-3.2,3.9-3.8,6.6c-2.6,0-4.6,1.9-6.2,3.4c-0.5,0.4-1.1,0.8-1.5,1.2c-7.6,5.7-16.1,8.4-26.5,10.7
	c-0.8,0.1-1.4,0-2.2-0.1c-0.7-0.1-1.4-0.3-2.2-0.1c1.1-1.2,2.8-2.7,5.3-4.3c13.4-9.1,19.9-20.7,19.6-35.6
	c-0.1-11.2-5.8-19.3-11.9-26.5c-0.5-0.7-1.2-1.4-1.8-1.9c-1.8-1.8-3.2-3.2-3.2-5.7C782.3,709,785.4,710,788.5,710.6z M716.8,682.4
	c0-0.1,0-0.1,0-0.1c0.4,0.3,0.7,0.4,1.1,0.7c7.3,4.3,15.6,7.2,23.5,9.9c3.8,1.4,7.8,2.7,11.8,4.3c3.5,1.4,7.2,3,10.5,4.5
	c4.2,1.9,8.5,3.8,13,5.4c-0.1,0.1-0.1,0.4-0.1,0.5c-0.1,3.8,2,6.1,4.1,8c0.5,0.5,1.1,1.2,1.6,1.8c5.8,6.8,11.2,14.5,11.4,24.9
	c0.1,13.9-5.8,24.7-18.5,33.4c-3.2,2.2-5.8,4.2-7,6.5c-4.9-0.5-9.3,0.9-13.7,2.3c-2.2,0.7-4.3,1.4-6.5,1.8c-0.9,0.3-1.9,0.4-2.8,0.7
	c-4.3,0.9-8.2,1.8-12.3,0.4c0.5-0.5,1.1-1.1,1.6-1.6c1.5-1.5,2.8-2.8,4.5-3.9c10.1-6.1,17.6-13.8,22-22.9
	c8.5-17.9,5.7-31.2-9.6-44.8c-9.5-8.4-21.1-13.1-32.2-17.2c-11.5-4.3-23.3-8.2-34.8-12l-6.5-2.2c-0.4-0.1-0.9-0.4-1.4-0.5
	c-1.5-0.5-3.2-1.2-4.9-0.7c-6.5,1.9-9.6-1.5-13-6.5c1.6-0.1,3.2-0.3,5-0.8c4.1-1.1,8.4,0.5,12.7,2c1.1,0.4,2.2,0.8,3.2,1.2
	c3.7,1.1,7.4,2,11.1,2.8c5,1.2,10.3,2.4,15.3,4.3c1.2,0.5,2.6,0.8,4.1,0.8C712.4,685.4,714.9,684.5,716.8,682.4z M627.2,637.1
	c4.7,2.8,9.9,5.3,14.9,7.8c4.1,1.9,8.1,3.8,12,6c9.1,5,18.5,9.3,27.7,13.7c10.8,5.1,22,10.3,32.6,16.4c-2.2,2.2-5.3,2-7.6,1.2
	c-5.1-2-10.5-3.2-15.7-4.5c-3.5-0.8-7.3-1.6-10.8-2.7c-1.1-0.3-2.2-0.7-3.2-1.1c-4.6-1.8-9.5-3.5-14.3-2.2c-5.7,1.6-9.9,0-14.7-2.2
	c-1.4-0.7-3-1.1-4.6-1.4c-0.3-6.4-1.8-11.4-7.8-15.3C628.7,648.3,626,643.2,627.2,637.1z M588,614v-0.1c3.8,2.3,7.6,4.5,11.4,6.6
	c5.4,3,10.7,6.2,16.1,9.2c3.2,2,6.5,4.1,9.7,6c-0.3,0.3-0.4,0.4-0.4,0.7c-1.6,7.2,1.6,13.5,9.5,18.7c5,3.2,6.4,7.3,6.6,12.7h-0.4
	c-5.3-0.3-10.1-0.8-14.6-1.5c0.3-0.1,0.5-0.5,0.7-0.9c0.9-5.8-1.5-11-6.8-14.1c-8-4.6-15.1-10.3-21.6-17c-0.7-0.8-1.5-1.5-2.2-2.3
	C591.1,626.9,586.1,621.8,588,614z M554.7,594.1c6.8,3.9,13.7,8.1,20.1,11.9c3.5,2.2,7.2,4.3,10.8,6.5c-0.3,0.3-0.4,0.5-0.5,0.8
	c-2.2,9.3,3.7,15.3,8.7,20.4c0.8,0.7,1.5,1.5,2.2,2.2c6.6,6.9,14.1,12.8,22.2,17.6c4.3,2.6,6.2,6.6,5.4,11.4c0,0.4,0.1,0.8,0.4,1.1
	c-3.2-0.5-6.2-1.1-9.1-1.9c-2.7-0.8-5.4-1.1-8.1-1.2c0.1-0.1,0.1-0.4,0.1-0.5c-0.4-6.9-5.3-9.6-10-12.2l-0.8-0.4
	c-20.1-11-32.3-22.9-39.4-38.5C554.3,605.6,552.3,600,554.7,594.1z M528.9,579.2c3.7,2.2,7.3,4.3,11,6.4c4.2,2.4,8.4,4.7,12.6,7.2
	c-0.1,0-0.1,0.1-0.1,0.1c-3,7-0.5,13.4,2,19.3c7.3,16.4,19.7,28.5,40.4,39.9l0.8,0.4c4.5,2.4,8.4,4.5,8.7,9.9c0,0.1,0.1,0.1,0.1,0.3
	c-2.4,0-4.9,0.1-7.3,0.3c-3.1,0.3-6.4,0.4-9.5,0.3c-1.5,0-2.8,0-4.3,0.1c0.4-5.8-2.6-10.3-8.4-12.2c-4.9-1.5-9.2-3.8-12.6-5.5
	c-21.5-11.1-33.3-28.5-35-51.7c-0.1-0.8-0.1-1.6-0.3-2.4c-0.4-4.5-0.8-8.7,1.9-12.2V579.2z M503.3,565c7.8,4.1,15.6,8.5,23.4,12.8
	c-3.2,4.3-2.7,9.5-2.3,13.9c0.1,0.7,0.3,1.5,0.3,2.3c1.9,24.2,14.1,42.3,36.4,53.8c3.5,1.9,8,4.2,13,5.8c2.7,0.9,7.2,3.4,6.5,9.7
	c-2.8,0-5.4-0.3-7.8-2.2c-1.5-0.9-3.4-1.2-5-1.5h-0.3c-5-0.9-10.1-1.9-15-2.7c-4.2-0.7-8.5-1.4-12.7-2.2c0.1-0.4,0.3-0.7,0.1-1.1
	c-1.2-4.6-5-6-8.2-7.2c-0.9-0.3-1.8-0.5-2.6-0.9c-23.5-11.6-36-27.6-38.1-49.1c-1.4-13.8,0-25.6,4.2-36.1
	C497.8,562,500.5,563.5,503.3,565z M458.8,543.4c10.7,4.5,21.6,9.6,33.8,16.1c-4.3,11-5.8,23.3-4.5,37.6
	c2.3,22.4,15.3,39.2,39.8,51.3c0.9,0.4,1.9,0.8,2.8,1.1c3,1.1,5.5,2,6.5,5.1c-5.4-1.1-11-2.2-16.4-3.7c-27-7.3-46.2-20.8-58.7-41.2
	c-15.1-25-16.2-45.8-3.5-65.5C458.8,543.9,458.8,543.6,458.8,543.4z M420,528.8c0.1-0.1,0.3-0.4,0.3-0.5c2.4,0.9,5,1.8,7.6,2.6
	c7.2,2.3,14.2,5.4,21.4,8.4c2.4,1.1,5,2.2,7.6,3.2c-0.1,0.1-0.3,0.1-0.3,0.3c-13.4,20.7-12.2,42.3,3.5,68.4
	c12.8,21.1,32.6,34.9,60.3,42.3c10.4,2.8,21.2,4.7,31.8,6.5c4.9,0.9,9.9,1.8,14.9,2.7h0.3c1.4,0.3,3,0.5,3.8,1.1
	c1.2,0.9,2.4,1.6,3.7,2c-3.1,3.2-7.3,2.8-11.6,2.2c-12-1.9-25.3-4.2-40.4-7.4c-5.1-1.1-9.3-0.5-13.1,1.6c-0.3,0.1-0.4,0.4-0.5,0.7
	c-4.2-2.8-8.9-4.1-13.9-4.7c0.4-0.4,0.7-1.2,0.3-1.8c-0.3-0.7-0.7-1.2-0.9-1.9c-1.1-2.2-2.3-4.6-5.5-6.2
	c-18-9.1-33.3-18.9-46.7-29.9c-18.1-14.9-29.5-31.9-34.6-52.2c-3.8-14.2-1.2-24.5,8.2-32.5c1.2-1.1,2.2-2.3,3.1-3.5
	C419.2,529.7,419.6,529.2,420,528.8z M385.8,519c11,1.5,21.5,5,31.8,8.5c-0.4,0.3-0.7,0.7-0.9,1.1c-0.9,1.2-1.8,2.3-2.7,3.1
	c-10.1,8.5-13.1,20-9.1,35.2c5.3,20.8,16.9,38.4,35.4,53.6c13.5,11.1,28.9,21,47.2,30.2c2.4,1.2,3.2,3,4.3,5c0.4,0.7,0.7,1.4,1.1,2
	c0.1,0.1,0.1,0.1,0.1,0.1c-0.7-0.1-1.5-0.1-2.2-0.3c-1.2-0.1-2.6-0.3-3.9-0.4c-2.2-0.2-4.4-0.4-6.6-0.7c0.1,0,0.2-0.1,0.4-0.2
	c0.7-0.4,0.8-1.2,0.4-1.9c-1.8-2.6-4.5-4.7-7.4-5.8c-23.3-8.7-44.2-20-62.5-33.8c-20.8-15.6-33-33.5-37.5-55.2
	c-3.2-15.6-0.7-26.2,8.4-34.6c0.1-0.3,0.4-0.4,0.7-0.7C384.2,523.1,385.8,521.5,385.8,519z M358.7,513.1c1.4,0.1,2.6,0.4,3.9,0.5
	c3.7,0.5,7.3,1.5,11,3c3.1,0.9,6.4,1.8,9.6,2.3v0.1c0.1,1.5-0.8,2.3-2.2,3.7c-0.3,0.1-0.5,0.4-0.8,0.7c-9.9,9.1-12.7,20.6-9.2,37.1
	c4.6,22.3,17.2,40.8,38.5,56.8c18.5,13.8,39.8,25.3,63.2,34.1c2.4,0.8,4.7,2.7,6.1,4.7c0.1,0.1,0.2,0.2,0.4,0.3
	c-3.1-0.4-6.1-0.9-9-1.9c-14.6-4.9-27.6-9.2-40.4-14.9c-24.9-11.1-46.9-21.6-64.8-40c-13.9-14.3-21.6-29.8-23.5-46.8
	c-1.6-15.1,2.4-25.7,12.7-32.6c2.3-1.5,4.1-4.1,4.6-6.9V513.1z M325.3,510v-0.5c10.3,0.5,20.6,1.8,30.4,3.2
	c-0.5,2.2-1.8,4.1-3.5,5.3c-11.1,7.4-15.7,18.9-13.8,35c2,17.7,9.9,33.5,24.3,48.4c18.3,18.8,40.4,29.5,65.6,40.6
	c13,5.7,26.1,10.1,40.7,14.9c5.5,1.9,11.5,2.3,17.3,2.8c1.4,0.1,2.7,0.3,3.9,0.4c7.7,0.8,14.6,1.9,20,7.4c2.8,2.8,6.2,3.8,9.5,4.7
	c1.6,0.4,3.1,0.8,4.6,1.5c4.1,1.8,8.4,3.1,12.4,4.5c2.6,0.8,5.3,1.6,7.8,2.6l0.5,0.3c1.1,0.4,2.2,0.7,3.2,0.9c0,0.1,0,0.4,0.1,0.5
	c2.2,4.1,6.1,5.4,9.6,6.5c1.4,0.4,2.7,0.9,3.9,1.5l0.5,0.3c17.7,8.2,35.8,16.6,50.6,30.2c17.3,16.1,23.3,33.8,18.4,54
	c-2.6,10.4-5.7,20.4-14.3,27.3c-0.3-1.8,0.3-3.2,0.9-5c0.3-0.4,0.4-0.9,0.5-1.4c3.9-12,7.2-26.6,1.6-42.7
	c-6.8-19.1-20.6-30.8-33.1-39.9c-21.2-15.4-45.7-25.2-69.2-34.6c-5-1.9-10-3.9-14.9-6l-0.7-0.3c-6.1-2.4-12.3-5.1-18.7-5.5
	c-4.6-0.1-9.1-0.5-13.8-2.2c-5.4-1.9-11.1-3.7-16.5-5.3c-7.3-2.3-14.7-4.6-21.9-7.2c-3.2-1.2-6.6-1.6-10.3-1.8
	c0-0.1-0.1-0.4-0.1-0.5c-1.6-4.3-5.3-5.4-8.5-6.4c-0.5-0.1-1.2-0.4-1.8-0.5l-2.6-0.9c-27.9-9.9-56.7-20-80.2-39.5
	c-15.1-12.7-23.3-27-24.9-43.8c-1.8-19.1,3.2-32.2,16.2-41.5C321.8,515.6,324.5,513.5,325.3,510z M292.5,509.8
	c11-0.7,20.6-1.1,30.4-0.8c0,0.1,0,0.1,0,0.1c-0.5,2.6-2.8,4.3-4.9,5.8c-13.5,9.7-19.1,24.1-17.2,44c1.8,17.6,10.1,32.5,26,45.7
	c23.9,19.9,53,30,81,39.9l2.6,0.9c0.5,0.1,1.2,0.4,1.9,0.5c2.8,0.8,5.3,1.6,6.5,4.2c-0.1,0-0.1,0-0.1,0c-3.1-0.1-6-0.3-8.8-0.8
	c-13-3-24.5-6.1-35-9.6l-2.6-0.8c-26.8-8.8-54.5-17.7-77.6-35.7c-16.5-12.8-24.6-26.8-25.7-43.8c-0.9-15,5.1-28.7,18.4-41.5
	c0.4-0.4,0.8-0.7,1.2-1.1C290.4,515.2,292.7,513.3,292.5,509.8z M246.8,523.3c-5.4,1.2-10.3,3.5-14.9,5.8c-0.9,0.4-1.9,0.9-2.8,1.4
	c-16.5,7.8-32.9,16.6-48.7,25.2c-23,12.2-46.5,24.9-71,35c-19.6,8.2-40.2,15-60,21.6l-4.1,1.4c-1.4,0.4-2.6,0.8-3.9,1.2
	c-2.8,0.8-6,1.8-8.9,2.8c-3.7,1.4-6.8,1.2-9.7-0.5h-0.1c2.2-1.2,4.2-2.6,6.1-4.1c6-4.2,12.7-7.3,19.3-10.3c3.8-1.8,7.7-3.5,11.5-5.5
	c7-3.7,13.9-7.4,20.8-11.1c24.7-13.1,50.2-26.8,75.9-39.1c10.8-5.1,22.7-10.4,36.5-16c10-3.9,20.6-7,30.7-10
	c1.9-0.5,3.8-1.1,5.7-1.6c7.2-2.2,14.6-3.4,21.8-4.5c1.8-0.3,3.5-0.5,5.3-0.8c0,0.1-0.1,0.4-0.1,0.7
	C256.2,520.8,251.4,522.3,246.8,523.3z M261.2,601c-0.5-0.3-1.1-0.1-1.5,0.3c-1.2-5.4-4.3-9.1-10.1-11.6c-0.4-0.1-0.8-0.1-1.1,0
	c-0.7-1.9-1.5-3.7-2.6-5.4c-4.2-6.9-6.8-12.8-6-20.3c0.1-1.4-0.5-2.7-1.2-3.9c-0.3-0.5-0.5-1.1-0.7-1.5c0.4-0.5,0.7-1.1,0.8-1.9
	c0.3-1.5,0.7-3,0.9-4.5c0.9-4.3,1.9-8.8,1.8-13.4c0-0.4-0.1-0.7-0.4-0.9c4.1-3,6.6-6.6,8.4-11.5c0.1-0.3,0.1-0.5,0-0.8
	c3.9-1.2,9.2-3.7,8.9-10.5c0-0.4-0.1-0.7-0.4-0.9c2.4-0.4,5-0.9,7.4-1.5c6.1-1.4,12.4-1.6,18.7-2c1.8-0.1,3.7-0.3,5.4-0.4
	c0.1,1.9-1.1,3.1-3,4.7c-0.4,0.4-0.9,0.8-1.4,1.2c-13.9,13.5-20.1,27.7-19.2,43.7c1.1,17.9,9.6,32.3,26.8,45.7
	c23.5,18.3,51.5,27.3,78.4,36.1l2.6,0.8c10.7,3.5,22.2,6.6,35.3,9.6c3.1,0.7,6.2,0.8,9.3,0.9c4.1,0.1,8.2,0.4,12.2,1.8
	c7.3,2.6,14.7,4.9,22,7.2c5.4,1.8,11.1,3.4,16.5,5.3c2.7,0.9,5.3,1.4,7.8,1.8v0.5c0.9,3.8,3.9,5.3,6.9,6.4
	c30.6,12.8,56.1,27,78.2,43.8c19.3,14.6,31.8,29.5,39.4,46.8c5.1,11.8,6.8,23.5,4.7,35c-0.5,3.1,0.3,5.7,1.2,8.2
	c0.3,0.8,0.5,1.6,0.8,2.4c0.1,0.3,0.3,0.5,0.4,0.7c-0.8,1.5-1.6,3-2.3,4.5c-1.9,4.1-3.8,7.8-7.4,10.3c-2.6-3-1.9-6.5-1.2-10.4
	c0.1-0.7,0.3-1.5,0.4-2.3c2.4-17.4,0.3-33.7-6.4-48.1c-10.1-21.9-27.6-39.4-55.3-54.8c-0.3-0.1-0.5-0.3-0.8-0.4
	c-1.4-0.7-3.7-2-6.1,0c-2-2.4-4.5-4.7-7.7-6.5c-11.9-6.5-24.7-11.6-37.1-16.5l-5.1-2c-0.5-0.3-1.1-0.5-1.8-0.8
	c-3-1.4-6.8-3-10.8-0.7c-0.1,0-0.1,0-0.3,0.1c-0.1-0.1-0.3-0.3-0.4-0.4c-5.3-4.9-12.7-7.3-20-9.7c-0.8-0.3-1.8-0.5-2.6-0.8
	c-1.5-0.5-3.1-1.2-4.6-1.8c-4.9-2-9.9-4.1-15.7-2.6c-0.7,0.1-1.1,0.9-0.9,1.6c-7-4.5-14.3-8.5-22.6-11.2c-3.8-1.2-7.6-2.2-11.4-3
	c-6.6-1.6-13.5-3.1-19.5-6.9c-1.9-1.1-3.7-0.5-5.1-0.1c-0.3,0-0.4,0.1-0.5,0.3c-1.2-1.1-2.4-2-3.9-2.8c-4.6-2.7-9.6-4.5-14.5-6.2
	c-7.6-2.7-15.4-5.7-23.7-7.8c-4.7-1.2-9.2-3.8-13.9-6.5c-2.7-1.5-5.4-3-8.2-4.3c-0.4-0.3-0.9-0.4-1.4-0.7c-2.4-1.2-5.5-2.8-9.2-1.5
	c-0.3,0.1-0.4,0.3-0.5,0.4c-3.4-4.7-7.8-8.1-14.1-10.5c-0.7-0.3-1.4,0-1.6,0.5C270.8,606.1,267.6,603.4,261.2,601z M144.3,848.9
	c0.1,1.6,0.1,3.1,0,4.6c-10.4-1.1-21.2-1.9-31.9-1.9c-3,0.1-5.8,0.7-8.5,1.4c-3.9,0.8-7.6,1.6-11.5,0.9c-8.7-1.8-17.7-1.6-26.5-1.6
	h-5.4c0-1.8,0.3-3.4,1.2-5.5c8.4-20.7,22.2-36.9,42.1-49.4c5.4-3.4,11-6.6,16.4-9.9c9.6-5.7,19.6-11.6,28.9-18
	c16.4-11,32.7-22.9,48.4-34.2c4.5-3.2,8.8-6.4,13.3-9.6c5-3.7,10.4-6.9,15.7-10.1c7.6-4.6,15.4-9.5,22.4-15.4
	c19.2-16.2,28.3-36,27.2-60.2c-0.1-4.5-0.8-8.8-1.5-13.1c-0.4-3-0.9-6.1-1.2-9.2c-0.1-1.8-0.4-3.4-0.7-4.7c0,0.1,0.1,0.1,0.1,0.1
	c7.6,3,12,7,15.4,13.9c1.2,2.3,2.3,4.6,3.5,6.9c3.1,6,6.2,12.2,8.1,18.8c6.8,24.1,2.2,46.9-14.1,69.8
	c-17.3,24.1-41.1,39.1-64.4,51.8c-20.1,10.8-43,23.1-60.6,42.2c-6.5,7-13.1,14.3-15.8,24.2C144.1,843.4,144.1,846.1,144.3,848.9z
	 M215.4,861.2c-10.8,0.3-21.5-1.4-31.8-3c-6.4-0.9-13-2-19.5-2.6c-4.6-0.4-9.3-0.9-13.9-1.4c-0.9-0.1-2-0.1-3-0.3c0.1-1.8,0-3.4,0-5
	c-0.1-2.7-0.1-5.1,0.5-7.6c2.6-9.3,8.7-16,15.3-23.1c17.2-18.8,39.8-31,59.8-41.7c23.4-12.8,47.6-28.1,65.2-52.6
	c16.8-23.5,21.5-47.2,14.3-72.1c-1.9-6.9-5.1-13.3-8.2-19.3c-1.1-2.3-2.3-4.6-3.4-6.9c-0.4-0.9-0.8-1.8-1.4-2.6c0.1,0,0.1,0,0.1,0
	c2.6-0.9,4.7,0.1,7,1.4c0.5,0.1,0.9,0.4,1.5,0.7c2.7,1.4,5.4,2.8,8,4.3c4.6,2.6,9.3,5.3,14.3,6.6c-0.1,0.3-0.1,0.5,0,0.9
	c1.2,4.3,3.9,7.8,6.5,11.1c1.6,2.2,3.4,4.3,4.6,6.8c14.7,29.2,14.3,58.7-1.5,87.4c-11.6,21-27.3,40.2-48.3,58.6l-2.3,2
	c-11,9.7-22.4,19.9-29.3,34.1c-4.5,9.2-6.2,18.4-5.4,28.1C234.9,862.8,225,861,215.4,861.2z M322.1,882.3c-0.1,0.7-0.3,1.5-0.4,2.3
	v0.1c-20-6-40.4-10.8-60.3-15.6l-8.9-2.2c-1.6-0.4-3.4-0.8-5-1.2c-1.1-9.9,0.5-18.5,5-27.6c6.6-13.8,17.3-23.3,28.7-33.3l2.3-2
	c21.1-18.7,37.1-38,48.8-59.4c16.2-29.5,16.8-59.8,1.5-89.8c-1.4-2.6-3.1-5-4.9-7.2c-2.4-3.1-4.7-6.1-5.8-9.6
	c7.3,2.2,14.3,4.6,21.1,7.2c4.7,1.6,9.6,3.4,13.9,6c5.5,3.2,8.7,8.9,11.9,14.7c0.7,1.1,1.2,2.2,1.8,3.1
	c10.1,18.3,13.4,38.8,15.8,58.2c3.2,27-10.4,47.2-26.1,67.3c-2.6,3.5-5.4,6.9-8.1,10.3c-8.9,11.1-18.3,22.6-24.6,35.8
	c-5.4,11.4-10,23.8-6.4,38.1C322.6,879,322.4,880.5,322.1,882.3z M395,909.7c-16.9-6.6-35.4-13.3-57.3-20.6
	c-4.5-1.5-9.1-2.8-13.5-4.2c0.1-0.1,0.3-0.3,0.3-0.5c0-0.7,0.1-1.5,0.3-2.2c0.3-1.8,0.5-3.8,0.1-5.7c-3.4-13.4,0.9-25.4,6.1-36.2
	c6.2-13,15.4-24.3,24.2-35.3c2.7-3.4,5.5-6.8,8.2-10.3c16-20.6,30-41.2,26.6-69.2c-2.4-19.7-5.7-40.4-16.1-59.2
	c-0.5-1.1-1.1-2-1.6-3.1c-2-3.7-4.1-7.4-6.9-10.7c0.9-0.1,1.5-0.3,2.2,0.1c4.1,2.6,8.4,4.2,12.8,5.4c0,0.1,0,0.4,0.1,0.1
	c0.8,3.1,3,5.1,5,6.8c0.3,0.3,0.7,0.5,0.9,0.8c24.1,19.9,38.7,46.1,44.8,80.5c5.5,31.4-0.1,61.8-17.2,90.5c-1.4,2.2-2.6,4.3-3.9,6.5
	c-6.6,10.8-13.4,21.9-16.2,35c-1.6,7.6-1.6,14.3,0.1,21c0.1,0.5,0.3,0.9,0.4,1.5C395.2,903.6,396.2,906.7,395,909.7z M490.6,951.9
	c-17.7-8.5-35.8-16.5-53.6-24.1c-5.4-2.3-10.8-4.7-16.2-7c-7.6-3.2-15.3-6.5-23.4-9.7c1.5-3.8,0.5-7.6-0.4-10.8
	c-0.1-0.5-0.3-1.1-0.4-1.5c-1.6-6.1-1.6-12.6-0.1-19.6c2.7-12.6,9.5-23.7,15.8-34.2c1.4-2.2,2.7-4.3,3.9-6.5
	c17.3-29.3,23.1-60.3,17.4-92.4c-6.1-35-21.1-61.8-45.6-82.1c-0.3-0.3-0.7-0.5-0.9-0.8c-1.6-1.4-3.1-2.7-3.8-4.5
	c1.5,0.4,3,0.7,4.5,1.1c3.7,0.8,7.4,1.8,11.1,3c16,5.4,29.1,15.7,41.8,25.4c1.9,1.5,3.8,2.8,5.7,4.3c23.5,18,31.6,45,37.3,68.8
	c4.1,16.6,6,30.6,6,43.7c0,18.7-2.4,35.2-7.7,50.3c-4.5,13-9.5,27.6-9.1,43.1c0.7,18.5,5.3,32.7,14.5,44.8
	C489.8,946.2,491,948.8,490.6,951.9z M563.9,987.1c-0.1,0-0.1,0.1-0.1,0.3c-9.7-5-19.6-9.6-29.2-14.1c-10.3-4.9-21-9.9-31.2-15.1
	c-3.4-1.8-6.9-3.4-10.3-5.1c0.1-0.1,0.1-0.1,0.1-0.3c0.9-4.6-1.2-8.1-3.7-11.2c-8.9-11.5-13.4-25.3-13.9-43.1
	c-0.5-15,4.5-29.3,8.8-42.1c5.4-15.4,8-32.2,8-51.1c0-13.4-1.9-27.5-6-44.2c-5.8-24.3-14.1-51.8-38.4-70.5c-1.8-1.5-3.7-2.8-5.5-4.3
	c-6-4.6-12-9.3-18.5-13.7h0.1c4.9-1.2,9.3,0.5,14.1,2.4c1.5,0.7,3.1,1.2,4.7,1.8c0.8,0.3,1.6,0.5,2.6,0.8c7,2.2,14.2,4.6,18.9,9.1
	c5.3,5,11.2,9.3,17,13.3c3.7,2.4,7.3,5.1,10.7,7.8c16.6,13.4,27.2,26.8,33.1,41.9c8.8,22.7,12.4,42.2,11.2,61.3
	c-0.8,10.8-3.2,21.5-5.5,31.8c-1.1,4.9-2.3,10-3.2,15.1c-4.1,20.6,0.5,40.6,14.2,63c13.1,21.5,29.5,37.9,49,48.7
	c2.3,1.2,3.2,2.4,3.4,4.3c0,0.3,0.1,0.5,0.3,0.7c-2.4,0.7-4.9,1.5-7.3,2.2c-4.5,1.4-8.9,2.7-13.5,3.8
	C570.5,981.1,566,982.6,563.9,987.1z M604.7,1008c0,0.1,0,0.1,0,0.1c-2.2-1.1-4.3-2-6.4-3c-8-3.7-16.2-7.6-24.1-11.9
	c-2.7-1.6-5.5-3.1-8.4-4.6c0.1,0,0.3-0.1,0.3-0.3c1.2-2.7,3.7-4.3,7.8-5.3c4.6-1.1,9.2-2.4,13.7-3.8c5.8-1.8,11.8-3.7,17.9-4.7
	c19.5-3.7,40.6-7.2,62.1-8.5c4.3-0.3,8.7-0.4,12.8-0.7c9.2-0.5,18.7-0.9,27.9-2.3c3.2-0.5,6.6-0.3,10-0.1c6.6,0.3,13.7,0.7,20.1-3.8
	c0.1,0,0.4,0.1,0.5,0.1c0.5,0.1,0.9,0.3,1.5,0.4c11.6,1.4,22.2,0.4,33.3-0.7c4.5-0.4,8.9-0.8,13.7-1.1c4.5-0.3,15.8-2,25.8-3.5
	c7.6-1.2,14.7-2.3,17-2.4c11.1-0.8,25.8-2.7,38.5-5c5.1-1.1,13.3-1.9,22.7-3c5-0.5,10.3-1.1,15.8-1.8c12-1.5,22-3.7,31.6-6.9
	c0.3,0,0.4-0.1,0.5-0.3c0.1,0,0.1,0,0.3,0c0.4,0,0.8-0.3,1.1-0.5c6.9-0.8,13.3-3.1,19.5-5.4c3.4-1.2,6.8-2.6,10.3-3.5
	c20.8-6.1,41.2-14.6,61-22.9c20.3-8.5,40.2-18.7,59.4-28.4l9.7-4.9c20.3-10.3,40.4-21.5,59.9-32.3l6.5-3.5c2.8-1.6,5.5-3.4,8.2-5
	c3.9-2.6,7.7-4.9,11.6-6.8c4.7-2.3,9.3-5,13.8-7.6c6-3.4,12-6.9,18.4-9.6c1.2-0.5,2.8-1.4,3.5-2.8c1.8-4.6,5.3-5.4,10.1-5.9
	c2.4-0.3,4.5-1.4,6.5-2.4c0.4-0.3,0.9-0.5,1.5-0.8c36.2-18.8,66.9-33.8,99.3-46.5c1.1-0.4,2.2-0.9,3.1-1.5c2.6-1.4,5-2.6,7.6-2
	c1.4,0.1,2.6,0.3,3.7,0.1c-0.1,3.8-3.2,5.7-6.6,7.4c-28.5,14.2-54,33.7-78.6,52.5c-4.9,3.8-9.9,7.6-14.9,11.4
	c-24.6,18.7-51.8,32.5-77.5,45c-33.8,16.4-62.3,29.3-89.8,41c-51.3,21.5-105.8,38.9-162.1,51.5c-16.5,3.8-33.4,6.4-49.9,8.8
	c-4.7,0.7-9.6,1.4-14.3,2.2c-21.9,3.5-43,6.5-68.3,10.1c-6.1,0.8-12.3,1.5-18.3,2.2c-8.7,0.9-17.6,1.9-26.4,3.4
	c-9.9,1.6-19.9,3.1-29.6,4.6c-6.6,0.9-13.3,1.9-19.9,3c-23,3.8-43.4,7.4-62.2,11.2c-3.7,0.8-7.2,1.6-10.7,2.4c-4.3,0.9-8.7,2-13,2.8
	C608.6,1003,606.3,1004.8,604.7,1008z M523,1278.1c-13.8-9.2-28.3-16.4-43-21.2c-31.2-10.1-64-16-95.7-21.5l-0.5-0.1
	c-3.4-0.5-5.1-1.8-6.5-4.2c8.8-1.9,17.4-1.1,26.5-0.1c4.6,0.4,9.2,0.8,13.8,0.9c8,0.1,16.2,1.1,24.2,2c6.9,0.8,13.7,3.1,20.3,5.3
	c3.7,1.2,7.4,2.4,11.4,3.5c4.7,1.2,9.6,2.8,14.2,4.3c1.1,0.4,2.2,0.7,3.2,1.1c0.1,0,0.5,0.1,1.1,0.1c0.1,0,0.1,0,0.3,0
	c0.1,0.1,0.1,0.3,0.3,0.3l0.9,0.5c10.1,6,19.7,11.6,28.9,18.7c1.4,0.9,2.2,2.2,3.1,3.4c0.7,0.8,1.2,1.6,1.9,2.3c2,2,4.2,4.1,6.4,6
	C530.2,1281.2,527.2,1280.8,523,1278.1z M882.5,1370.4c-3.1,1.5-6.5,2.8-9.7,3.8l-0.5,0.1c-12,3.7-23.5,6.9-35.8,8
	c-0.3,0-0.7-0.1-0.9-0.1c-0.5,0-1.1-0.1-1.6,0c-1.5-2.3-3.8-2.4-5.7-2.6c-0.4,0-0.8-0.1-1.4-0.1c-6-0.5-11.8,0.4-17.4,1.2
	c-1.2,0.1-2.6,0.4-3.8,0.5c-10.8,1.5-22.7,2.6-36.4,3.5c-27.2,1.8-54.1-0.9-80.1-7.8c-22.9-6.1-44.4-16.4-66-31.4
	c-14.3-10-27.3-21.9-39.9-33.5c-7.8-7-15.8-14.5-24.1-21.4c-3.7-3-7.8-5.7-13.4-4.9c-0.4,0.1-0.7,0.4-0.9,0.7
	c-2.4-3-5.5-5.8-8.7-8.5c-2.4-2.2-4.9-4.2-6.9-6.5c-0.5-0.7-1.1-1.4-1.6-2l-0.4-0.4c0.3,0,0.4-0.1,0.5-0.3c2.8-2.3,6.5-1.8,9.6-0.9
	c5.7,1.5,11.4,3.5,16.8,5.5c2.2,0.8,4.5,1.6,6.8,2.4c14.5,5.1,27.6,13.5,40.2,21.5c3,1.8,6,3.7,8.9,5.5
	c36.6,22.9,75.5,39.6,115.4,50c17.3,4.3,35.8,8.8,55,10.8c8.2,0.8,16.5,2,24.5,3.2c3,0.5,5.8,0.9,8.7,1.4h0.1c0.1,0,0.4,0,0.5-0.1
	c0.1,0,0.1,0,0.3,0c5.7-0.5,11.4-0.3,17-0.1c6.1,0.1,12.6,0.4,18.8-0.4c3.2-0.4,6.5-0.3,9.9-0.3c4.3,0,8.8,0.1,13.3-0.8
	c5.4-1.1,10.7-1.6,15,1.4C886.4,1368.7,884.4,1369.5,882.5,1370.4z M1034,1326.1c-3.4,1.8-6.6,3.2-10.1,4.2
	c-20.4,5-41,11.2-60.9,17.2c-3.4,1.1-6.8,2.2-10.1,3.1c-11.4,3.4-23,6.4-34.3,9.2c-8.5,2.2-17.2,4.3-25.7,6.8
	c-0.5,0.1-1.1,0.4-1.6,0.5c0-0.4-0.1-0.9-0.5-1.2c-5.7-4.2-12.7-2.8-17.3-2c-4.2,0.9-8.5,0.8-12.7,0.8c-3.4-0.1-6.9-0.1-10.3,0.3
	c-6.1,0.7-12.3,0.5-18.4,0.3c-5.7-0.3-11.6-0.4-17.4,0.1c-0.1,0-0.3,0.1-0.4,0.1c-2.8-0.4-5.7-0.8-8.5-1.2
	c-8.1-1.2-16.4-2.4-24.6-3.2c-19.1-2-37.5-6.5-54.6-10.8c-39.6-10.4-78.2-27-114.5-49.8c-3-1.8-6-3.7-8.9-5.5
	c-12.7-8.1-26-16.5-40.7-21.8c-2.2-0.8-4.5-1.6-6.8-2.4c-5.5-1.9-11.2-3.9-17-5.5c-4.1-0.9-8.4-1.5-12,1.5c-0.3,0.1-0.3,0.4-0.4,0.5
	c-0.5-0.5-1.1-1.1-1.8-1.6c-1.9-1.4-3.8-2.8-5.8-4.2c1.9-1.9,3.8-2.7,6.2-2.7c25.3-0.3,47.7,1.8,68.7,6.1
	c21.9,4.6,43,11.6,62.6,20.8c11.8,5.5,23.5,11.6,35,17.4c8.8,4.6,18,9.2,27,13.7c24.1,11.6,50,19.9,77.5,24.5
	c16.1,2.7,32.6,3.4,46.7,3.4c4.1,0,8,0,11.6-0.1c12.7-0.3,25.6-1.6,38-3c3-0.3,5.8-0.7,8.8-0.9c12-1.4,25.2-3,41.2-5.4
	c7.2-0.9,14.3-2.3,21.4-3.5c5.8-1.1,11.9-2.2,17.9-3.1c13-2,26.4-4.1,39.8-5.1c1.4-0.1,2.6-0.4,3.8-0.5c4.2-0.7,8.2-1.4,11.5,1.9
	c0.1,0.1,0.3,0.3,0.5,0.3C1035.6,1325.4,1034.6,1325.8,1034,1326.1z M1117,1297.4c-5.1,2.8-9.9,5.5-15.6,6.5
	c-4.6,0.7-9.1,2.2-13.3,3.8c0.1-0.4,0-0.8-0.3-1.2c-2.7-3.4-6.4-3.5-10-3.2c-3,0.3-6,0.5-8.9,0.8c-7.8,0.7-15.8,1.4-23.7,2.7
	c-4.6,0.8-9.3,1.4-13.9,1.9c-6.6,0.8-13.5,1.6-20.1,3.1c-5.8,1.4-12.2,1.5-18.3,1.8c-3.2,0.1-6.6,0.3-9.9,0.5
	c-31.9,2.8-63.3,2.4-87.1,1.8c-33.9-0.9-61.5-5-86.8-12.7c-19.2-5.7-37.6-14.3-55.3-22.7c-3-1.5-6.1-2.8-9.1-4.3
	c-16.9-8.1-34.3-16.4-52.6-22c-14.1-4.3-28.1-6.6-41.4-8.4c-29.9-4.2-60.2-3.4-86.1-2.3c-17.9,0.7-35.2,2.4-51.5,5.1
	c-1.9,0.4-3.5,1.2-4.7,2.4c-0.5,0.5-0.5,1.4,0,1.9c0.5,0.5,1.4,0.5,1.9,0c0.9-0.8,2-1.4,3.4-1.6c16.2-2.7,33.4-4.5,51.3-5.1
	c25.8-1.1,56-1.9,85.6,2.3c13,1.9,27,4.1,40.8,8.4c18,5.7,35.4,13.9,52.2,21.9c3.1,1.5,6.1,2.8,9.2,4.3c17.9,8.5,36.2,17.2,55.6,23
	c25.6,7.7,53.4,11.8,87.6,12.7c9.3,0.3,19.9,0.5,31.2,0.5c17.4,0,36.6-0.5,56.1-2.3c3.2-0.3,6.5-0.4,9.7-0.5
	c6.2-0.1,12.7-0.4,18.8-1.8c6.5-1.5,13.4-2.3,19.9-3.1c4.6-0.5,9.5-1.1,14.1-1.9c7.7-1.4,15.7-2,23.4-2.7c3-0.3,6-0.5,8.9-0.8
	c3.2-0.3,5.8,0,7.6,2.2c0.1,0.3,0.3,0.3,0.4,0.4c-2.3,0.8-4.5,1.9-6.6,2.8c-6.2,2.8-12.6,5.7-19.5,7c-1.4,0.3-2.8,0.7-4.3,1.1
	c-2.3,0.7-4.9,1.4-7,1.5c-3.8,0.3-7.3,1.5-10.5,3c0.3-0.4,0.1-1.1-0.3-1.5c-4.3-4.1-9.3-3.2-13.8-2.6c-1.2,0.3-2.4,0.4-3.5,0.5
	c-13.5,1.1-26.9,3.1-40,5.1c-6.1,0.9-12.2,2-18,3.1c-6.9,1.2-14.1,2.4-21.2,3.5c-16.1,2.4-29.2,4.1-41.2,5.4c-3,0.3-5.8,0.7-8.8,0.9
	c-12.3,1.4-25.2,2.7-37.7,3c-16.1,0.3-37.2,0.3-57.9-3.2c-27.2-4.5-52.9-12.7-76.7-24.2c-9.1-4.5-18.3-9.2-27-13.7
	c-11.5-5.8-23.3-11.9-35.2-17.4c-19.7-9.3-41-16.4-63.2-21.1c-21.2-4.3-43.8-6.4-69.2-6.1c-3.4,0-6,1.2-8.4,3.8
	c-6.9-4.6-13.9-8.9-21-13l-0.8-0.5v-0.5c0-0.1,0-0.1,0-0.3c0,0,0.1-0.1,0.1-0.3c0.4,0.1,0.9,0,1.4-0.4c1.6-1.9,3.9-2,6.5-2
	c0.8,0,1.8,0,2.7-0.1c11.8-1.5,23.8-2.7,35.4-3.9c3.5-0.4,7-0.7,10.5-1.1c16.6-1.8,34.5-3.5,56.1-5.4c18.7-1.6,37.5-2.6,57.3-3
	c23.1-0.4,44.6,2.6,63.8,8.7c18,5.7,35.7,13.1,52.7,20.3c7.3,3,14.9,6.2,22.3,9.2c26.8,10.8,48.1,16.9,69.2,20
	c24.5,3.7,50.6,6,82,7.2c25.6,1.1,51.4,1.4,76.8,1.4c10.5,0,21-0.1,31.4-0.1h13.5c10.8,0,23.4-0.3,36.1-2.4l0.8-0.1
	c2.8-0.4,5.8-0.9,8,1.6c0.1,0.3,0.4,0.3,0.5,0.4C1120.1,1295.9,1118.6,1296.7,1117,1297.4z M1235.2,941.6c5.5-2.6,9.3-6.1,12.4-9.3
	c0.3-0.3,0.7-0.7,0.9-1.1c2.3-2.6,4.9-5.5,7.3-5.5c5.8,0,10.5-2.3,15-4.5c1.5-0.7,3-1.4,4.5-2c13.3-5.5,27.2-9.5,40.6-13.1
	c0.8-0.3,1.5-0.4,2.3-0.7c0.4,3.1-1.4,4.7-4.2,7c-10.1,8.2-22.3,12.6-34.2,16.8l-1.4,0.4c-3.8,1.2-7.7,2.2-11.6,3
	c-2.7,0.5-5.4,1.2-8,1.9c-3.8,1.1-6.9,1.2-9.6-1.2c-0.5-0.5-1.4-0.4-1.9,0.1c-0.5,0.5-0.4,1.4,0.1,1.9c2.2,1.9,4.6,2.6,6.9,2.6
	c1.8,0,3.5-0.4,5.1-0.8c2.6-0.8,5.3-1.4,7.8-1.9c3.9-0.9,8-1.8,11.9-3.1l1.4-0.4c12-4.2,24.5-8.7,35-17.2c2.7-2.2,5.8-4.6,5.3-9.5
	c0-0.1-0.1-0.3-0.1-0.4c2.3-0.7,4.5-1.2,6.6-1.9c5.4-1.6,11.1-2.3,16.5-3.1c2.4-0.3,5-0.7,7.6-1.1c-0.1,0.1-0.1,0.3-0.1,0.4
	c-0.3,3.9-3.2,5.5-6.2,7.3c-0.9,0.5-1.9,1.1-2.7,1.6l-3.9,2.7c-13.9,9.5-28.3,19.3-44.5,24.9c-9.3,3.1-19.3,4.2-28.9,5.1
	c-4.9,0.5-10,0.9-14.9,1.8c-1.1,0.1-1.8-0.4-3-1.2c-0.7-0.5-1.5-1.1-2.4-1.5c-0.7-0.3-1.5,0.1-1.8,0.8c-0.3,0.7,0.1,1.5,0.8,1.8
	c0.7,0.1,1.2,0.7,1.9,1.1c1.1,0.8,2.4,1.8,4.2,1.8h0.8c4.7-0.8,9.7-1.2,14.6-1.8c9.7-1.1,19.9-2,29.5-5.3
	c16.8-5.5,31.2-15.6,45.2-25.2l3.9-2.7c0.8-0.5,1.6-0.9,2.6-1.5c3.2-1.9,7.2-4.1,7.6-9.5c0-0.3-0.1-0.7-0.4-0.9
	c2.6-0.5,5.1-1.1,7.7-1.9c6.1-1.9,12.3-2.3,18.9-2.8c2.3-0.1,4.6-0.3,6.9-0.5c0,5.3-3.7,6.9-7.8,8.8c-1.1,0.5-2.2,0.9-3.1,1.5
	c-8.7,4.9-17.7,9.7-26.4,14.5c-10.8,5.8-22,11.9-33,18.3c-17.6,10.1-37.6,16.1-65,19.3c-8.9,1.1-17.9,2.7-26.5,4.9
	c-3.7,0.9-6.9,1.1-10.4-0.7C1219.6,951.9,1226.7,945.7,1235.2,941.6z M1253,1238.5c-4.2,1.5-8.4,3.4-12.4,5.3c0-0.1,0-0.3-0.1-0.4
	c-2.4-3.2-5.8-3.8-8.5-3.9c-4.6-0.1-9.3-0.4-13.9-0.7c-8.9-0.5-18.1-0.9-27.3-1.4c-29.1-1.1-54.6-4.3-78.2-10
	c-24.9-6-48.4-13.9-68.2-21c-34.1-12-69.8-22.2-106.2-30.2c-6.2-1.4-12.4-2.7-18.5-4.1c-22.3-4.9-45.4-9.9-68.3-13.8
	c-22.7-3.9-46.9-7.4-78.4-11.5c-25-3.1-50.6-5.8-75.2-8.5l-14.9-1.6c-30.3-3.2-53.4-6-75.1-8.8c-32.3-4.2-70.5-9.7-108.1-18.3
	c-42.7-9.6-76.7-20.1-106.7-33.4c-29.2-12.7-57.7-27.9-84.9-44.9c-25.7-16.1-50.6-34.2-74.6-51.9c-13.1-9.6-26.8-19.6-40.3-29.1
	c-29.6-20.8-55-34.6-80.2-43.7c-28.1-10-58.7-17.3-93.4-22.2c-1.6-0.1-3.4-0.3-5-0.3c-3.7-0.1-7.2-0.1-10-2.2
	c1.9-1.4,4.2-1.4,6.8-1.5c2.6-0.1,5.3,0.3,7.7,0.7c2.2,0.3,4.3,0.7,6.5,0.7c7.8,0.1,15.8,1.1,23.4,2.2c5.1,0.7,10.4,1.4,15.7,1.8
	c17.4,1.5,35,5.3,50.4,8.5c35.7,7.4,72.1,20.3,107.9,38.1c23.9,11.8,48,26,75.7,44.4c4.6,3,9.1,6,13.5,8.9
	c22.4,15,45.7,30.4,69.2,44.4c27.2,16.2,55.9,30.2,87.8,42.6c39.4,15.3,80.6,27.6,126,37.5c21,4.6,41.7,8.1,57.5,10.7
	c5.1,0.8,10.3,1.8,15.4,2.6c12,2,24.5,4.1,36.8,5.8c15.1,2.2,30.6,4.2,45.6,6.1c7.3,0.9,14.7,1.9,22,2.8c4.5,0.7,9.1,1.4,13.7,2
	c10.1,1.5,20.6,3,31,3.9c9.7,0.8,19.7,2.4,29.3,3.9l4.2,0.7c15,2.4,32.6,5.3,50.8,8.9c17.6,3.7,35.7,7.3,53.4,11.1
	c24.5,5.3,49.1,12.3,72.9,19.1c15.1,4.3,30.4,9.3,45.3,14.1c9.7,3.1,19.9,6.4,29.8,9.5c31.4,9.6,65.6,15.4,104.4,17.6
	c3.2,0.1,6.6-0.3,9.2-3.2c0.1-0.1,0.3-0.4,0.3-0.7c1.2,0.7,3,0.7,4.6,0.7h6.1c2.6,0,5-0.1,7.4,0.1c2,0.1,4.2,0.3,6.4,0.3
	c5.3,0.1,10.8,0.3,14.5,2.6c1.6,1.1,3.1,1.8,4.6,2.3c-0.1,0-0.1,0.1,0,0.1C1259,1234.5,1256.1,1237.4,1253,1238.5z M1234,1044.4
	c4.9,4.3,10.3,8.5,16.4,12.7c0.1,0.1,0.1,0.1,0.3,0.1c-4.3,13,3,21.5,10,29.6c0.8,0.9,1.6,1.9,2.4,2.8c17.4,21,40.4,37.5,72.1,51.9
	c6.8,3,13.7,5.8,20.3,8.5c11.4,4.5,23.1,9.2,33.9,15.4c1.6,0.8,3.1,1.9,4.6,3.2c-5.8,2.7-11.4,6-16.9,9.3c-4.9,2.8-9.9,6-15,8.4
	c-2.3,1.1-4.6,2.4-6.9,3.8c0.1-0.3,0.1-0.7,0-1.1c-2.2-4.2-4.9-6.5-8.9-7.6c-2.4-0.7-4.6-1.9-7-3.1c-0.9-0.5-1.9-1.1-2.8-1.5
	c-31.1-15.7-56-35.3-76-59.8c-15.4-18.7-24.7-39.4-28-61.5l-0.1-0.5c-0.5-3.7-1.1-7.6,1.6-10.5
	C1233.8,1044.5,1234,1044.5,1234,1044.4z M1210,1015.5c5.7,9.7,13,18.7,22.3,27.2c-0.1,0.1-0.1,0.1-0.3,0.3
	c-3.5,3.9-2.8,8.8-2.3,12.7l0.1,0.5c3.2,22.7,12.8,43.8,28.5,62.9c20.3,24.7,45.4,44.6,76.8,60.6c0.9,0.4,1.9,0.8,2.8,1.4
	c2.4,1.2,4.9,2.6,7.6,3.2c3.4,0.9,5.5,2.7,7.3,6.2c0.1,0.4,0.5,0.7,0.9,0.7c-5.4,3.1-11,6.2-17.2,7.3c-5.3,0.8-9.7,3.4-14.2,6
	c-1.6,0.9-3.4,2-5.1,2.8c-4.7,2.3-9.3,4.6-13.9,6.9c-0.9,0.5-2,0.9-3,1.5c-1.4-3.8-4.2-5.8-7-7.8c-1.5-1.1-2.8-2-3.9-3.1
	c-19.1-19.1-34.9-40.6-49.6-60.9c-6.2-8.7-12.4-18.1-15.3-28.5c-7.6-26.4-7.8-54-7.4-82.1c0-0.3,0.5-1.1,0.9-1.6
	c0.3-0.4,0.4-0.8,0.7-1.1c0.4-0.7,0.3-1.5-0.4-1.9c-0.7-0.4-1.5-0.3-1.9,0.4c-0.1,0.3-0.3,0.5-0.5,0.8c-0.7,0.9-1.5,2-1.5,3.2
	c-0.4,28.4-0.3,56.1,7.4,82.9c3.1,10.8,9.5,20.6,15.8,29.3c14.7,20.4,30.7,41.9,49.9,61.1c1.2,1.4,2.7,2.3,4.2,3.4
	c2.7,1.9,5.1,3.7,6.2,6.8c-6.8,3.4-13.7,6.8-20.7,9.9c-6.5,3-12.4,4.9-20,0.1c-4.3-2.7-10.1-2.8-15.8-3c-2.2,0-4.2-0.1-6.2-0.3
	c-2.2-0.1-4.5-0.1-6.8-0.1v-0.1c0-4.6-1.4-8.5-4.2-12.4c-3.9-5.1-7.6-11-10.8-17.3c-9.5-18.1-15.3-38.3-18.1-61.8
	c-1.9-16.2-1.5-32.2-0.9-45.7c0.8-18.5,3.8-37.2,6.5-53.3c0.3-1.9,0.5-3.8,0.7-5.7c0.7-6.2,1.2-12,6-16.5
	C1208.3,1012.1,1209.1,1013.8,1210,1015.5z M1206.5,1008c-0.3,0.1-0.5,0.1-0.8,0.4c-5.5,5.1-6.2,11.8-6.9,18.3
	c-0.1,1.9-0.4,3.7-0.7,5.4c-2.7,16.1-5.7,34.9-6.5,53.6c-0.5,13.5-0.9,29.6,0.9,46.7c2.8,23.8,8.8,44.2,18.4,62.6
	c3.4,6.5,7,12.4,11.1,17.6c2.6,3.4,3.7,6.8,3.7,10.8v0.1h-4.5c-0.9,0-3,0-3.4-0.4c-4.7-5-10.5-5.4-16.1-5.8
	c-2.7-0.3-5.3-0.4-7.7-1.1c-4.3-1.2-8.8-1.9-13.1-2.6c-5.3-0.8-10.7-1.8-15.8-3.5c-0.4-0.1-0.8-0.3-1.2-0.4c0.5-3.7-1.1-6.5-2.4-8.9
	c-0.7-1.2-1.4-2.4-1.8-3.7c-6.8-19.6-7.2-40.4-7.6-60.7v-2.4c-0.3-16.2,0.4-29.5,2.2-41.7c1.8-11.6,4.1-21.8,6.9-31
	c6-19.3,15-38.7,28.4-61.1c0.3-0.7,0.7-1.2,1.1-1.9c2.7-4.3,5.4-8.8,9.5-12c0.7-0.7,1.9-0.9,3-0.1c1.1,0.8,1.2,1.9,0.9,2.3
	c-1.6,2.4-2,5-1.2,7.3c0.7,2,1.4,4.2,1.9,6.4C1205.3,1004,1205.8,1006,1206.5,1008z M1095.5,1186.8c-0.8-8.8-0.5-18.3,0.9-28.8
	c2.8-19.6,9.5-39.6,20.7-63.2c14.3-30,32.7-61,58-97.2c8.9-12.7,18.5-24.2,28.8-34.5c2.7-2.6,5.4-3.2,8.2-1.8l-0.1,0.1
	c-0.9,1.9-2,3.9-3.1,5.8c-2.7,4.9-5.5,9.9-6.4,15.7c-1.6-0.4-3.2,0-4.5,1.1c-4.3,3.5-7.2,8.1-10,12.7c-0.3,0.7-0.7,1.2-1.1,1.9
	c-13.5,22.6-22.6,42.2-28.7,61.7c-2.8,9.3-5.1,19.5-6.9,31.2c-1.8,12.4-2.4,25.8-2.2,42.2v2.4c0.4,20.4,0.8,41.5,7.7,61.5
	c0.5,1.5,1.4,2.7,2,4.1c1.4,2.3,2.4,4.3,2.2,6.9c-2.3-0.5-4.6-0.9-6.9-1.2c-2.3-0.4-4.6-0.7-6.9-1.2c-13.4-3.1-27-6.5-40.2-9.9
	c-4.1-1.1-8.2-2-12.3-3.1c0.1-0.5,0.1-1.2,0.3-1.8C1095.5,1189.9,1095.8,1188.2,1095.5,1186.8z"/>
<linearGradient id="SVGID_00000109014686620972936140000014414531997750255783_" gradientUnits="userSpaceOnUse" x1="-75.6245" y1="457.2249" x2="1294.9653" y2="1322.7788">
	<stop  offset="0" style="stop-color:#EE3432"/>
	<stop  offset="3.010000e-02" style="stop-color:#E73536"/>
	<stop  offset="0.3791" style="stop-color:#9D4064"/>
	<stop  offset="0.6682" style="stop-color:#664785"/>
	<stop  offset="0.8831" style="stop-color:#454C99"/>
	<stop  offset="1" style="stop-color:#384EA1"/>
</linearGradient>
<path style="fill:url(#SVGID_00000109014686620972936140000014414531997750255783_);" d="M1400.8,1209.2
	c-10.4,11.1-21.2,22.5-32.2,33.3c-35.2,34.8-78,74.4-128.7,104.8c-26.9,16.1-55.7,29.3-83.7,42.2l-5.4,2.4c-2.3,1.1-4.7,2-7,3
	c-3.9,1.7-7.9,3.3-11.7,5.4c1.9,0,3.9,0,5.8,0.1c2.3-1,4.6-2,6.8-2.9c2.3-1.1,4.7-2,7.2-3.1l5.4-2.4c28-12.8,56.9-26.1,84-42.3
	c51-30.6,94-70.3,129.3-105.1c10.3-10.3,20.6-21.1,30.6-31.7C1401,1211.7,1400.9,1210.4,1400.8,1209.2z"/>
<linearGradient id="SVGID_00000107583384638282423680000016436851528959946887_" gradientUnits="userSpaceOnUse" x1="-72.5495" y1="452.3556" x2="1298.0404" y2="1317.9095">
	<stop  offset="0" style="stop-color:#EE3432"/>
	<stop  offset="3.010000e-02" style="stop-color:#E73536"/>
	<stop  offset="0.3791" style="stop-color:#9D4064"/>
	<stop  offset="0.6682" style="stop-color:#664785"/>
	<stop  offset="0.8831" style="stop-color:#454C99"/>
	<stop  offset="1" style="stop-color:#384EA1"/>
</linearGradient>
<path style="fill:url(#SVGID_00000107583384638282423680000016436851528959946887_);" d="M1391,1286.7c-26.8,36-55.2,63.8-86.8,85.2
	c-11.2,7.6-23,14.5-34.3,21.2c-4.3,2.6-8.8,5.2-13.2,7.8c1.8,0,3.7-0.1,5.5-0.2c2.9-1.8,5.9-3.5,8.8-5.2
	c11.4-6.6,23.3-13.7,34.5-21.2c31.8-21.5,60.4-49.6,87.4-85.7c2.7-3.6,5.3-7.2,7.9-10.8c0-1.1,0-2.2,0-3.2c0-0.4,0-0.7,0-1.1
	C1397.5,1277.9,1394.2,1282.4,1391,1286.7z"/>
<linearGradient id="SVGID_00000098905610021009286330000014915327979798001321_" gradientUnits="userSpaceOnUse" x1="-77.0785" y1="459.5272" x2="1293.5115" y2="1325.0811">
	<stop  offset="0" style="stop-color:#EE3432"/>
	<stop  offset="3.010000e-02" style="stop-color:#E73536"/>
	<stop  offset="0.3791" style="stop-color:#9D4064"/>
	<stop  offset="0.6682" style="stop-color:#664785"/>
	<stop  offset="0.8831" style="stop-color:#454C99"/>
	<stop  offset="1" style="stop-color:#384EA1"/>
</linearGradient>
<path style="fill:url(#SVGID_00000098905610021009286330000014915327979798001321_);" d="M1381.7,1400.4c7-7.9,13.6-16.3,19.8-24.8
	c-0.1-1.6-0.1-3.1-0.2-4.7c-7.2,10.3-15,20.2-23.5,29.7C1379.1,1400.3,1380.4,1400.3,1381.7,1400.4z"/>
<linearGradient id="SVGID_00000059290152706555599970000002571393011657275527_" gradientUnits="userSpaceOnUse" x1="-83.0564" y1="468.9931" x2="1287.5336" y2="1334.5471">
	<stop  offset="0" style="stop-color:#EE3432"/>
	<stop  offset="3.010000e-02" style="stop-color:#E73536"/>
	<stop  offset="0.3791" style="stop-color:#9D4064"/>
	<stop  offset="0.6682" style="stop-color:#664785"/>
	<stop  offset="0.8831" style="stop-color:#454C99"/>
	<stop  offset="1" style="stop-color:#384EA1"/>
</linearGradient>
<path style="fill:url(#SVGID_00000059290152706555599970000002571393011657275527_);" d="M1401.1,1178.7c-0.1-0.6-0.1-1.2-0.2-1.8
	c-22,18-45.4,36.7-70.7,53.3c-9.9,6.5-19.9,13.1-29.8,19.6c-19.5,13-39.6,26.2-59.5,39.2c-26.8,17.6-62.3,40.3-99.9,60.9
	c-34.9,19.1-64,33-91.7,43.4c-2,0.8-4.1,1.5-6.1,2.2c-4.5,1.5-9.2,3.1-13.6,5.5c2.5-0.3,5-0.5,7.5-0.5c2.3-0.9,4.6-1.7,6.9-2.5
	c2.2-0.7,4.2-1.4,6.2-2.2c27.7-10.5,56.9-24.5,92-43.7c37.7-20.6,73.3-43.3,100.2-60.9c19.9-13,40-26.4,59.5-39.2
	c9.9-6.5,19.9-13.1,29.8-19.6c24.9-16.4,47.9-34.7,69.5-52.4C1401.2,1179.6,1401.2,1179.2,1401.1,1178.7z"/>
<linearGradient id="SVGID_00000023245165156224954770000017437644950946458764_" gradientUnits="userSpaceOnUse" x1="-162.3671" y1="594.5803" x2="1208.2228" y2="1460.1342">
	<stop  offset="0" style="stop-color:#EE3432"/>
	<stop  offset="3.010000e-02" style="stop-color:#E73536"/>
	<stop  offset="0.3791" style="stop-color:#9D4064"/>
	<stop  offset="0.6682" style="stop-color:#664785"/>
	<stop  offset="0.8831" style="stop-color:#454C99"/>
	<stop  offset="1" style="stop-color:#384EA1"/>
</linearGradient>
<path style="fill:url(#SVGID_00000023245165156224954770000017437644950946458764_);" d="M1212.3,1253.6c-1.5-1.6-3.4-2.4-5.7-2.3
	c-21.5,0.3-43.1-1.8-64.1-3.8c-13.8-1.4-27.9-3.8-40.3-6c-19.2-3.4-37.7-7.8-53.4-11.8c-26.8-6.6-55.7-14.6-88.6-24.3
	c-20.4-6.1-41.2-11.6-61.5-16.9c-3.2-0.8-6.4-1.6-9.6-2.4c-16.8-4.3-34.1-8.8-51.3-12.3c-19.5-3.9-42.5-8.4-65.7-11
	c-5.5-0.7-11.2-1.2-16.8-1.9c-17.9-2-36.5-4.2-54.9-5c-12-0.5-24.3-1.5-36.2-2.3c-7.8-0.5-16-1.1-23.9-1.6c-7-0.4-14.3-0.8-21.4-1.2
	c-8.8-0.5-17.9-0.9-26.6-1.6c-9.5-0.7-19.1-1.5-28.3-2.3c-11.9-1.1-24.1-2.2-36.1-3c-23-1.5-47.1-4.3-75.6-8.9
	c-23.4-3.8-47.3-8.9-73-15.8c-32.2-8.5-59.5-18.5-83.4-30.6c-31.4-15.6-58.7-37.7-83.6-59.4c-10-8.8-20-17.9-29.8-26.6
	c-9.7-8.8-19.7-17.9-29.9-26.6c-18.5-16.2-36-30-53.4-42.2c-21.4-15-44.9-27.5-71.9-38c-3.4-1.4-6.9-2.3-10.3-3.2
	c-5.3-1.5-10.5-3-15.3-5.5c-0.5-0.3-1-0.2-1.4,0c0,0.7,0,1.5,0,2.2c0,0,0,0.1,0,0.1c0,0,0,0,0.1,0.1c5,2.8,10.5,4.3,15.8,5.8
	c3.4,0.9,6.8,1.9,10,3.1c26.9,10.5,50.2,22.9,71.4,37.7c17.3,12.2,34.8,25.8,53.1,41.9c10,8.8,20,17.9,29.8,26.6
	c9.7,8.8,19.7,17.9,29.9,26.6c25,21.6,52.5,44,84.1,59.6c24.1,12,51.5,22.2,84,30.8c25.8,6.9,49.8,12,73.3,15.8
	c28.7,4.6,52.7,7.4,75.9,8.9c12,0.9,24.2,1.9,36,3c9.3,0.8,18.8,1.6,28.3,2.3c8.8,0.7,17.9,1.2,26.6,1.6c7,0.4,14.2,0.7,21.4,1.2
	c8,0.5,16.1,1.1,23.9,1.6c11.9,0.8,24.2,1.8,36.2,2.3c18.4,0.8,36.9,3,54.8,5c5.5,0.7,11.2,1.4,16.8,1.9c23.1,2.6,46.1,7,65.5,11
	c17,3.5,34.3,8,51.1,12.3c3.2,0.8,6.4,1.6,9.6,2.4c20.3,5.3,41.1,10.8,61.5,16.9c32.9,9.7,61.8,17.7,88.6,24.3
	c15.7,3.9,34.3,8.4,53.7,11.8c12.6,2.2,26.6,4.6,40.6,6c21.1,2,42.9,4.1,64.4,3.8c1.6,0,2.8,0.5,3.8,1.6c0.3,0.3,0.5,0.4,0.9,0.4
	c0.4,0,0.7-0.1,0.9-0.4C1212.7,1255,1212.9,1254.1,1212.3,1253.6z"/>
<linearGradient id="SVGID_00000161615650537308071400000018199905148961292473_" gradientUnits="userSpaceOnUse" x1="7.5614" y1="325.5014" x2="1378.1512" y2="1191.0554">
	<stop  offset="0" style="stop-color:#EE3432"/>
	<stop  offset="3.010000e-02" style="stop-color:#E73536"/>
	<stop  offset="0.3791" style="stop-color:#9D4064"/>
	<stop  offset="0.6682" style="stop-color:#664785"/>
	<stop  offset="0.8831" style="stop-color:#454C99"/>
	<stop  offset="1" style="stop-color:#384EA1"/>
</linearGradient>
<path style="fill:url(#SVGID_00000161615650537308071400000018199905148961292473_);" d="M564,988.3l-167.4-74.9c0,0-5.5-0.5-6.9-3
	l-21.5-41c-0.8-1.5-0.8-3.4,0.1-4.9c0.8-1.5,2.4-2.5,4.1-2.6l677.5-43.6c2.2-0.1,4.2,1.1,5.1,3.1c0.8,2.1,0.3,4.4-1.3,5.9
	C1006.1,870.5,943.2,910,861.5,948C860.8,948.4,564,988.3,564,988.3z M977.4,791c1.5-1.4,2.1-3.4,1.5-5.3
	c-25.8-86.1-77-175.5-144.1-251.6c-62.9-71.4-132.5-122.6-190.7-140.4c-2.4-0.7-5.1,0.3-6.2,2.6c-1.1,2.3-0.3,5.1,1.7,6.5
	c108.2,74.9,187,200.3,234.5,372.6c0.8,2.8,3.6,4.4,6.3,3.7c36.5-9.3,57.1-1,83.1,9.4c2.8,1.1,5.6,2.3,8.6,3.4
	c0.6,0.2,1.3,0.3,1.8,0.3C975.3,792.3,976.5,791.9,977.4,791z M428.2,818.3c116.2-71.8,246-79.6,385.6-23.3c1.7,0.7,3.7,0.5,5.2-0.8
	c1.5-1.1,2.2-3,1.8-4.8C803.9,682.8,750.8,578,667.3,486c-68.6-75.1-154.9-138.4-237-173.5c-2.1-0.9-4.5-0.3-6,1.4
	c-1.5,1.7-1.7,4.1-0.6,6.1c49.7,83.5,149,298.4-2.4,490.9c-1.5,2-1.5,4.8,0.2,6.7c1,1.1,2.4,1.7,3.9,1.7
	C426.4,819.1,427.3,818.9,428.2,818.3z"/>
</svg>
