<svg width="65" height="65" viewBox="0 0 65 65" fill="none" xmlns="http://www.w3.org/2000/svg">
<g clip-path="url(#clip0_1_134)">
<path d="M54.6292 26.2081C53.3032 26.2081 52.0747 26.6176 51.0607 27.3164L38.1582 15.0509C38.7497 14.0921 39.0942 12.9611 39.0942 11.7489C39.0942 8.27136 36.2765 5.45361 32.799 5.45361C29.3215 5.45361 26.5037 8.27136 26.5037 11.7489C26.5037 12.3209 26.5817 12.8734 26.7248 13.3999L17.472 18.1416C16.3182 16.7181 14.5567 15.8081 12.5807 15.8081C9.10325 15.8081 6.2855 18.6259 6.2855 22.1034C6.2855 25.5809 9.10325 28.3986 12.5807 28.3986C13.3802 28.3986 14.1407 28.2491 14.846 27.9794L17.7807 32.5001L14.846 37.0209C14.144 36.7511 13.3802 36.6016 12.5807 36.6016C9.10325 36.6016 6.2855 39.4194 6.2855 42.8969C6.2855 46.3744 9.10325 49.1921 12.5807 49.1921C14.5535 49.1921 16.315 48.2821 17.472 46.8619L26.7215 51.6036C26.5785 52.1301 26.5005 52.6826 26.5005 53.2546C26.5005 56.7321 29.3182 59.5499 32.7957 59.5499C36.2732 59.5499 39.091 56.7321 39.091 53.2546C39.091 52.0424 38.7497 50.9114 38.155 49.9526L51.0575 37.6904C52.0715 38.3891 53.3032 38.7986 54.626 38.7986C58.1035 38.7986 60.9212 35.9809 60.9212 32.5034C60.9277 29.0291 58.1067 26.2081 54.6292 26.2081ZM32.799 46.9594C31.9995 46.9594 31.239 47.1089 30.5337 47.3786L24.5732 38.1941L27.9142 36.4749C29.068 37.8919 30.8263 38.7986 32.799 38.7986C35.8312 38.7986 38.3597 36.6569 38.961 33.8034H48.4705C48.6232 34.5249 48.8962 35.1976 49.27 35.8054L36.3675 48.0676C35.3535 47.3656 34.1217 46.9594 32.799 46.9594ZM32.799 18.0474C34.125 18.0474 35.3535 17.6379 36.3675 16.9391L49.27 29.2046C48.8962 29.8124 48.62 30.4851 48.4705 31.2066H38.961C38.3597 28.3499 35.828 26.2081 32.799 26.2081C30.8295 26.2081 29.0712 27.1149 27.9142 28.5319L24.5732 26.8126L30.5337 17.6281C31.2357 17.8979 31.9995 18.0474 32.799 18.0474ZM26.7248 30.8426C26.5817 31.3724 26.5037 31.9281 26.5037 32.5034C26.5037 33.0786 26.5817 33.6344 26.7248 34.1641L23.1497 36.0004L20.878 32.5001L23.1497 29.0031L26.7248 30.8426ZM27.9078 15.7171C28.0475 15.8894 28.197 16.0551 28.353 16.2111L22.2495 25.6166L18.655 23.7641C18.798 23.2344 18.876 22.6786 18.876 22.1034C18.876 21.5314 18.798 20.9789 18.655 20.4524L27.9078 15.7171ZM17.0268 26.5656C17.1827 26.4129 17.329 26.2504 17.4655 26.0781L20.826 27.8071L19.3277 30.1146L17.0268 26.5656ZM19.3277 34.8921L20.826 37.1996L17.4655 38.9286C17.3258 38.7596 17.1795 38.5971 17.0268 38.4411L19.3277 34.8921ZM18.6582 44.5511C18.8012 44.0246 18.8793 43.4721 18.8793 42.9001C18.8793 42.3249 18.8012 41.7691 18.6582 41.2394L22.2527 39.3901L28.353 48.7956C28.197 48.9516 28.0475 49.1174 27.9078 49.2896L18.6582 44.5511Z" fill="url(#paint0_linear_1_134)"/>
<path d="M32.5 64.8376C28.1352 64.8376 23.9005 63.9828 19.9127 62.2961C16.0615 60.6678 12.6035 58.3343 9.633 55.3671C6.6625 52.3998 4.33225 48.9386 2.704 45.0873C1.01725 41.0996 0.162498 36.8648 0.162498 32.5001C0.162498 28.1353 1.01725 23.9006 2.704 19.9128C4.33225 16.0616 6.66575 12.6036 9.633 9.6331C12.6002 6.6626 16.0615 4.33235 19.9127 2.7041C23.9005 1.01735 28.1352 0.162598 32.5 0.162598C36.8647 0.162598 41.0995 1.01735 45.0872 2.7041C48.9385 4.33235 52.3965 6.66585 55.367 9.6331C58.3375 12.6003 60.6677 16.0616 62.296 19.9128C63.9827 23.9006 64.8375 28.1353 64.8375 32.5001C64.8375 36.8648 63.9827 41.0996 62.296 45.0873C60.6677 48.9386 58.3342 52.3966 55.367 55.3671C52.3997 58.3376 48.9385 60.6678 45.0872 62.2961C41.0995 63.9828 36.8647 64.8376 32.5 64.8376ZM32.5 2.1126C15.743 2.1126 2.1125 15.7431 2.1125 32.5001C2.1125 49.2571 15.743 62.8876 32.5 62.8876C49.257 62.8876 62.8875 49.2571 62.8875 32.5001C62.8875 15.7431 49.257 2.1126 32.5 2.1126Z" fill="url(#paint1_linear_1_134)"/>
</g>
<defs>
<linearGradient id="paint0_linear_1_134" x1="6.28694" y1="32.5001" x2="60.9227" y2="32.5001" gradientUnits="userSpaceOnUse">
<stop stop-color="#EE3432"/>
<stop offset="0.0301" stop-color="#E73536"/>
<stop offset="0.3791" stop-color="#9D4064"/>
<stop offset="0.6682" stop-color="#664785"/>
<stop offset="0.8831" stop-color="#454C99"/>
<stop offset="1" stop-color="#384EA1"/>
</linearGradient>
<linearGradient id="paint1_linear_1_134" x1="0.162261" y1="32.5001" x2="64.8377" y2="32.5001" gradientUnits="userSpaceOnUse">
<stop stop-color="#EE3432"/>
<stop offset="0.0301" stop-color="#E73536"/>
<stop offset="0.3791" stop-color="#9D4064"/>
<stop offset="0.6682" stop-color="#664785"/>
<stop offset="0.8831" stop-color="#454C99"/>
<stop offset="1" stop-color="#384EA1"/>
</linearGradient>
<clipPath id="clip0_1_134">
<rect width="65" height="65" fill="white"/>
</clipPath>
</defs>
</svg>
