<?xml version="1.0" encoding="utf-8"?>
<!-- Generator: Adobe Illustrator 28.0.0, SVG Export Plug-In . SVG Version: 6.00 Build 0)  -->
<svg version="1.1" id="Layer_1" xmlns="http://www.w3.org/2000/svg" xmlns:xlink="http://www.w3.org/1999/xlink" x="0px" y="0px"
	 viewBox="0 0 2000 2000" style="enable-background:new 0 0 2000 2000;" xml:space="preserve">
<style type="text/css">
	.st0{fill:url(#SVGID_1_);stroke:#231F20;stroke-miterlimit:10;}
</style>
<linearGradient id="SVGID_1_" gradientUnits="userSpaceOnUse" x1="110.08" y1="1019.735" x2="1902.8281" y2="1019.735">
	<stop  offset="0" style="stop-color:#EE3432"/>
	<stop  offset="3.010000e-02" style="stop-color:#E73536"/>
	<stop  offset="0.3791" style="stop-color:#9D4064"/>
	<stop  offset="0.6682" style="stop-color:#664785"/>
	<stop  offset="0.8831" style="stop-color:#454C99"/>
	<stop  offset="1" style="stop-color:#384EA1"/>
</linearGradient>
<path class="st0" d="M1711.7,828.6c-52.5,0-100.1,21.2-134.7,55.5l-491.7-401c19.7-30.1,31.2-66,31.2-104.6
	c0-105.6-85.6-191.1-191.1-191.1s-191.1,85.6-191.1,191.1c0,24.4,4.6,47.7,12.9,69.2l-286,147.1c-34.2-52-93-86.4-159.9-86.4
	c-105.6,0-191.1,85.6-191.1,191.1c0,105.6,85.6,191.1,191.1,191.1c31.2,0,60.7-7.5,86.7-20.8l97.2,149.8L388,1169.4
	c-26-13.3-55.5-20.8-86.8-20.8c-105.6,0-191.1,85.6-191.1,191.1c0,105.6,85.6,191.1,191.1,191.1c66.9,0,125.7-34.3,159.9-86.4
	l286.1,147.3c-8.3,21.5-12.9,44.8-12.9,69.2c0,105.6,85.6,191.1,191.1,191.1s191.1-85.6,191.1-191.1c0-38.6-11.5-74.6-31.2-104.6
	l491.7-401c34.5,34.3,82.1,55.5,134.7,55.5c105.6,0,191.1-85.6,191.1-191.1S1817.3,828.6,1711.7,828.6z M925.4,1469.9
	c-31.2,0-60.7,7.5-86.7,20.8l-196.8-303.1l123.5-63.3c34.1,52.2,93.1,86.6,160,86.6c98.8,0,180.1-75,190.1-171.1h406.1
	c3.2,31,13.9,59.8,30.1,84.6l-491.7,401C1025.5,1491.1,977.9,1469.9,925.4,1469.9z M747.1,1088.7L620,1153.8l-87.1-134.2L620,885.5
	l127.1,65.2c-8.3,21.4-12.8,44.7-12.8,69C734.3,1044,738.8,1067.3,747.1,1088.7z M1115.5,999.7c-10-96.2-91.3-171.1-190.1-171.1
	c-67,0-125.9,34.4-160,86.6l-123.5-63.4l196.7-303c26,13.3,55.5,20.8,86.8,20.8c52.5,0,100.1-21.2,134.7-55.5l491.7,401
	c-16.3,24.8-26.9,53.6-30.1,84.6H1115.5z M765.5,483.2c10.9,16.6,24.3,31.4,39.6,43.8l-199,306.5l-126.6-65
	c8.3-21.4,12.8-44.7,12.8-69c0-24.4-4.6-47.7-12.9-69.2L765.5,483.2z M421.5,848c15.4-12.5,28.8-27.3,39.7-44l123,63.1l-75.2,115.8
	L421.5,848z M509,1056.4l75.2,115.8l-123,63c-10.9-16.7-24.3-31.5-39.7-44L509,1056.4z M479.4,1409c8.3-21.5,12.9-44.8,12.9-69.2
	c0-24.3-4.5-47.6-12.8-68.9l126.6-64.9l199,306.6c-15.3,12.4-28.7,27.2-39.6,43.8L479.4,1409z"/>
</svg>
